<?xml version="1.0" standalone="no"?>
<!DOCTYPE svg PUBLIC "-//W3C//DTD SVG 20010904//EN"
 "http://www.w3.org/TR/2001/REC-SVG-20010904/DTD/svg10.dtd">
<svg version="1.0" xmlns="http://www.w3.org/2000/svg"
 width="465.000000pt" height="451.000000pt" viewBox="0 0 465.000000 451.000000"
 preserveAspectRatio="xMidYMid meet">

<g transform="translate(0.000000,451.000000) scale(0.100000,-0.100000)"
fill="#000000" stroke="none">
<path d="M2954 4501 c-4 -4 -179 -11 -275 -11 -15 0 -29 -7 -33 -15 -6 -17
-56 -21 -56 -5 0 7 -13 9 -32 5 -28 -4 -143 -11 -328 -19 -25 -1 -62 -6 -83
-10 -25 -6 -42 -4 -51 3 -16 13 -86 5 -86 -10 0 -5 -35 -6 -77 -3 -60 5 -85 2
-108 -10 -19 -10 -33 -12 -39 -6 -13 13 -126 13 -126 0 0 -5 -13 -7 -31 -3
-21 4 -34 1 -40 -8 -8 -12 -10 -12 -18 0 -10 16 -83 9 -89 -9 -5 -13 -45 -13
-57 -1 -6 6 -22 4 -43 -6 -27 -13 -37 -14 -56 -3 -25 13 -49 5 -78 -24 -18
-17 -94 -31 -102 -18 -6 10 -162 -15 -240 -38 -22 -7 -52 -9 -68 -6 -27 5 -77
-7 -88 -22 -5 -8 -137 -61 -236 -96 -35 -12 -75 -35 -93 -53 -18 -18 -42 -33
-54 -33 -25 0 -117 -75 -117 -95 0 -15 -62 -123 -84 -145 -20 -21 -38 -69 -30
-81 3 -6 -1 -18 -9 -27 -21 -25 -39 -88 -32 -112 3 -11 2 -20 -4 -20 -5 0 -12
-30 -16 -67 -9 -92 -22 -140 -40 -147 -20 -7 -19 -32 1 -40 14 -5 15 -16 10
-64 -9 -79 -25 -277 -32 -398 -5 -72 -3 -103 5 -109 9 -5 9 -10 0 -21 -7 -9
-10 -32 -7 -59 3 -25 2 -48 -3 -51 -14 -8 -11 -112 3 -116 7 -3 8 -10 3 -17
-11 -18 -6 -195 6 -199 12 -5 12 -189 -1 -197 -13 -8 -1 -147 13 -157 6 -4 7
-31 3 -72 -4 -43 -3 -66 4 -66 5 0 10 -13 10 -30 0 -23 -4 -30 -20 -30 -18 0
-20 -7 -20 -55 0 -38 4 -56 16 -63 19 -11 33 -120 16 -131 -8 -5 -9 -26 -1
-76 15 -104 18 -115 34 -115 9 0 15 -10 15 -25 0 -14 -5 -25 -11 -25 -12 0
-10 -23 15 -142 20 -100 40 -148 62 -148 13 0 14 -3 4 -15 -15 -18 5 -85 26
-85 20 0 34 -41 21 -61 -8 -13 2 -39 45 -115 89 -160 192 -287 302 -371 17
-14 26 -29 23 -37 -11 -29 330 -206 397 -206 13 0 37 -5 53 -11 15 -6 64 -13
108 -15 100 -4 108 -6 129 -26 36 -37 358 -49 884 -33 181 6 242 5 242 -4 0
-17 211 -3 226 15 13 16 54 19 54 3 0 -14 103 -1 139 17 16 9 29 10 35 4 15
-15 45 -12 62 5 16 16 79 21 88 7 3 -5 29 -5 58 -1 290 44 406 65 420 77 9 8
38 15 63 17 25 2 77 11 116 21 58 15 68 21 63 36 -4 12 0 18 11 18 10 0 15 -5
12 -13 -8 -22 51 -13 74 11 22 24 39 28 56 11 7 -7 15 -6 27 6 9 9 20 14 25
10 13 -7 126 38 147 59 8 9 23 16 32 16 21 0 142 89 142 105 0 6 16 27 36 46
90 85 173 250 218 432 14 56 28 92 39 98 18 11 25 79 7 79 -17 0 -11 28 9 47
16 15 23 50 41 208 11 105 25 228 30 275 19 173 12 953 -10 1005 -5 11 -18 99
-30 195 -51 414 -118 701 -212 912 -28 61 -34 68 -59 68 -32 0 -38 14 -13 28
13 7 13 13 3 35 -13 28 -24 34 -34 17 -9 -14 -35 -12 -35 3 0 6 4 18 9 26 8
13 12 13 28 0 9 -8 0 11 -21 41 -115 164 -263 293 -424 374 -120 60 -232 101
-241 89 -3 -4 -14 -9 -25 -11 -13 -3 -17 1 -13 12 8 20 -60 41 -79 25 -14 -12
-54 -3 -54 11 0 11 -77 33 -89 25 -5 -3 -69 2 -143 10 -128 14 -214 16 -224 6z
m-334 -95 c0 -3 -4 -8 -10 -11 -5 -3 -10 -1 -10 4 0 6 5 11 10 11 6 0 10 -2
10 -4z m585 -47 c10 -15 -1 -23 -20 -15 -9 3 -13 10 -10 16 8 13 22 13 30 -1z
m215 -9 c0 -5 -2 -10 -4 -10 -3 0 -8 5 -11 10 -3 6 -1 10 4 10 6 0 11 -4 11
-10z m-150 -20 c0 -5 -4 -10 -10 -10 -5 0 -10 5 -10 10 0 6 5 10 10 10 6 0 10
-4 10 -10z m311 -33 c-13 -13 -26 -3 -16 12 3 6 11 8 17 5 6 -4 6 -10 -1 -17z
m-326 -12 c337 -39 560 -137 736 -321 56 -60 152 -196 164 -233 3 -12 10 -21
14 -21 4 0 8 -6 8 -12 0 -7 9 -34 21 -59 50 -108 100 -273 100 -329 1 -19 5
-36 11 -38 5 -2 7 -19 4 -38 -4 -24 -1 -40 11 -53 9 -10 18 -38 20 -63 2 -25
6 -50 8 -54 3 -5 4 -34 3 -64 -1 -30 6 -113 16 -185 26 -188 47 -411 53 -566
5 -112 3 -139 -10 -157 -11 -16 -12 -22 -3 -20 10 2 13 -20 13 -92 0 -52 -3
-117 -6 -145 -3 -27 -11 -113 -17 -190 -17 -201 -58 -514 -69 -528 -5 -7 -15
-43 -21 -80 -7 -38 -18 -85 -25 -105 -8 -21 -19 -56 -25 -80 -7 -24 -22 -49
-35 -57 -15 -10 -26 -29 -30 -55 -3 -21 -12 -43 -19 -47 -8 -4 -36 -33 -62
-63 -44 -50 -67 -67 -162 -117 -18 -9 -33 -22 -33 -28 0 -15 -38 -46 -45 -35
-3 4 1 10 7 13 7 2 10 7 7 11 -7 8 -165 -38 -184 -54 -8 -7 -31 -13 -52 -14
-62 -4 -187 -38 -201 -55 -9 -11 -15 -12 -18 -5 -4 8 -28 6 -87 -8 -77 -18
-332 -59 -369 -59 -10 0 -18 -6 -18 -13 0 -7 -18 -25 -39 -39 l-40 -26 -6 29
c-7 33 -24 41 -26 13 -1 -16 -2 -16 -6 0 -4 15 -12 17 -41 13 -36 -5 -388 -31
-544 -40 -43 -2 -80 0 -84 5 -9 15 -42 10 -46 -8 -3 -15 -4 -15 -21 1 -13 13
-25 16 -45 11 -69 -19 -276 -17 -577 5 -194 15 -450 63 -479 91 -6 5 -18 9
-27 9 -10 0 -25 10 -33 22 -9 12 -16 17 -16 10 0 -18 -25 -15 -62 8 -20 12
-41 17 -55 14 -16 -4 -23 -2 -23 7 0 13 -61 69 -76 69 -3 0 -45 39 -93 88
-101 101 -175 209 -228 333 -21 49 -43 89 -49 89 -6 0 -12 18 -13 40 -1 22 -2
48 -2 58 -1 9 -12 54 -24 99 -13 45 -22 90 -20 100 1 10 -1 23 -6 29 -17 21
-23 103 -9 119 11 14 10 17 -7 21 -17 5 -20 13 -18 52 1 26 -2 67 -7 92 -5 25
-10 59 -13 75 -2 17 -4 30 -5 30 -1 0 -4 62 -8 178 -2 40 -5 47 -22 47 -26 0
-26 20 0 27 16 4 19 12 15 42 -23 179 -23 1084 0 1179 4 15 1 22 -10 22 -8 0
-15 5 -15 10 0 6 6 10 14 10 10 0 17 30 25 118 22 210 32 274 47 289 8 9 12
23 9 32 -3 9 4 34 14 55 11 21 17 44 14 52 -6 17 25 94 39 94 4 0 7 5 6 12 -4
15 118 108 197 150 137 75 279 126 435 156 158 32 261 42 283 30 14 -7 17 -7
13 1 -4 6 -4 11 1 12 4 0 19 2 33 4 86 11 226 22 232 19 4 -3 94 2 200 11 106
8 225 17 263 20 39 3 133 8 210 10 77 2 186 7 242 10 75 5 107 3 122 -7 18
-10 23 -11 30 0 5 8 42 14 106 17 54 3 100 7 102 9 6 6 376 -1 438 -9z m535
-39 c0 -3 -4 -8 -10 -11 -5 -3 -10 -1 -10 4 0 6 5 11 10 11 6 0 10 -2 10 -4z
m-3273 -121 c3 -9 3 -19 -1 -22 -8 -9 -37 18 -30 28 8 14 24 11 31 -6z m3369
4 c3 -6 2 -15 -3 -20 -5 -5 -14 0 -21 11 -10 17 -10 20 2 20 8 0 18 -5 22 -11z
m-3426 -89 c0 -5 -2 -10 -4 -10 -3 0 -8 5 -11 10 -3 6 -1 10 4 10 6 0 11 -4
11 -10z m30 -10 c0 -5 -4 -10 -10 -10 -5 0 -10 5 -10 10 0 6 5 10 10 10 6 0
10 -4 10 -10z m-50 -10 c0 -5 -4 -10 -9 -10 -6 0 -13 5 -16 10 -3 6 1 10 9 10
9 0 16 -4 16 -10z m-50 -64 c0 -13 -20 -26 -41 -26 -14 0 -11 28 4 33 23 10
37 7 37 -7z m-35 -66 c3 -5 1 -10 -4 -10 -6 0 -11 5 -11 10 0 6 2 10 4 10 3 0
8 -4 11 -10z m3905 -34 c0 -3 -4 -8 -10 -11 -5 -3 -10 -1 -10 4 0 6 5 11 10
11 6 0 10 -2 10 -4z m0 -46 c0 -5 -2 -10 -4 -10 -3 0 -8 5 -11 10 -3 6 -1 10
4 10 6 0 11 -4 11 -10z m-24 -25 c18 -15 18 -15 -5 -13 -14 2 -26 9 -29 16 -5
17 10 15 34 -3z m24 -35 c0 -5 -4 -10 -9 -10 -6 0 -13 5 -16 10 -3 6 1 10 9
10 9 0 16 -4 16 -10z m-30 -90 c0 -5 -4 -10 -10 -10 -5 0 -10 5 -10 10 0 6 5
10 10 10 6 0 10 -4 10 -10z m90 -80 c0 -5 -2 -10 -4 -10 -3 0 -8 5 -11 10 -3
6 -1 10 4 10 6 0 11 -4 11 -10z m50 -160 c0 -5 -4 -10 -9 -10 -6 0 -13 5 -16
10 -3 6 1 10 9 10 9 0 16 -4 16 -10z m-4180 -30 c0 -5 -5 -10 -11 -10 -5 0 -7
5 -4 10 3 6 8 10 11 10 2 0 4 -4 4 -10z m4196 -6 c-3 -9 -6 -20 -6 -25 0 -5
-4 -9 -10 -9 -11 0 -14 33 -3 43 12 13 25 7 19 -9z m-4311 -1034 c3 -5 1 -10
-4 -10 -6 0 -11 5 -11 10 0 6 2 10 4 10 3 0 8 -4 11 -10z m100 -210 c3 -5 1
-10 -4 -10 -6 0 -11 5 -11 10 0 6 2 10 4 10 3 0 8 -4 11 -10z m-87 -259 c3 -8
-1 -12 -9 -9 -7 2 -15 10 -17 17 -3 8 1 12 9 9 7 -2 15 -10 17 -17z m-8 -301
c0 -5 -4 -10 -10 -10 -5 0 -10 5 -10 10 0 6 5 10 10 10 6 0 10 -4 10 -10z m50
-164 c0 -3 -4 -8 -10 -11 -5 -3 -10 -1 -10 4 0 6 5 11 10 11 6 0 10 -2 10 -4z
m94 -59 c-4 -12 -54 -20 -54 -9 0 3 7 14 17 24 12 13 19 15 29 7 7 -6 11 -16
8 -22z m-104 -47 c0 -5 -4 -10 -10 -10 -5 0 -10 5 -10 10 0 6 5 10 10 10 6 0
10 -4 10 -10z m110 -50 c0 -5 -4 -10 -10 -10 -5 0 -10 5 -10 10 0 6 5 10 10
10 6 0 10 -4 10 -10z m210 -520 c0 -5 -4 -10 -10 -10 -5 0 -10 5 -10 10 0 6 5
10 10 10 6 0 10 -4 10 -10z m3550 -300 c0 -5 -5 -10 -11 -10 -5 0 -7 5 -4 10
3 6 8 10 11 10 2 0 4 -4 4 -10z m-3430 -30 c0 -5 -2 -10 -4 -10 -3 0 -8 5 -11
10 -3 6 -1 10 4 10 6 0 11 -4 11 -10z m3340 -6 c0 -2 -7 -4 -15 -4 -8 0 -15 4
-15 10 0 5 7 7 15 4 8 -4 15 -8 15 -10z m88 -26 c19 -19 14 -28 -13 -28 -24 0
-34 18 -18 33 9 10 17 9 31 -5z m-404 -4 c9 -3 16 -12 16 -19 0 -15 -27 -28
-41 -19 -5 3 -9 0 -9 -6 0 -6 -5 -8 -11 -4 -7 4 -7 9 -2 13 5 3 12 14 16 24 7
19 9 20 31 11z m96 -14 c0 -5 -4 -10 -10 -10 -5 0 -10 5 -10 10 0 6 5 10 10
10 6 0 10 -4 10 -10z m165 0 c3 -5 1 -10 -4 -10 -6 0 -11 5 -11 10 0 6 2 10 4
10 3 0 8 -4 11 -10z m65 -30 c0 -5 -2 -10 -4 -10 -3 0 -8 5 -11 10 -3 6 -1 10
4 10 6 0 11 -4 11 -10z m-250 -4 c0 -11 -19 -15 -25 -6 -3 5 1 10 9 10 9 0 16
-2 16 -4z m88 -14 c2 -7 -2 -10 -12 -6 -9 3 -16 11 -16 16 0 13 23 5 28 -10z
m202 -16 c0 -2 -7 -6 -15 -10 -8 -3 -15 -1 -15 4 0 6 7 10 15 10 8 0 15 -2 15
-4z m-680 -16 c0 -5 -5 -10 -11 -10 -5 0 -7 5 -4 10 3 6 8 10 11 10 2 0 4 -4
4 -10z m345 0 c-3 -5 -11 -10 -16 -10 -6 0 -7 5 -4 10 3 6 11 10 16 10 6 0 7
-4 4 -10z m195 0 c0 -5 -4 -10 -10 -10 -5 0 -10 5 -10 10 0 6 5 10 10 10 6 0
10 -4 10 -10z m-3104 -20 c8 0 14 -5 14 -11 0 -6 -9 -8 -22 -3 -30 9 -31 10
-22 25 6 10 9 10 12 1 2 -7 10 -12 18 -12z m86 -2 c-7 -7 -12 -8 -12 -2 0 14
12 26 19 19 2 -3 -1 -11 -7 -17z m2749 7 c-1 -15 -24 -12 -29 3 -3 9 2 13 12
10 10 -1 17 -7 17 -13z m-526 -5 c3 -5 -1 -10 -10 -10 -9 0 -13 5 -10 10 3 6
8 10 10 10 2 0 7 -4 10 -10z m-25 -30 c0 -5 -7 -10 -16 -10 -8 0 -12 5 -9 10
3 6 10 10 16 10 5 0 9 -4 9 -10z m230 -20 c0 -5 -2 -10 -4 -10 -3 0 -8 5 -11
10 -3 6 -1 10 4 10 6 0 11 -4 11 -10z m-1890 -25 c7 -9 10 -18 7 -21 -10 -11
-37 5 -37 21 0 19 14 19 30 0z m-346 -36 c-3 -5 -10 -7 -15 -3 -5 3 -7 10 -3
15 3 5 10 7 15 3 5 -3 7 -10 3 -15z m2407 -2 c-13 -13 -26 -3 -16 12 3 6 11 8
17 5 6 -4 6 -10 -1 -17z m-1556 -16 c3 -5 1 -12 -5 -16 -5 -3 -10 1 -10 9 0
18 6 21 15 7z m1305 -16 c-7 -9 -15 -13 -17 -11 -7 7 7 26 19 26 6 0 6 -6 -2
-15z m-1285 -65 c-3 -5 -31 -10 -61 -10 -30 0 -54 5 -54 10 0 6 27 10 61 10
37 0 58 -4 54 -10z"/>
<path d="M2846 4253 c-2 -2 -79 -6 -172 -9 -205 -7 -264 -10 -372 -21 -46 -5
-86 -5 -89 0 -2 4 -23 5 -46 2 -77 -10 -191 -18 -294 -19 -56 -1 -105 -5 -109
-9 -10 -10 -44 -9 -44 2 0 4 -17 7 -37 5 -21 -2 -63 -6 -93 -8 -30 -3 -73 -7
-95 -10 -22 -4 -87 -10 -144 -15 -63 -5 -106 -13 -111 -21 -6 -9 -9 -9 -15 0
-4 6 -18 9 -33 6 -15 -3 -52 -8 -83 -10 -31 -3 -68 -10 -83 -16 -15 -5 -32 -7
-37 -4 -6 3 -15 1 -22 -4 -7 -5 -20 -9 -29 -9 -10 0 -35 -5 -55 -11 -21 -6
-58 -16 -83 -23 -25 -8 -51 -13 -58 -12 -6 0 -12 -5 -12 -13 0 -14 -12 -18
-38 -15 -6 1 -12 -3 -12 -9 0 -6 -4 -9 -9 -5 -5 3 -12 1 -15 -4 -8 -12 -83
-51 -89 -45 -2 2 -10 -2 -17 -11 -7 -8 -18 -15 -25 -15 -7 0 -16 -7 -19 -16
-3 -8 -10 -13 -15 -10 -4 3 -29 -16 -55 -42 -33 -33 -42 -48 -31 -50 8 -2 15
-8 15 -13 0 -6 -8 -9 -17 -7 -21 4 -45 -35 -36 -59 4 -10 2 -14 -5 -10 -10 7
-22 -26 -47 -128 -10 -37 -8 -23 -34 -233 -15 -122 -19 -178 -11 -186 7 -9 6
-22 -5 -42 -11 -23 -16 -87 -20 -269 -3 -132 -7 -334 -10 -450 -2 -115 -1
-241 4 -280 4 -38 4 -75 0 -81 -5 -6 -6 -14 -2 -18 4 -3 8 -37 11 -74 2 -37 9
-70 15 -74 8 -4 7 -11 -2 -21 -7 -9 -8 -18 -3 -21 6 -3 7 -21 2 -43 -10 -48
-7 -77 9 -96 7 -10 8 -18 2 -21 -5 -4 -6 -18 -2 -34 4 -15 7 -50 5 -77 -1 -28
8 -106 22 -174 13 -68 23 -133 23 -144 0 -12 12 -56 26 -97 14 -41 27 -93 30
-116 4 -52 31 -117 45 -109 5 3 10 1 10 -4 0 -6 -5 -11 -10 -11 -6 0 -5 -11 3
-27 8 -16 12 -34 10 -40 -3 -7 0 -13 6 -13 5 0 21 -18 34 -41 14 -22 27 -40
31 -40 16 2 18 0 7 -13 -10 -12 -8 -19 8 -35 12 -12 26 -21 32 -21 8 0 8 -4 1
-13 -13 -15 -4 -31 22 -40 11 -5 16 -13 12 -23 -6 -17 96 -124 119 -124 7 0
18 -7 25 -15 7 -8 26 -22 44 -31 119 -63 175 -87 198 -87 15 0 29 -6 32 -13 3
-8 12 -11 20 -8 8 3 17 1 21 -5 3 -6 14 -11 23 -11 9 0 31 -7 47 -16 17 -9 43
-16 60 -16 16 1 35 -4 42 -9 7 -6 17 -8 23 -4 6 4 16 2 23 -3 7 -6 35 -12 62
-15 52 -5 100 -12 147 -22 14 -4 28 -2 31 2 3 5 27 8 54 6 128 -7 435 -3 763
12 171 7 510 34 530 42 19 8 29 10 58 11 12 1 22 9 22 17 0 19 19 20 26 1 6
-16 76 -13 124 4 14 5 50 11 80 15 30 3 81 10 113 16 31 5 62 7 67 4 6 -3 10
-1 10 6 0 6 8 9 19 6 21 -5 137 16 181 33 14 5 37 12 52 14 15 3 32 7 37 10 5
4 24 8 41 10 18 2 35 8 39 12 3 5 17 10 31 12 14 1 61 16 106 32 44 17 86 30
93 30 7 0 11 6 8 14 -4 10 -1 13 8 10 8 -3 21 0 29 8 8 7 29 24 47 38 97 73
150 147 180 250 7 25 18 52 25 60 6 8 12 27 12 42 -1 41 23 161 35 175 7 9 5
13 -6 13 -23 0 -30 17 -16 41 l12 22 12 -23 c11 -20 13 -14 19 59 4 44 10 81
14 81 4 0 7 26 8 58 0 31 4 77 8 102 4 25 7 64 7 88 0 27 4 42 12 42 8 0 13
17 14 48 11 353 11 427 1 439 -8 9 -7 13 1 13 19 0 -2 509 -21 521 -6 4 -8 14
-5 23 4 9 3 16 -1 16 -4 0 -8 8 -9 18 -2 51 -14 165 -17 171 -2 3 -7 38 -12
76 -4 39 -8 79 -9 90 -1 11 -5 27 -8 35 -3 8 -8 29 -10 45 -3 17 -10 57 -17
90 -7 33 -13 69 -15 80 -1 11 -5 27 -9 35 -6 14 -42 136 -50 171 -9 36 -36 89
-45 89 -6 0 -8 6 -5 14 8 22 -90 201 -109 200 -12 -1 -17 6 -17 23 0 24 -16
48 -34 51 -6 1 -11 9 -12 18 -4 28 -23 41 -35 24 -9 -13 -10 -12 -6 2 7 21
-18 48 -113 120 -67 50 -217 120 -243 114 -7 -1 -9 -1 -4 1 14 9 7 25 -9 19
-8 -3 -22 0 -29 8 -20 20 -136 41 -145 26 -5 -8 -11 -8 -21 3 -16 16 -55 24
-152 32 -56 5 -68 3 -73 -10 -6 -14 -8 -14 -23 -1 -12 11 -49 16 -144 19 -70
2 -129 2 -131 0z m-140 -59 c-23 -16 -46 -19 -46 -5 0 6 10 17 22 25 30 21 52
2 24 -20z m-276 0 c0 -14 -4 -23 -10 -19 -5 3 -10 15 -10 26 0 10 5 19 10 19
6 0 10 -12 10 -26z m775 -4 c3 -5 -1 -10 -10 -10 -9 0 -13 5 -10 10 3 6 8 10
10 10 2 0 7 -4 10 -10z m-125 -71 c0 -5 -4 -9 -10 -9 -5 0 -10 7 -10 16 0 8 5
12 10 9 6 -3 10 -10 10 -16z m-1120 -7 c0 -13 -12 -22 -22 -16 -10 6 -1 24 13
24 5 0 9 -4 9 -8z m1057 -28 c-9 -9 -28 6 -21 18 4 6 10 6 17 -1 6 -6 8 -13 4
-17z m553 -4 c0 -5 -4 -10 -10 -10 -5 0 -10 5 -10 10 0 6 5 10 10 10 6 0 10
-4 10 -10z m-857 -14 c12 -9 14 -16 7 -21 -12 -7 -40 11 -40 26 0 13 12 11 33
-5z m-426 -39 c-2 -7 -11 -13 -20 -15 -12 -3 -17 4 -17 23 0 23 2 25 21 15 11
-6 18 -17 16 -23z m80 17 c-3 -3 -12 -4 -19 -1 -8 3 -5 6 6 6 11 1 17 -2 13
-5z m1240 -30 c-9 -10 -38 16 -31 28 4 6 13 4 22 -6 9 -8 13 -19 9 -22z m-623
-6 c-3 -5 -12 -4 -20 3 -7 6 -11 15 -8 21 3 5 12 4 20 -3 7 -6 11 -15 8 -21z
m366 28 c0 -3 -4 -8 -10 -11 -5 -3 -10 -1 -10 4 0 6 5 11 10 11 6 0 10 -2 10
-4z m-820 -16 c0 -5 -9 -10 -21 -10 -11 0 -17 5 -14 10 3 6 13 10 21 10 8 0
14 -4 14 -10z m520 0 c0 -5 -8 -10 -17 -10 -15 0 -16 2 -3 10 19 12 20 12 20
0z m-591 -27 c-12 -15 -12 -16 8 -11 22 6 60 -22 47 -35 -6 -6 -49 10 -71 26
-15 11 -5 37 14 37 13 0 13 -2 2 -17z m126 -14 c8 -23 1 -34 -14 -24 -13 8
-15 45 -2 45 5 0 13 -9 16 -21z m165 11 c0 -5 -4 -10 -10 -10 -5 0 -10 5 -10
10 0 6 5 10 10 10 6 0 10 -4 10 -10z m350 -11 c0 -18 -2 -19 -15 -9 -8 7 -15
16 -15 21 0 5 7 9 15 9 9 0 15 -9 15 -21z m65 1 c3 -5 15 -10 26 -10 10 0 19
-6 19 -14 0 -9 -10 -13 -32 -11 -25 2 -34 8 -36 24 -3 21 12 29 23 11z m-229
-42 c7 -24 -7 -41 -27 -33 -12 4 -19 48 -10 62 5 9 31 -13 37 -29z m404 22 c0
-5 -3 -10 -7 -10 -5 0 -19 -3 -33 -6 -24 -5 -24 -5 -6 10 22 18 46 21 46 6z
m-365 -10 c3 -5 1 -10 -4 -10 -6 0 -11 5 -11 10 0 6 2 10 4 10 3 0 8 -4 11
-10z m-1341 -21 c-12 -13 -20 -16 -22 -9 -3 7 2 16 9 21 25 16 32 9 13 -12z
m806 11 c0 -5 -4 -10 -10 -10 -5 0 -10 5 -10 10 0 6 5 10 10 10 6 0 10 -4 10
-10z m-1660 -19 c0 -10 -7 -24 -16 -32 -13 -10 -17 -10 -25 2 -13 20 -11 27 9
38 25 15 32 13 32 -8z m1960 9 c0 -5 -2 -10 -4 -10 -3 0 -8 5 -11 10 -3 6 -1
10 4 10 6 0 11 -4 11 -10z m920 0 c0 -5 -4 -10 -10 -10 -5 0 -10 5 -10 10 0 6
5 10 10 10 6 0 10 -4 10 -10z m-1911 -33 c0 -21 -1 -21 -9 -2 -12 28 -12 37 0
30 6 -3 10 -16 9 -28z m1316 23 c-3 -5 -10 -10 -16 -10 -5 0 -9 5 -9 10 0 6 7
10 16 10 8 0 12 -4 9 -10z m695 0 c0 -5 -4 -10 -10 -10 -5 0 -10 5 -10 10 0 6
5 10 10 10 6 0 10 -4 10 -10z m-1600 -65 c60 -38 86 -50 88 -40 2 8 10 11 18
8 8 -3 12 -13 9 -22 -3 -11 12 -31 46 -60 77 -66 96 -102 98 -191 2 -74 -2
-87 -46 -165 -54 -95 -95 -226 -91 -291 3 -46 5 -49 50 -71 26 -13 71 -48 99
-77 117 -122 137 -185 75 -250 -30 -32 -39 -36 -84 -36 -42 0 -54 4 -73 27
-53 60 -118 121 -185 174 -96 76 -109 105 -109 241 0 58 -3 104 -7 101 -5 -2
-8 0 -8 5 0 6 7 12 15 16 8 3 15 13 16 23 0 10 12 41 27 68 76 143 102 202
102 233 0 31 -6 37 -125 114 -69 45 -125 85 -125 90 0 5 -11 19 -25 32 -23 22
-24 24 -7 46 9 13 32 39 50 58 29 31 36 34 70 27 20 -3 75 -31 122 -60z m773
6 c33 -27 65 -47 71 -44 6 3 8 3 4 -2 -4 -4 7 -25 26 -45 18 -20 46 -70 61
-110 24 -63 27 -82 22 -144 -7 -89 -24 -137 -92 -256 -59 -104 -101 -226 -91
-265 3 -13 33 -53 65 -87 75 -81 94 -117 85 -166 -8 -40 -21 -55 -72 -78 -48
-21 -86 -6 -152 61 -29 30 -57 52 -62 49 -5 -4 -8 0 -6 7 1 8 -11 36 -27 63
-43 74 -55 132 -44 213 16 118 46 194 124 312 53 81 74 144 57 172 -7 12 -8
19 -2 19 32 0 -14 96 -64 134 -20 15 -36 24 -36 21 0 -15 -51 56 -61 84 -8 23
-7 37 6 64 34 73 97 72 188 -2z m385 41 c2 -7 -2 -10 -12 -6 -9 3 -16 11 -16
16 0 13 23 5 28 -10z m62 8 c0 -5 -2 -10 -4 -10 -3 0 -8 5 -11 10 -3 6 -1 10
4 10 6 0 11 -4 11 -10z m-680 -46 c0 -17 -21 -23 -43 -12 -17 8 -17 10 0 33
16 22 19 22 31 8 6 -9 12 -22 12 -29z m-1237 25 c12 -7 66 -52 120 -101 53
-49 97 -85 97 -78 0 6 5 8 10 5 6 -4 9 -12 8 -19 -4 -16 33 -96 44 -96 5 0 7
-8 4 -17 -3 -10 0 -36 6 -58 6 -22 10 -64 9 -92 -1 -31 2 -53 9 -53 5 0 10 -7
10 -15 0 -8 -6 -15 -13 -15 -8 0 -19 -19 -26 -41 -12 -41 -12 -43 16 -65 15
-12 25 -26 21 -30 -4 -4 -14 -1 -23 6 -12 10 -15 10 -15 -1 -1 -10 -5 -8 -15
5 -14 18 -17 13 -56 -68 -50 -107 -52 -140 -15 -189 16 -20 32 -37 35 -37 4 0
29 -14 55 -32 56 -37 106 -101 106 -135 0 -63 -65 -121 -122 -109 -70 14 -237
154 -283 238 -24 43 -29 64 -29 113 1 78 33 180 89 290 53 102 63 152 45 226
-12 47 -23 63 -120 158 -76 75 -105 110 -100 121 29 62 39 76 60 87 31 16 45
16 73 2z m2278 -12 c-1 -12 -15 -9 -19 4 -3 6 1 10 8 8 6 -3 11 -8 11 -12z
m169 -8 c0 -5 -6 -9 -14 -9 -8 0 -16 -5 -18 -12 -5 -13 -28 -2 -28 13 0 11 41
29 53 22 4 -2 7 -8 7 -14z m-3305 1 c3 -5 -1 -10 -9 -10 -9 0 -16 5 -16 10 0
6 4 10 9 10 6 0 13 -4 16 -10z m2409 -5 c4 -10 -1 -15 -16 -15 -17 0 -18 2 -8
15 7 8 14 15 15 15 2 0 5 -7 9 -15z m-1456 -13 c2 -7 -3 -12 -12 -12 -9 0 -16
7 -16 16 0 17 22 14 28 -4z m867 8 c3 -5 1 -10 -4 -10 -6 0 -11 5 -11 10 0 6
2 10 4 10 3 0 8 -4 11 -10z m935 0 c11 -7 7 -10 -18 -10 -20 0 -31 4 -27 10 8
13 26 13 45 0z m268 -45 c2 -39 -7 -45 -26 -15 -9 15 -10 26 -2 41 15 27 26
17 28 -26z m377 35 c3 -5 1 -10 -4 -10 -6 0 -11 5 -11 10 0 6 2 10 4 10 3 0 8
-4 11 -10z m-3427 -28 c3 -9 -2 -13 -14 -10 -9 1 -19 9 -22 16 -3 9 2 13 14
10 9 -1 19 -9 22 -16z m167 8 c3 -5 1 -10 -4 -10 -6 0 -11 5 -11 10 0 6 2 10
4 10 3 0 8 -4 11 -10z m2980 0 c3 -5 1 -10 -4 -10 -6 0 -11 5 -11 10 0 6 2 10
4 10 3 0 8 -4 11 -10z m-370 -10 c3 -5 1 -10 -4 -10 -6 0 -11 5 -11 10 0 6 2
10 4 10 3 0 8 -4 11 -10z m195 -5 c0 -8 -4 -15 -10 -15 -5 0 -10 7 -10 15 0 8
5 15 10 15 6 0 10 -7 10 -15z m-1146 -11 c9 -22 8 -24 -9 -18 -8 4 -15 12 -15
20 0 19 16 18 24 -2z m234 -1 c-4 -23 -34 -28 -53 -9 -22 22 -19 26 21 26 28
0 35 -3 32 -17z m572 -4 c0 -6 -4 -7 -10 -4 -5 3 -10 11 -10 16 0 6 5 7 10 4
6 -3 10 -11 10 -16z m-1460 -19 c0 -10 -7 -21 -16 -24 -12 -5 -15 -2 -10 10 3
8 6 22 6 30 0 9 5 12 10 9 6 -3 10 -14 10 -25z m1975 20 c3 -5 2 -10 -4 -10
-5 0 -13 5 -16 10 -3 6 -2 10 4 10 5 0 13 -4 16 -10z m-3165 -15 c0 -8 -4 -15
-10 -15 -5 0 -10 7 -10 15 0 8 5 15 10 15 6 0 10 -7 10 -15z m350 -6 c0 -5 -4
-9 -10 -9 -5 0 -10 7 -10 16 0 8 5 12 10 9 6 -3 10 -10 10 -16z m1575 -30 c0
-24 4 -50 9 -58 6 -9 5 -12 -5 -9 -8 2 -15 17 -17 31 -2 15 -7 27 -11 27 -4 0
-6 14 -3 30 7 46 27 30 27 -21z m1195 36 c-19 -23 -7 -28 40 -15 37 10 45 9
59 -5 15 -16 14 -17 -5 -11 -17 5 -23 1 -28 -19 -7 -26 -26 -35 -26 -11 0 19
-28 28 -50 16 -33 -18 -37 -11 -20 34 5 14 17 26 26 26 14 0 14 -3 4 -15z
m-435 -4 c3 -5 1 -12 -5 -16 -5 -3 -10 1 -10 9 0 18 6 21 15 7z m190 -19 c-8
-8 -25 10 -19 20 4 6 9 5 15 -3 4 -7 6 -15 4 -17z m89 -8 c-15 -22 -34 -32
-34 -19 0 14 33 54 41 49 5 -3 2 -16 -7 -30z m400 15 c-3 -5 -10 -7 -15 -3 -5
3 -7 10 -3 15 3 5 10 7 15 3 5 -3 7 -10 3 -15z m-105 -25 c-14 -18 -24 -11
-15 11 3 9 11 13 16 10 8 -5 7 -11 -1 -21z m-255 10 c9 -3 16 -11 16 -16 0 -6
-6 -8 -14 -5 -8 3 -16 1 -18 -5 -3 -7 -10 -8 -17 -4 -9 6 -9 11 0 22 13 16 12
16 33 8z m-3094 -14 c0 -5 -4 -10 -9 -10 -6 0 -13 5 -16 10 -3 6 1 10 9 10 9
0 16 -4 16 -10z m186 -17 c-10 -10 -19 5 -10 18 6 11 8 11 12 0 2 -7 1 -15 -2
-18z m1874 -5 c-1 -28 -2 -30 -11 -15 -6 10 -8 25 -5 33 9 24 16 16 16 -18z
m1093 17 c4 -8 2 -17 -3 -20 -6 -4 -10 -4 -10 -1 0 2 -3 11 -6 20 -3 9 -2 16
4 16 5 0 12 -7 15 -15z m-2783 -5 c0 -5 -5 -10 -11 -10 -5 0 -7 5 -4 10 3 6 8
10 11 10 2 0 4 -4 4 -10z m1835 0 c3 -5 1 -10 -4 -10 -6 0 -11 5 -11 10 0 6 2
10 4 10 3 0 8 -4 11 -10z m-1740 -20 c0 -7 -6 -15 -12 -17 -8 -3 -13 4 -13 17
0 13 5 20 13 18 6 -3 12 -11 12 -18z m45 10 c0 -5 -2 -10 -4 -10 -3 0 -8 5
-11 10 -3 6 -1 10 4 10 6 0 11 -4 11 -10z m340 -6 c0 -8 -4 -12 -10 -9 -5 3
-10 10 -10 16 0 5 5 9 10 9 6 0 10 -7 10 -16z m2166 -19 c-3 -8 0 -16 7 -19 9
-3 8 -7 -3 -15 -18 -12 -33 -4 -26 15 3 8 0 14 -6 14 -7 0 -6 5 2 15 14 17 34
9 26 -10z m212 7 c2 -7 -3 -12 -12 -12 -9 0 -16 7 -16 16 0 17 22 14 28 -4z
m-1103 -16 c0 -30 -22 -30 -27 -1 -4 20 -2 25 11 23 9 -2 16 -12 16 -22z m545
14 c0 -5 -4 -10 -10 -10 -5 0 -10 5 -10 10 0 6 5 10 10 10 6 0 10 -4 10 -10z
m-2600 -20 c0 -5 -4 -10 -10 -10 -5 0 -10 5 -10 10 0 6 5 10 10 10 6 0 10 -4
10 -10z m2218 -13 c5 -23 -10 -21 -26 4 -12 18 -11 20 5 17 10 -2 19 -11 21
-21z m1052 -9 c0 -14 -43 -20 -50 -7 -15 24 -1 38 26 25 13 -6 24 -14 24 -18z
m240 28 c0 -3 -4 -8 -10 -11 -5 -3 -10 -1 -10 4 0 6 5 11 10 11 6 0 10 -2 10
-4z m-1485 -48 c8 -31 4 -33 -26 -18 -21 12 -26 46 -6 53 16 6 24 -3 32 -35z
m983 31 c-2 -6 -8 -10 -13 -10 -5 0 -11 4 -13 10 -2 6 4 11 13 11 9 0 15 -5
13 -11z m187 1 c11 -17 -5 -32 -21 -19 -8 6 -14 15 -14 20 0 12 27 11 35 -1z
m-915 -10 c0 -5 -9 -10 -19 -10 -11 0 -23 5 -26 10 -4 6 5 10 19 10 14 0 26
-4 26 -10z m480 -10 c0 -5 -5 -10 -11 -10 -5 0 -7 5 -4 10 3 6 8 10 11 10 2 0
4 -4 4 -10z m156 -4 c19 -15 19 -15 -1 -30 -37 -28 -65 -14 -45 24 13 24 20
25 46 6z m194 4 c0 -5 -4 -10 -10 -10 -5 0 -10 5 -10 10 0 6 5 10 10 10 6 0
10 -4 10 -10z m-935 -20 c0 -22 -29 -18 -33 3 -3 14 1 18 15 15 10 -2 18 -10
18 -18z m890 10 c3 -5 15 -10 26 -10 10 0 19 -4 19 -10 0 -5 -7 -10 -15 -10
-19 0 -19 -24 -1 -43 15 -15 4 -37 -19 -37 -5 0 -3 4 5 10 22 14 5 23 -20 10
-27 -14 -37 -6 -20 16 11 13 11 17 1 24 -8 4 -11 12 -7 18 3 6 1 12 -6 14 -15
5 -1 28 17 28 8 0 17 -4 20 -10z m472 -11 c11 -11 6 -49 -7 -49 -5 0 -11 6
-14 13 -3 9 -9 7 -19 -6 -14 -16 -15 -16 -31 7 -15 23 -15 26 2 35 23 14 55
14 69 0z m-565 -31 c-5 -5 -16 -6 -26 -2 -13 5 -14 9 -5 20 9 11 15 12 26 3 8
-7 10 -16 5 -21z m-1612 12 c0 -5 -5 -10 -11 -10 -5 0 -7 5 -4 10 3 6 8 10 11
10 2 0 4 -4 4 -10z m-1470 -9 c0 -5 -7 -11 -15 -15 -15 -5 -20 5 -8 17 9 10
23 9 23 -2z m1050 5 c0 -11 -19 -15 -25 -6 -3 5 1 10 9 10 9 0 16 -2 16 -4z
m610 -6 c0 -5 -4 -10 -10 -10 -5 0 -10 5 -10 10 0 6 5 10 10 10 6 0 10 -4 10
-10z m1270 -16 c0 -12 -6 -15 -21 -11 -16 4 -18 3 -9 -8 14 -16 5 -35 -16 -35
-8 0 -14 9 -14 20 0 11 0 23 -1 28 0 6 29 18 54 21 4 1 7 -6 7 -15z m420 2 c0
-18 -39 -31 -52 -18 -15 15 0 32 28 32 14 0 24 -6 24 -14z m-1970 -6 c0 -5 -5
-10 -11 -10 -5 0 -7 5 -4 10 3 6 8 10 11 10 2 0 4 -4 4 -10z m794 -11 c-3 -5
-10 -7 -15 -3 -5 3 -7 10 -3 15 3 5 10 7 15 3 5 -3 7 -10 3 -15z m616 11 c0
-7 6 -7 19 -1 10 6 21 7 25 4 11 -12 -17 -33 -44 -33 -23 0 -27 4 -23 20 5 21
23 28 23 10z m276 -15 c10 -40 -18 -60 -66 -47 -23 6 -40 6 -40 1 0 -5 -5 -9
-10 -9 -6 0 -5 8 2 20 14 22 43 27 54 8 10 -15 35 19 27 38 -3 8 1 14 11 14 8
0 18 -11 22 -25z m-1631 -5 c-3 -5 -13 -10 -21 -10 -8 0 -14 5 -14 10 0 6 9
10 21 10 11 0 17 -4 14 -10z m980 0 c-3 -5 -10 -10 -16 -10 -5 0 -9 5 -9 10 0
6 7 10 16 10 8 0 12 -4 9 -10z m435 -20 c0 -5 -5 -10 -11 -10 -5 0 -7 5 -4 10
3 6 8 10 11 10 2 0 4 -4 4 -10z m540 -6 c0 -17 -22 -14 -28 4 -2 7 3 12 12 12
9 0 16 -7 16 -16z m30 -14 c0 -5 -4 -10 -10 -10 -5 0 -10 5 -10 10 0 6 5 10
10 10 6 0 10 -4 10 -10z m-540 -31 c0 -10 -4 -19 -9 -19 -14 0 -33 28 -27 39
10 16 36 1 36 -20z m280 21 c0 -5 -4 -10 -10 -10 -5 0 -10 5 -10 10 0 6 5 10
10 10 6 0 10 -4 10 -10z m-1755 -20 c-21 -23 -50 -26 -58 -6 -4 11 3 16 26 19
18 2 36 5 41 5 5 1 1 -7 -9 -18z m61 4 c-3 -9 -6 -21 -6 -27 0 -8 -3 -8 -10
-1 -12 12 -3 44 12 44 6 0 7 -7 4 -16z m1554 -15 c0 -10 -4 -19 -9 -19 -10 0
-21 36 -14 44 10 10 23 -5 23 -25z m290 0 c0 -10 -4 -19 -10 -19 -5 0 -9 11
-8 24 3 28 18 24 18 -5z m-2990 11 c0 -5 -2 -10 -4 -10 -3 0 -8 5 -11 10 -3 6
-1 10 4 10 6 0 11 -4 11 -10z m2475 -10 c0 -7 -6 -15 -12 -17 -8 -3 -13 4 -13
17 0 13 5 20 13 18 6 -3 12 -11 12 -18z m-1245 1 c0 -6 -4 -13 -10 -16 -5 -3
-10 1 -10 9 0 9 5 16 10 16 6 0 10 -4 10 -9z m2190 -6 c0 -8 -7 -15 -15 -15
-26 0 -18 20 13 29 1 1 2 -6 2 -14z m-1030 -10 c-7 -9 -15 -13 -17 -11 -7 7 7
26 19 26 6 0 6 -6 -2 -15z m400 -10 c-7 -9 -15 -13 -18 -10 -3 2 1 11 8 20 7
9 15 13 18 10 3 -2 -1 -11 -8 -20z m315 15 c3 -5 1 -10 -4 -10 -6 0 -11 5 -11
10 0 6 2 10 4 10 3 0 8 -4 11 -10z m-515 -21 c0 -5 -6 -9 -14 -9 -14 0 -28
-23 -30 -50 -1 -8 -8 -13 -16 -11 -8 2 -24 4 -36 4 -11 0 -26 8 -32 18 -8 12
-8 19 -2 19 5 0 10 -4 10 -10 0 -20 31 -9 68 24 34 32 52 37 52 15z m48 3 c2
-7 -2 -10 -12 -6 -9 3 -16 11 -16 16 0 13 23 5 28 -10z m222 -15 c-1 -21 -1
-21 -15 -3 -8 10 -12 23 -9 28 9 14 24 -2 24 -25z m500 7 c0 -20 -7 -17 -20 6
-9 16 -8 18 5 14 8 -4 15 -12 15 -20z m-3276 0 c4 -10 1 -14 -6 -12 -15 5 -23
28 -10 28 5 0 13 -7 16 -16z m1281 6 c3 -5 1 -10 -4 -10 -6 0 -11 5 -11 10 0
6 2 10 4 10 3 0 8 -4 11 -10z m1165 0 c0 -5 -4 -10 -10 -10 -5 0 -10 5 -10 10
0 6 5 10 10 10 6 0 10 -4 10 -10z m-650 -4 c0 -3 -4 -8 -10 -11 -5 -3 -10 -1
-10 4 0 6 5 11 10 11 6 0 10 -2 10 -4z m1160 -6 c0 -5 -2 -10 -4 -10 -3 0 -8
5 -11 10 -3 6 -1 10 4 10 6 0 11 -4 11 -10z m-1815 -37 c-12 -18 -20 -23 -23
-15 -4 13 29 53 37 46 2 -2 -4 -16 -14 -31z m1505 27 c0 -5 -9 -14 -20 -20
-22 -12 -27 -1 -8 18 14 14 28 16 28 2z m-1649 -23 c-13 -13 -26 -3 -16 12 3
6 11 8 17 5 6 -4 6 -10 -1 -17z m1879 13 c0 -5 -5 -10 -11 -10 -5 0 -7 5 -4
10 3 6 8 10 11 10 2 0 4 -4 4 -10z m-50 -15 c0 -8 -4 -15 -10 -15 -5 0 -10 7
-10 15 0 8 5 15 10 15 6 0 10 -7 10 -15z m-1850 -25 c0 -5 -4 -10 -10 -10 -5
0 -10 5 -10 10 0 6 5 10 10 10 6 0 10 -4 10 -10z m-308 -36 c-4 -23 -6 -24
-14 -10 -11 19 -3 50 11 42 4 -3 6 -17 3 -32z m1643 17 c0 -8 -4 -16 -10 -18
-16 -5 -38 14 -30 26 9 16 40 9 40 -8z m975 -18 c0 -13 -3 -13 -15 -3 -8 7
-15 19 -15 27 0 13 3 13 15 3 8 -7 15 -19 15 -27z m89 21 c2 -2 2 -6 -1 -9 -9
-10 -58 6 -52 16 5 9 41 3 53 -7z m-2274 -26 c-10 -45 -16 -53 -27 -35 -6 11
-3 25 8 42 22 34 27 32 19 -7z m1255 12 c0 -5 -4 -10 -10 -10 -5 0 -10 5 -10
10 0 6 5 10 10 10 6 0 10 -4 10 -10z m335 -10 c3 -5 -1 -10 -10 -10 -9 0 -13
5 -10 10 3 6 8 10 10 10 2 0 7 -4 10 -10z m295 -22 c0 -8 -40 -31 -45 -26 -2
2 -1 15 2 30 4 24 7 25 24 15 10 -6 19 -15 19 -19z m-1990 -2 c0 -8 7 -19 15
-26 8 -7 15 -21 15 -31 0 -10 4 -20 9 -24 6 -3 7 9 4 31 l-6 36 26 -17 c16
-10 26 -26 26 -39 0 -11 2 -30 6 -42 4 -13 1 -25 -9 -33 -14 -12 -16 -9 -16
17 0 24 -4 30 -15 25 -18 -6 -55 23 -55 44 0 7 -9 13 -20 13 -23 0 -26 13 -6
30 8 6 12 19 9 27 -4 11 -2 14 5 9 7 -4 12 -13 12 -20z m1527 2 c-3 -8 -6 -5
-6 6 -1 11 2 17 5 13 3 -3 4 -12 1 -19z m130 -5 c-8 -7 -37 9 -31 19 3 5 12 4
20 -3 8 -6 13 -14 11 -16z m113 23 c0 -3 -4 -8 -10 -11 -5 -3 -10 -1 -10 4 0
6 5 11 10 11 6 0 10 -2 10 -4z m-2670 -37 c0 -11 -4 -17 -10 -14 -5 3 -10 13
-10 21 0 8 5 14 10 14 6 0 10 -9 10 -21z m2370 1 c0 -5 -4 -10 -10 -10 -5 0
-10 5 -10 10 0 6 5 10 10 10 6 0 10 -4 10 -10z m-2580 -31 c0 -5 -7 -9 -15 -9
-15 0 -20 12 -9 23 8 8 24 -1 24 -14z m3463 0 c-14 -14 -27 -19 -39 -15 -16 6
-16 8 6 21 41 22 58 18 33 -6z m-183 -30 c0 -16 5 -29 10 -29 6 0 10 -7 10
-15 0 -19 -56 -21 -63 -2 -3 10 -9 10 -26 0 -28 -17 -36 -16 -21 2 6 8 9 19 6
24 -4 6 2 15 13 20 28 15 41 14 35 -4 -4 -8 -1 -15 5 -15 6 0 11 14 11 31 0
17 4 28 10 24 6 -3 10 -19 10 -36z m-3446 5 c4 -11 1 -14 -11 -12 -9 2 -18 9
-21 16 -6 18 25 15 32 -4z m3060 10 c24 -9 20 -33 -4 -27 -11 3 -20 12 -20 19
0 16 2 16 24 8z m-1634 -14 c0 -5 -4 -10 -10 -10 -5 0 -10 5 -10 10 0 6 5 10
10 10 6 0 10 -4 10 -10z m1090 -21 c0 -5 -4 -9 -10 -9 -5 0 -10 7 -10 16 0 8
5 12 10 9 6 -3 10 -10 10 -16z m-2020 7 c0 -3 -4 -8 -10 -11 -5 -3 -10 -1 -10
4 0 6 5 11 10 11 6 0 10 -2 10 -4z m786 -25 c-12 -19 -24 -12 -19 10 4 13 9
17 15 11 6 -6 7 -15 4 -21z m1924 19 c0 -5 -4 -10 -10 -10 -5 0 -10 5 -10 10
0 6 5 10 10 10 6 0 10 -4 10 -10z m140 -6 c0 -8 -4 -12 -10 -9 -5 3 -10 10
-10 16 0 5 5 9 10 9 6 0 10 -7 10 -16z m-2797 -27 c-3 -5 -10 -4 -15 1 -6 6
-7 16 -3 22 6 9 9 9 16 -1 4 -7 5 -17 2 -22z m-163 1 c0 -7 -4 -19 -9 -27 -11
-17 -23 1 -15 23 7 19 24 21 24 4z m2540 2 c0 -5 -2 -10 -4 -10 -3 0 -8 5 -11
10 -3 6 -1 10 4 10 6 0 11 -4 11 -10z m-2395 -34 c8 3 15 1 15 -5 0 -15 -22
-14 -45 2 -11 9 -15 19 -10 27 6 10 10 8 16 -8 5 -14 14 -20 24 -16z m2665 24
c0 -5 -4 -10 -10 -10 -5 0 -10 5 -10 10 0 6 5 10 10 10 6 0 10 -4 10 -10z
m-430 -10 c0 -5 -4 -10 -9 -10 -6 0 -13 5 -16 10 -3 6 1 10 9 10 9 0 16 -4 16
-10z m950 0 c0 -5 -6 -10 -14 -10 -8 0 -18 5 -21 10 -3 6 3 10 14 10 12 0 21
-4 21 -10z m-2470 -16 c0 -8 -5 -12 -10 -9 -6 4 -8 11 -5 16 9 14 15 11 15 -7z
m-1112 -59 c0 -14 -4 -10 -14 13 -8 18 -11 38 -7 45 8 13 21 -23 21 -58z
m3325 40 c3 -18 -1 -29 -14 -35 -29 -16 -32 -12 -15 15 9 14 14 30 11 35 -3 6
-2 10 3 10 5 0 12 -11 15 -25z m57 6 c0 -24 -26 -35 -34 -14 -8 19 1 33 20 33
8 0 14 -9 14 -19z m-1645 0 c3 -5 1 -12 -5 -16 -5 -3 -10 1 -10 9 0 18 6 21
15 7z m-445 -20 c0 -6 -5 -13 -10 -16 -6 -4 -8 -11 -5 -16 4 -5 2 -9 -3 -9
-10 0 -22 23 -22 41 0 5 9 9 20 9 11 0 20 -4 20 -9z m-1195 -11 c-3 -5 -10
-10 -16 -10 -5 0 -9 5 -9 10 0 6 7 10 16 10 8 0 12 -4 9 -10z m113 -7 c5 -18
-10 -16 -34 2 -18 15 -18 15 5 13 14 -2 26 -9 29 -15z m2082 -58 c7 -8 8 -15
2 -15 -5 0 -15 7 -22 15 -7 8 -8 15 -2 15 5 0 15 -7 22 -15z m-960 -5 c0 -5
-4 -10 -10 -10 -5 0 -10 5 -10 10 0 6 5 10 10 10 6 0 10 -4 10 -10z m-47 -31
c-5 -19 -7 -19 -15 -5 -10 18 -2 39 12 31 4 -3 6 -15 3 -26z m-923 -10 c0 -5
-4 -9 -10 -9 -5 0 -10 7 -10 16 0 8 5 12 10 9 6 -3 10 -10 10 -16z m-205 1
c-3 -5 -10 -10 -16 -10 -5 0 -9 5 -9 10 0 6 7 10 16 10 8 0 12 -4 9 -10z m-45
-18 c0 -13 -12 -22 -22 -16 -10 6 -1 24 13 24 5 0 9 -4 9 -8z m2550 -22 c0 -5
-2 -10 -4 -10 -3 0 -8 5 -11 10 -3 6 -1 10 4 10 6 0 11 -4 11 -10z m135 -40
c-3 -5 -10 -10 -16 -10 -5 0 -9 5 -9 10 0 6 7 10 16 10 8 0 12 -4 9 -10z m115
-20 c0 -11 -8 -23 -17 -27 -10 -3 -28 -15 -39 -25 -14 -13 -24 -16 -28 -9 -12
18 13 51 39 51 18 0 23 4 19 15 -4 9 0 15 10 15 9 0 16 -8 16 -20z m108 -12
c-2 -6 -10 -14 -16 -16 -7 -2 -10 2 -6 12 7 18 28 22 22 4z m-2808 -18 c11
-21 4 -25 -19 -11 -7 5 -10 14 -7 20 10 15 14 14 26 -9z m2330 -81 c0 -5 -7
-9 -15 -9 -15 0 -20 12 -9 23 8 8 24 -1 24 -14z m315 -49 c-3 -5 -10 -10 -15
-10 -14 0 -32 40 -26 57 5 12 10 10 27 -11 11 -14 17 -30 14 -36z m125 -30 c0
-5 -4 -10 -9 -10 -6 0 -13 5 -16 10 -3 6 1 10 9 10 9 0 16 -4 16 -10z m35 -10
c3 -5 1 -10 -4 -10 -6 0 -11 5 -11 10 0 6 2 10 4 10 3 0 8 -4 11 -10z m-465
-60 c0 -5 -5 -10 -11 -10 -5 0 -7 5 -4 10 3 6 8 10 11 10 2 0 4 -4 4 -10z
m-470 -60 c0 -5 -4 -10 -10 -10 -5 0 -10 5 -10 10 0 6 5 10 10 10 6 0 10 -4
10 -10z m-251 -16 c144 -36 321 -147 414 -261 118 -143 152 -227 166 -406 11
-137 1 -217 -49 -367 -57 -175 -122 -311 -276 -580 -78 -135 -153 -274 -169
-310 -73 -172 -94 -207 -142 -239 -51 -34 -89 -39 -119 -16 -10 8 -31 15 -46
15 -35 0 -211 139 -267 210 -134 169 -298 502 -406 825 -64 187 -87 304 -86
434 1 83 5 108 41 213 23 66 39 127 36 135 -4 9 0 13 12 11 11 -2 16 3 15 15
0 10 2 16 5 13 3 -4 44 32 91 78 103 99 176 148 283 187 157 57 366 75 497 43z
m1631 -14 c0 -5 -7 -10 -15 -10 -8 0 -15 5 -15 10 0 6 7 10 15 10 8 0 15 -4
15 -10z m-385 -140 c3 -5 1 -10 -4 -10 -6 0 -11 5 -11 10 0 6 2 10 4 10 3 0 8
-4 11 -10z m70 -60 c3 -5 1 -10 -4 -10 -6 0 -11 5 -11 10 0 6 2 10 4 10 3 0 8
-4 11 -10z m-60 -9 c3 -5 1 -12 -5 -16 -5 -3 -10 1 -10 9 0 18 6 21 15 7z
m-355 -101 c0 -5 -2 -10 -4 -10 -3 0 -8 5 -11 10 -3 6 -1 10 4 10 6 0 11 -4
11 -10z m-2980 -80 c0 -5 -5 -10 -11 -10 -5 0 -7 5 -4 10 3 6 8 10 11 10 2 0
4 -4 4 -10z m-90 -100 c0 -5 -4 -10 -10 -10 -5 0 -10 5 -10 10 0 6 5 10 10 10
6 0 10 -4 10 -10z m3350 -21 c0 -5 -9 -9 -20 -9 -22 0 -27 16 -7 23 15 5 27
-1 27 -14z m530 -35 c0 -8 -4 -14 -10 -14 -5 0 -10 9 -10 21 0 11 5 17 10 14
6 -3 10 -13 10 -21z m-535 6 c-3 -5 -11 -10 -16 -10 -6 0 -7 5 -4 10 3 6 11
10 16 10 6 0 7 -4 4 -10z m-165 -40 c0 -5 -4 -10 -9 -10 -6 0 -13 5 -16 10 -3
6 1 10 9 10 9 0 16 -4 16 -10z m610 -24 c0 -3 -4 -8 -10 -11 -5 -3 -10 -1 -10
4 0 6 5 11 10 11 6 0 10 -2 10 -4z m-130 -16 c0 -5 -2 -10 -4 -10 -3 0 -8 5
-11 10 -3 6 -1 10 4 10 6 0 11 -4 11 -10z m-324 -77 c-10 -10 -19 5 -10 18 6
11 8 11 12 0 2 -7 1 -15 -2 -18z m-76 7 c0 -5 -4 -10 -10 -10 -5 0 -10 5 -10
10 0 6 5 10 10 10 6 0 10 -4 10 -10z m-3215 -20 c3 -5 1 -10 -4 -10 -6 0 -11
5 -11 10 0 6 2 10 4 10 3 0 8 -4 11 -10z m35 -16 c0 -8 -4 -12 -10 -9 -5 3
-10 10 -10 16 0 5 5 9 10 9 6 0 10 -7 10 -16z m-91 -12 c7 -13 7 -22 -1 -30
-14 -14 -38 -4 -38 17 0 34 24 41 39 13z m1171 8 c0 -5 -4 -10 -10 -10 -5 0
-10 5 -10 10 0 6 5 10 10 10 6 0 10 -4 10 -10z m2460 6 c0 -3 -4 -8 -10 -11
-5 -3 -10 -1 -10 4 0 6 5 11 10 11 6 0 10 -2 10 -4z m260 -39 c0 -5 -8 -3 -17
4 -10 7 -20 14 -22 16 -1 1 0 7 5 14 5 9 11 7 21 -6 7 -11 13 -23 13 -28z
m-2890 13 c0 -5 -4 -10 -10 -10 -5 0 -10 5 -10 10 0 6 5 10 10 10 6 0 10 -4
10 -10z m2650 -6 c0 -8 -4 -12 -10 -9 -5 3 -10 10 -10 16 0 5 5 9 10 9 6 0 10
-7 10 -16z m-152 -21 c11 -22 5 -43 -13 -43 -13 0 -27 45 -17 55 10 10 21 5
30 -12z m-2583 -53 c-3 -5 -11 -10 -16 -10 -6 0 -7 5 -4 10 3 6 11 10 16 10 6
0 7 -4 4 -10z m2690 -30 c3 -5 -1 -10 -10 -10 -9 0 -13 5 -10 10 3 6 8 10 10
10 2 0 7 -4 10 -10z m-305 -10 c0 -5 -4 -10 -10 -10 -5 0 -10 5 -10 10 0 6 5
10 10 10 6 0 10 -4 10 -10z m-2500 -27 c0 -13 -3 -13 -15 -3 -8 7 -12 16 -9
21 8 13 24 1 24 -18z m2870 17 c0 -5 -4 -10 -10 -10 -5 0 -10 5 -10 10 0 6 5
10 10 10 6 0 10 -4 10 -10z m120 -41 c0 -4 -7 -10 -16 -13 -12 -4 -15 -2 -10
9 3 8 1 15 -4 15 -6 0 -10 5 -10 10 0 6 8 5 20 -2 11 -7 20 -16 20 -19z m-112
-13 c3 -12 -1 -17 -10 -14 -7 3 -15 13 -16 22 -3 12 1 17 10 14 7 -3 15 -13
16 -22z m172 8 c0 -8 -5 -12 -10 -9 -6 4 -8 11 -5 16 9 14 15 11 15 -7z
m-3562 -11 c-2 -10 -10 -18 -18 -18 -8 0 -16 8 -18 18 -2 12 3 17 18 17 15 0
20 -5 18 -17z m3442 7 c0 -5 -4 -10 -10 -10 -5 0 -10 5 -10 10 0 6 5 10 10 10
6 0 10 -4 10 -10z m-615 -21 c-8 -12 -55 -12 -55 0 0 10 39 20 53 13 4 -2 5
-8 2 -13z m792 8 c-1 -5 -6 -8 -10 -8 -4 1 -14 1 -22 1 -8 0 -15 4 -15 9 0 5
11 8 25 7 14 0 24 -5 22 -9z m-577 -5 c0 -10 -41 -35 -47 -28 -9 8 17 36 33
36 8 0 14 -3 14 -8z m300 -22 c0 -5 -4 -10 -10 -10 -5 0 -10 5 -10 10 0 6 5
10 10 10 6 0 10 -4 10 -10z m-2880 -24 c0 -3 -4 -8 -10 -11 -5 -3 -10 -1 -10
4 0 6 5 11 10 11 6 0 10 -2 10 -4z m2850 -45 c0 -14 -18 -23 -30 -16 -6 4 -8
11 -5 16 8 12 35 12 35 0z m300 -17 c0 -8 -4 -14 -9 -14 -12 0 -32 26 -25 33
10 9 34 -4 34 -19z m-3915 -44 c3 -5 2 -10 -4 -10 -5 0 -13 5 -16 10 -3 6 -2
10 4 10 5 0 13 -4 16 -10z m705 -20 c0 -5 -2 -10 -4 -10 -3 0 -8 5 -11 10 -3
6 -1 10 4 10 6 0 11 -4 11 -10z m2786 -16 c-5 -14 -9 -15 -19 -5 -9 9 -9 14 3
21 18 11 24 6 16 -16z m-2966 6 c0 -5 -2 -10 -4 -10 -3 0 -8 5 -11 10 -3 6 -1
10 4 10 6 0 11 -4 11 -10z m-335 -20 c3 -5 -1 -10 -9 -10 -9 0 -16 5 -16 10 0
6 4 10 9 10 6 0 13 -4 16 -10z m3183 -8 c6 -18 -15 -14 -22 4 -4 10 -1 14 6
12 6 -2 14 -10 16 -16z m292 -23 c0 -17 -3 -18 -20 -9 -20 11 -25 22 -14 33
11 11 34 -5 34 -24z m38 13 c2 -7 -2 -10 -12 -6 -9 3 -16 11 -16 16 0 13 23 5
28 -10z m-448 -6 c0 -3 -4 -8 -10 -11 -5 -3 -10 -1 -10 4 0 6 5 11 10 11 6 0
10 -2 10 -4z m60 -26 c0 -5 -5 -10 -11 -10 -5 0 -7 5 -4 10 3 6 8 10 11 10 2
0 4 -4 4 -10z m463 -114 c6 -15 -1 -26 -15 -26 -4 0 -8 9 -8 20 0 23 15 27 23
6z m-2898 -36 c3 -5 1 -10 -4 -10 -6 0 -11 5 -11 10 0 6 2 10 4 10 3 0 8 -4
11 -10z m2485 -10 c0 -5 -7 -10 -16 -10 -8 0 -12 5 -9 10 3 6 10 10 16 10 5 0
9 -4 9 -10z m-625 -10 c3 -5 1 -10 -4 -10 -6 0 -11 5 -11 10 0 6 2 10 4 10 3
0 8 -4 11 -10z m323 -48 c2 -7 -2 -10 -12 -6 -9 3 -16 11 -16 16 0 13 23 5 28
-10z m-443 -2 c3 -5 1 -10 -4 -10 -6 0 -11 5 -11 10 0 6 2 10 4 10 3 0 8 -4
11 -10z m-2365 -40 c0 -5 -4 -10 -10 -10 -5 0 -10 5 -10 10 0 6 5 10 10 10 6
0 10 -4 10 -10z m2955 -20 c3 -5 1 -10 -4 -10 -6 0 -11 5 -11 10 0 6 2 10 4
10 3 0 8 -4 11 -10z m-3135 -20 c0 -5 -4 -10 -10 -10 -5 0 -10 5 -10 10 0 6 5
10 10 10 6 0 10 -4 10 -10z m3190 -4 c0 -3 -4 -8 -10 -11 -5 -3 -10 -1 -10 4
0 6 5 11 10 11 6 0 10 -2 10 -4z m133 -2 c9 -10 -4 -34 -18 -34 -20 0 -30 21
-14 31 17 10 24 11 32 3z m-418 -34 c3 -5 -1 -10 -10 -10 -9 0 -13 5 -10 10 3
6 8 10 10 10 2 0 7 -4 10 -10z m85 0 c17 -9 18 -14 8 -35 -6 -14 -15 -25 -20
-25 -11 0 -30 49 -22 61 7 11 11 11 34 -1z m390 0 c0 -5 -5 -10 -11 -10 -5 0
-7 5 -4 10 3 6 8 10 11 10 2 0 4 -4 4 -10z m-3030 -30 c0 -5 -9 -10 -21 -10
-11 0 -17 5 -14 10 3 6 13 10 21 10 8 0 14 -4 14 -10z m-157 -53 c-4 -19 -11
-27 -22 -25 -25 5 -24 32 1 44 29 13 27 14 21 -19z m2837 13 c0 -5 -4 -10 -10
-10 -5 0 -10 5 -10 10 0 6 5 10 10 10 6 0 10 -4 10 -10z m390 -20 c0 -5 -4
-10 -10 -10 -5 0 -10 5 -10 10 0 6 5 10 10 10 6 0 10 -4 10 -10z m-428 -22
c-7 -7 -12 -8 -12 -2 0 14 12 26 19 19 2 -3 -1 -11 -7 -17z m178 -3 c7 -9 10
-18 7 -22 -8 -7 -37 15 -37 28 0 14 16 11 30 -6z m-110 -11 c0 -17 -22 -14
-28 4 -2 7 3 12 12 12 9 0 16 -7 16 -16z m35 6 c-3 -5 -11 -10 -16 -10 -6 0
-7 5 -4 10 3 6 11 10 16 10 6 0 7 -4 4 -10z m-305 -20 c0 -5 -4 -10 -10 -10
-5 0 -10 5 -10 10 0 6 5 10 10 10 6 0 10 -4 10 -10z m240 -4 c0 -3 -4 -8 -10
-11 -5 -3 -10 -1 -10 4 0 6 5 11 10 11 6 0 10 -2 10 -4z m120 -11 c0 -8 -4
-15 -10 -15 -5 0 -10 7 -10 15 0 8 5 15 10 15 6 0 10 -7 10 -15z m140 4 c0 -4
-5 -11 -10 -14 -6 -4 -8 -11 -4 -17 3 -5 -8 -2 -25 7 -18 9 -30 19 -27 23 6
10 66 11 66 1z m89 -15 c-8 -10 -8 -14 0 -14 6 0 11 -4 11 -10 0 -5 -6 -10
-13 -10 -18 0 -54 -40 -59 -65 -4 -18 -6 -17 -18 8 -12 25 -11 29 7 47 13 12
19 27 16 39 -4 15 1 20 19 23 36 6 51 -2 37 -18z m251 -24 c0 -5 -7 -10 -16
-10 -8 0 -12 5 -9 10 3 6 10 10 16 10 5 0 9 -4 9 -10z m-460 -15 c10 6 12 2 8
-13 -4 -13 -1 -22 5 -22 6 0 7 -3 4 -6 -4 -4 8 -14 26 -23 23 -12 33 -25 38
-51 10 -50 0 -57 -22 -15 -11 20 -17 41 -13 47 4 7 -4 8 -24 3 -25 -5 -33 -2
-41 14 -6 11 -20 23 -31 26 -11 3 -20 11 -20 17 0 5 7 7 16 4 11 -4 18 1 21
15 4 14 8 17 13 9 5 -7 13 -9 20 -5z m-400 1 c0 -3 -4 -8 -10 -11 -5 -3 -10
-1 -10 4 0 6 5 11 10 11 6 0 10 -2 10 -4z m267 -20 c-2 -6 -14 -10 -25 -8 -22
3 -30 -12 -12 -23 6 -3 10 -15 10 -27 0 -12 8 -22 21 -25 12 -3 18 -11 15 -19
-3 -8 1 -14 9 -14 17 0 17 -2 9 -24 -3 -9 -14 -16 -24 -16 -10 0 -21 -6 -23
-12 -4 -8 -6 -7 -6 3 -1 9 -8 20 -17 23 -9 4 -14 9 -11 12 3 4 -6 25 -20 47
-17 26 -22 42 -14 45 6 2 9 8 6 12 -3 5 -12 7 -19 4 -8 -3 -17 -1 -21 5 -3 7
2 11 14 11 11 0 23 4 26 10 8 14 87 10 82 -4z m558 4 c3 -5 1 -10 -4 -10 -6 0
-11 5 -11 10 0 6 2 10 4 10 3 0 8 -4 11 -10z m-707 -31 c-2 -6 -8 -10 -13 -10
-5 0 -11 4 -13 10 -2 6 4 11 13 11 9 0 15 -5 13 -11z m202 -24 c0 -16 -35 -21
-44 -6 -8 12 4 21 26 21 10 0 18 -7 18 -15z m316 -12 c-7 -7 -26 7 -26 19 0 6
6 6 15 -2 9 -7 13 -15 11 -17z m137 2 c-3 -8 -9 -15 -14 -15 -10 0 -12 24 -3
33 11 11 24 -3 17 -18z m-1233 11 c0 -11 -19 -15 -25 -6 -3 5 1 10 9 10 9 0
16 -2 16 -4z m597 -22 c-9 -9 -28 6 -21 18 4 6 10 6 17 -1 6 -6 8 -13 4 -17z
m23 -29 c0 -13 -7 -28 -15 -33 -13 -7 -14 -14 -6 -35 6 -15 15 -27 21 -27 5 0
10 -10 10 -21 0 -18 -3 -19 -14 -9 -8 6 -25 10 -37 8 -18 -3 -22 2 -26 34 -2
20 1 39 7 43 5 3 10 15 10 25 0 17 23 39 43 40 4 0 7 -11 7 -25z m160 15 c0
-5 -7 -10 -15 -10 -8 0 -15 5 -15 10 0 6 7 10 15 10 8 0 15 -4 15 -10z m320
-17 c0 -20 -24 -11 -28 10 -2 12 1 15 12 11 9 -3 16 -13 16 -21z m-717 -17 c4
-10 1 -13 -8 -9 -8 3 -12 9 -9 14 7 12 11 11 17 -5z m91 -1 c-5 -12 -10 -13
-20 -4 -19 15 -18 19 6 19 13 0 18 -5 14 -15z m-296 -14 c3 -8 -1 -12 -9 -9
-7 2 -15 10 -17 17 -3 8 1 12 9 9 7 -2 15 -10 17 -17z m352 9 c0 -5 -7 -10
-15 -10 -8 0 -15 5 -15 10 0 6 7 10 15 10 8 0 15 -4 15 -10z m520 -10 c0 -5
-4 -10 -9 -10 -6 0 -13 5 -16 10 -3 6 1 10 9 10 9 0 16 -4 16 -10z m-50 -10
c0 -5 -7 -10 -15 -10 -8 0 -15 5 -15 10 0 6 7 10 15 10 8 0 15 -4 15 -10z
m-630 -20 c0 -11 -4 -20 -10 -20 -5 0 -10 9 -10 20 0 11 5 20 10 20 6 0 10 -9
10 -20z m425 10 c-3 -5 -11 -10 -16 -10 -6 0 -7 5 -4 10 3 6 11 10 16 10 6 0
7 -4 4 -10z m330 -10 c-3 -5 -13 -10 -21 -10 -8 0 -14 5 -14 10 0 6 9 10 21
10 11 0 17 -4 14 -10z m27 -12 c-7 -7 -12 -8 -12 -2 0 14 12 26 19 19 2 -3 -1
-11 -7 -17z m-393 -9 c11 -18 11 -23 -1 -30 -10 -7 -11 -11 0 -17 9 -6 6 -12
-13 -20 -21 -10 -24 -15 -16 -31 10 -18 6 -31 -11 -31 -4 0 -8 11 -8 24 0 14
-5 28 -10 31 -12 8 -5 39 16 73 18 27 26 28 43 1z m-2664 -29 c3 -5 -1 -10
-10 -10 -9 0 -13 5 -10 10 3 6 8 10 10 10 2 0 7 -4 10 -10z m2255 0 c0 -5 -4
-10 -9 -10 -6 0 -13 5 -16 10 -3 6 1 10 9 10 9 0 16 -4 16 -10z m340 1 c0 -12
-20 -25 -27 -18 -7 7 6 27 18 27 5 0 9 -4 9 -9z m-670 -5 c0 -3 -4 -8 -10 -11
-5 -3 -10 -1 -10 4 0 6 5 11 10 11 6 0 10 -2 10 -4z m400 -28 c-27 -25 -35
-19 -14 10 8 12 20 20 25 16 6 -4 2 -14 -11 -26z m-430 13 c0 -6 -4 -13 -10
-16 -5 -3 -10 1 -10 9 0 9 5 16 10 16 6 0 10 -4 10 -9z m543 -8 c-7 -3 -13
-11 -13 -19 0 -8 -4 -14 -10 -14 -5 0 -10 5 -10 11 0 14 33 40 40 32 3 -3 -1
-8 -7 -10z m66 -2 c12 -8 12 -12 -1 -25 -14 -13 -18 -13 -28 -1 -6 8 -9 19 -5
25 8 12 16 13 34 1z m246 0 c3 -5 1 -13 -5 -16 -8 -5 -7 -11 1 -21 8 -10 8
-14 0 -14 -6 0 -11 5 -11 10 0 6 -9 10 -20 10 -23 0 -26 10 -8 28 14 14 35 16
43 3z m75 0 c0 -5 -7 -14 -15 -21 -12 -10 -15 -10 -15 2 0 8 3 18 7 21 9 10
23 9 23 -2z m-275 -21 c3 -5 -1 -10 -9 -10 -9 0 -16 5 -16 10 0 6 4 10 9 10 6
0 13 -4 16 -10z m-2255 -31 c0 -5 -7 -9 -15 -9 -15 0 -20 12 -9 23 8 8 24 -1
24 -14z m260 11 c0 -5 -5 -10 -11 -10 -5 0 -7 5 -4 10 3 6 8 10 11 10 2 0 4
-4 4 -10z m-580 -4 c0 -11 -19 -15 -25 -6 -3 5 1 10 9 10 9 0 16 -2 16 -4z
m226 -7 c10 -17 -13 -36 -27 -22 -12 12 -4 33 11 33 5 0 12 -5 16 -11z m2139
-15 c0 -12 -8 -20 -22 -22 -13 -2 -23 2 -23 8 0 7 -7 10 -15 6 -8 -3 -15 -1
-15 5 0 16 31 23 41 8 7 -11 9 -10 9 4 0 11 6 17 13 15 6 -3 12 -13 12 -24z
m-395 6 c0 -5 -2 -10 -4 -10 -3 0 -8 5 -11 10 -3 6 -1 10 4 10 6 0 11 -4 11
-10z m140 0 c0 -5 -5 -10 -11 -10 -5 0 -7 5 -4 10 3 6 8 10 11 10 2 0 4 -4 4
-10z m520 -10 c0 -5 -4 -10 -10 -10 -5 0 -10 5 -10 10 0 6 5 10 10 10 6 0 10
-4 10 -10z m-2107 -19 c7 -28 -2 -32 -24 -10 -24 24 -24 29 0 29 10 0 21 -9
24 -19z m-363 -21 c0 -16 -4 -30 -9 -30 -14 0 -20 37 -8 49 16 16 17 14 17
-19z m2160 0 c0 -6 -6 -13 -14 -16 -8 -3 -12 -13 -9 -25 3 -10 0 -19 -6 -19
-15 0 -44 47 -36 60 8 13 65 13 65 0z m130 0 c0 -5 -4 -10 -10 -10 -5 0 -10 5
-10 10 0 6 5 10 10 10 6 0 10 -4 10 -10z m-244 -11 c3 -6 0 -15 -7 -20 -12 -8
-12 -10 0 -18 8 -5 9 -11 3 -15 -5 -3 -17 3 -27 14 -17 19 -17 20 0 20 11 0
15 5 11 15 -6 17 9 20 20 4z m-1776 -19 c0 -5 -4 -10 -10 -10 -5 0 -10 5 -10
10 0 6 5 10 10 10 6 0 10 -4 10 -10z m1820 -24 c0 -16 -18 -31 -27 -22 -8 8 5
36 17 36 5 0 10 -6 10 -14z m-132 -20 c3 -13 -1 -17 -14 -14 -11 2 -20 11 -22
22 -3 13 1 17 14 14 11 -2 20 -11 22 -22z m-188 -7 c0 -6 -4 -7 -10 -4 -5 3
-10 11 -10 16 0 6 5 7 10 4 6 -3 10 -11 10 -16z"/>
<path d="M2233 2356 c-172 -33 -276 -88 -380 -199 -151 -164 -155 -375 -14
-749 19 -48 36 -87 40 -86 18 2 24 -3 13 -11 -16 -10 32 -129 129 -324 97
-195 167 -293 262 -369 51 -40 94 -51 83 -22 -7 19 74 177 243 477 154 274
193 354 245 509 41 120 46 144 46 224 0 107 -15 194 -41 245 -44 88 -189 229
-225 221 -8 -2 -14 3 -14 11 0 8 -31 28 -70 46 -57 27 -85 33 -157 36 -51 3
-118 -1 -160 -9z m-217 -193 c-7 -7 -26 7 -26 19 0 6 6 6 15 -2 9 -7 13 -15
11 -17z m484 7 c0 -19 -11 -26 -23 -14 -8 8 3 34 14 34 5 0 9 -9 9 -20z m-428
-12 c-7 -7 -12 -8 -12 -2 0 6 3 14 7 17 3 4 9 5 12 2 2 -3 -1 -11 -7 -17z
m372 -28 c73 -35 122 -92 141 -165 11 -39 16 -82 12 -110 -6 -60 -57 -160 -80
-159 -9 1 -17 -5 -17 -13 0 -18 -50 -64 -61 -57 -5 3 -55 7 -111 9 -158 6
-221 34 -260 114 -31 63 -31 199 -1 260 12 24 20 48 19 55 -2 6 -1 8 1 4 2 -4
20 4 40 18 88 60 241 81 317 44z m-494 -102 c0 -13 -32 -6 -37 9 -3 7 3 9 16
6 12 -3 21 -10 21 -15z m-55 -9 c11 -17 -1 -21 -15 -4 -8 9 -8 15 -2 15 6 0
14 -5 17 -11z m-25 -90 c0 -5 -4 -9 -10 -9 -5 0 -10 7 -10 16 0 8 5 12 10 9 6
-3 10 -10 10 -16z m790 -136 c0 -5 -5 -15 -10 -23 -8 -12 -10 -11 -10 8 0 12
5 22 10 22 6 0 10 -3 10 -7z m-15 -73 c3 -5 4 -14 0 -20 -8 -13 -35 -1 -35 16
0 16 26 19 35 4z"/>
<path d="M2304 2020 c-115 -23 -151 -66 -141 -168 9 -84 44 -108 168 -113 66
-3 73 0 110 59 46 73 35 164 -24 201 -44 26 -65 30 -113 21z"/>
</g>
</svg>
