<?xml version="1.0" encoding="UTF-8"?>
<svg id="_レイヤー_1" data-name="レイヤー_1" xmlns="http://www.w3.org/2000/svg" version="1.1" viewBox="0 0 400.000000 400.000000">
  <!-- Generator: Adobe Illustrator 29.5.0, SVG Export Plug-In . SVG Version: 2.1.0 Build 137)  -->
  <rect width="100%" height="100%" fill="white"/>
  <defs>
    <style>
      .st0 {
        fill: #2c4a52;
      }
      .st1 {
        fill: #f4ebdb;
      }
    </style>
  </defs>
  <g id="X4Md2P" transform="translate(80, 80)">
    <g>
      <path class="st1" d="M46.8,255.3c24.2,20.5,53.7,35.8,86.4,33.7,29.3-1.9,38.8-23.7,54.2-44.5,8.7-11.7,19.9-21.8,21.3-37.3,1.7-19.9-7.2-37.7-18.1-53.6-.7-1.1-5.3-6.6-5-7.4,6.4-9,14.6-16.3,23.2-23.1,19.4-15.4,42.9-26.6,51.3-51.8C273.6,30.4,228.5-6.4,189.7.9c-44.9,8.5-40,57.8-61.5,87.9s-5.2,5.7-6.7,8.9c-23.9-8.1-49.9-16.1-70.9,2.9s-7.1,8-10.8,11.7C20.3,132-3.2,148.2.4,179.5c3.5,30.4,23.8,56.7,46.4,75.8Z"/>
      <path d="M46.8,255.3C24.1,236.1,3.9,209.9.4,179.5c-3.6-31.3,19.9-47.5,39.4-67.2,3.7-3.7,6.8-8.2,10.8-11.7,21.1-18.9,47-10.9,70.9-2.9,1.5-3.3,4.5-5.9,6.7-8.9C149.7,58.8,144.8,9.5,189.7.9c38.7-7.4,83.9,29.4,70.4,70.4-8.3,25.2-31.9,36.4-51.3,51.8-8.6,6.8-16.8,14.1-23.2,23.1-.3.7,4.2,6.3,5,7.4,10.9,15.9,19.8,33.7,18.1,53.6-1.4,15.5-12.6,25.6-21.3,37.3-15.4,20.8-24.9,42.6-54.2,44.5-32.7,2.1-62.2-13.2-86.4-33.7ZM239.4,28.7c-7.6-8.1-22.6-15.5-33.7-16.8-43.3-4.9-45.7,36.8-58.8,66.6-3.9,8.8-9,16.8-14.9,24.3,16.6,9.8,32.9,20.3,46,34.6,4.6-6.7,10.8-12.5,17-17.8,22-18.9,65.4-38.2,54.1-74.3-1.8-5.7-5.7-12.2-9.7-16.5ZM177,239.6c7.3-10.8,18.9-19.2,20.3-33.3,2.6-26.8-23.3-60-43.4-75.5-20.6-15.9-53.1-34.3-80-29.4s-18.5,11.2-26.5,19.7-6.1,6.5-9.5,9c9.3-.4,18.7-.1,27.9,1.7,27,5.3,61.9,27.6,80.5,47.7,14.8,15.9,28.2,37.8,29.9,59.9l.9.2ZM43.5,141.9c-37.2,1.7-36.6,32.6-24.8,59.8,16.2,37.4,69.3,78.9,111.4,76.2,31.2-2,41.5-25.5,31.4-53.4-15-41.5-73.4-84.6-118.1-82.6Z"/>
      <path class="st1" d="M43.5,141.9c44.6-2,103,41,118.1,82.6,10.1,27.9-.2,51.4-31.4,53.4-42.1,2.7-95.2-38.8-111.4-76.2-11.8-27.2-12.4-58.1,24.8-59.8ZM82.6,167.5c-1.9.6-5.5,8.9-6.2,11-6.6,20.1,8.8,26.1,7.6,42.8s-2.2,7.9-1.7,9.6,3.2,2,3.7,2c4.6.2,8.7-7.6,9.7-11.4,4.4-16.6-10.2-26.1-9.9-41.6,0-2.7,1.7-8.5,1.3-10.5s-2.8-2.5-4.5-2ZM62.6,223.2c3.7,4.7,9.1-1.6,10.2-5.6,4.4-15.3-8.9-21.1-9.9-32.8s1-9.1.4-11.4-2.1-2.1-3.2-2.1c-2.7,0-4.9,4.9-5.7,7.1-7.9,19.9,10,22,8.5,39.4-.1,1.8-1.6,3.7-.3,5.4ZM105.8,239.5c3.6,3.8,10-3.1,11.6-6.5,7.5-17-9.6-27.5-8.2-44.7.2-2.5,3.1-8.7-1.6-9-3.8-.2-7.9,7.8-8.9,10.9-5.4,18,11.5,24.3,9,40.3-.4,2.3-3.6,7.3-2,9ZM123.4,230.7c1.5,1.8,2.9,2.7,4.2,5.3,6.9,13.8-4.6,17.2-16,16.4-15.2-1-33-9-45.3-17.7-6.5-4.6-19.6-14.9-16-24.2.7-1.9,4.5-3.9,1.1-6.4s-8.4,1.5-9.5,5c-5.9,20.1,24.9,37.9,39.9,44.3,13,5.5,38.8,12.9,50.7,2.7,9.1-7.8,5.9-21.4-2.4-28.4-.8-.7-4.6-3.7-5.5-3.1.8,1.3-.9,1.2-1.4,2.3s-.5,2.8.3,3.7Z"/>
      <path class="st1" d="M239.4,28.7c4.1,4.3,7.9,10.8,9.7,16.5,11.3,36.2-32,55.5-54.1,74.3-6.2,5.3-12.3,11.1-17,17.8-13.1-14.3-29.5-24.8-46-34.6,5.9-7.5,11.1-15.5,14.9-24.3,13.1-29.8,15.4-71.5,58.8-66.6,11.1,1.2,26.1,8.7,33.7,16.8Z"/>
      <path class="st1" d="M177,239.6l-.9-.2c-1.8-22.1-15.1-44-29.9-59.9-18.7-20-53.5-42.4-80.5-47.7-9.2-1.8-18.5-2.1-27.9-1.7,3.4-2.5,6.5-5.9,9.5-9,8-8.5,13.9-17.4,26.5-19.7,26.9-4.9,59.4,13.5,80,29.4,20.2,15.5,46,48.8,43.4,75.5-1.4,14.1-13,22.4-20.3,33.3Z"/>
      <path class="st0" d="M123.4,230.7c-.8-.9-.8-2.7-.3-3.7s2.2-1,1.4-2.3c.9-.6,4.7,2.4,5.5,3.1,8.4,7,11.5,20.6,2.4,28.4-11.9,10.2-37.6,2.9-50.7-2.7-15-6.4-45.8-24.2-39.9-44.3,1-3.6,5.7-7.7,9.5-5s-.4,4.5-1.1,6.4c-3.6,9.3,9.5,19.5,16,24.2,12.3,8.7,30.1,16.7,45.3,17.7,11.4.8,22.9-2.7,16-16.4-1.3-2.5-2.7-3.5-4.2-5.3Z"/>
      <path class="st0" d="M82.6,167.5c1.7-.5,4,0,4.5,2s-1.2,7.8-1.3,10.5c-.2,15.5,14.4,25,9.9,41.6-1,3.8-5.1,11.7-9.7,11.4s-3.5-1.5-3.7-2c-.6-1.7,1.5-7.2,1.7-9.6,1.2-16.7-14.2-22.7-7.6-42.8s4.2-10.5,6.2-11Z"/>
      <path class="st0" d="M105.8,239.5c-1.6-1.7,1.6-6.8,2-9,2.5-16-14.4-22.3-9-40.3.9-3.1,5-11.1,8.9-10.9,4.7.3,1.8,6.5,1.6,9-1.5,17.3,15.7,27.8,8.2,44.7-1.5,3.4-8,10.3-11.6,6.5Z"/>
      <path class="st0" d="M62.6,223.2c-1.4-1.7.1-3.7.3-5.4,1.5-17.3-16.4-19.5-8.5-39.4.9-2.2,3-7.1,5.7-7.1s2.9,1,3.2,2.1c.7,2.3-.6,8.2-.4,11.4,1,11.7,14.3,17.5,9.9,32.8-1.1,4-6.5,10.3-10.2,5.6Z"/>
    </g>
  </g>
</svg>
