<?xml version="1.0" standalone="no"?>
<!DOCTYPE svg PUBLIC "-//W3C//DTD SVG 20010904//EN"
 "http://www.w3.org/TR/2001/REC-SVG-20010904/DTD/svg10.dtd">
<svg version="1.0" xmlns="http://www.w3.org/2000/svg"
 width="1500.000000pt" height="1500.000000pt" viewBox="0 0 1500.000000 1500.000000"
 preserveAspectRatio="xMidYMid meet">
<rect width="100%" height="100%" fill="white"/>

<g transform="translate(0.000000,1500.000000) scale(0.100000,-0.100000)"
fill="#2c4a52" stroke="none">
<path d="M0 7500 l0 -7500 7500 0 7500 0 0 7500 0 7500 -7500 0 -7500 0 0
-7500z m7402 5023 c208 -98 469 -394 637 -722 223 -434 353 -1045 353 -1646
-1 -523 -63 -810 -346 -1585 -149 -409 -196 -680 -196 -1127 0 -268 10 -445
41 -693 26 -211 55 -357 131 -650 82 -318 106 -431 114 -525 16 -197 -57 -304
-206 -305 -174 0 -461 254 -674 599 -284 459 -441 1108 -439 1816 1 501 56
774 287 1414 153 424 181 521 216 736 77 480 41 1167 -89 1710 -16 66 -57 228
-91 360 -52 200 -63 258 -67 350 -8 161 19 234 102 283 55 32 139 26 227 -15z
m-2322 -397 c81 -28 192 -102 285 -189 171 -160 286 -318 400 -552 197 -401
296 -904 282 -1425 -13 -448 -79 -710 -336 -1316 -190 -450 -236 -663 -235
-1094 1 -444 40 -707 178 -1195 70 -248 80 -301 81 -410 0 -87 -3 -106 -25
-149 -14 -28 -42 -64 -63 -80 -37 -29 -44 -31 -126 -31 -80 0 -93 3 -162 37
-231 116 -465 380 -631 713 -131 261 -217 577 -264 965 -22 175 -24 564 -5
715 38 305 121 588 286 980 121 286 155 376 188 490 68 239 93 471 84 790 -12
411 -53 664 -179 1100 -86 300 -103 453 -61 545 53 115 164 154 303 106z
m4717 -21 c353 -166 663 -617 816 -1185 86 -319 129 -733 107 -1045 -28 -409
-91 -649 -308 -1170 -143 -343 -182 -457 -216 -625 -35 -173 -46 -301 -46
-519 0 -410 41 -710 151 -1105 105 -376 104 -372 104 -506 0 -114 -2 -129 -24
-167 -37 -64 -90 -96 -166 -101 -87 -6 -160 19 -266 90 -330 221 -591 636
-724 1154 -80 310 -109 572 -102 919 10 456 74 722 307 1275 173 410 222 576
250 840 33 318 9 747 -60 1091 -28 141 -42 193 -129 506 -50 179 -65 273 -59
367 13 200 166 276 365 181z m-6340 -3935 c63 -27 145 -110 176 -177 33 -74
31 -199 -5 -275 -40 -86 -72 -123 -162 -185 -430 -300 -715 -647 -814 -988
-46 -157 -58 -346 -32 -510 58 -374 349 -828 722 -1126 181 -145 454 -319 701
-449 347 -182 910 -369 1476 -490 1098 -234 2236 -271 3341 -109 916 135 1712
373 2220 667 547 315 802 534 1042 892 304 455 352 910 142 1333 -135 271
-387 540 -730 780 -90 62 -122 99 -162 185 -23 48 -27 71 -27 142 0 72 4 93
28 141 35 72 97 135 167 168 44 21 70 26 130 26 86 0 118 -13 385 -157 365
-197 611 -375 851 -613 247 -246 406 -479 480 -702 126 -384 147 -824 58
-1221 -174 -775 -740 -1469 -1642 -2011 -773 -465 -1770 -796 -2866 -951 -479
-67 -895 -95 -1446 -94 -883 0 -1630 90 -2432 293 -1872 475 -3174 1478 -3483
2685 -110 428 -97 873 36 1285 60 188 163 361 331 556 213 247 452 446 766
638 152 93 474 263 537 284 55 18 149 10 212 -17z"/>
</g>
</svg>
