<?xml version="1.0" encoding="UTF-8"?><svg id="b" xmlns="http://www.w3.org/2000/svg" width="434.801" height="310.739" viewBox="0 0 434.801 310.739"><defs><style>.e{fill:#211715;}</style></defs><g id="c"><g id="d"><path class="e" d="M72.41,169.332c-3.663,3.734-8.292,7.644-12.977,9.556l1.946.514c-3.022-3.664-5.704-7.9-7.807-12.155l-1.195,2.938c8.79-2.693,18.066-6.435,23.943-13.834.671-.845.825-2.003,0-2.828-.696-.696-2.153-.85-2.828,0-5.474,6.894-13.985,10.296-22.177,12.806-1.298.398-1.775,1.765-1.195,2.938,2.259,4.572,5.188,9.03,8.433,12.965.404.489,1.352.757,1.946.514,5.613-2.29,10.533-6.293,14.743-10.584,1.804-1.839-1.022-4.67-2.828-2.828h0Z"/><path class="e" d="M75.287,160.107c-1.025,3.76-2.854,7.278-3.633,11.108-.352,1.73-.572,3.49-.201,5.229.32,1.501.775,2.985,1.395,4.389,1.264,2.863,4.156,5.193,6.75,6.815,3.038,1.9,6.457,2.976,10.008,3.34,1.076.11,2-.998,2-2,0-1.173-.921-1.889-2-2-2.837-.291-5.576-1.285-7.989-2.794-2.065-1.291-4.448-3.148-5.346-5.489-.432-1.127-.862-2.396-1.018-3.598-.179-1.381.246-2.959.612-4.289.9-3.281,2.385-6.365,3.28-9.649.678-2.487-3.18-3.548-3.857-1.063h0Z"/><path class="e" d="M134.505,195.812c6.782-.175,14.889-1.116,19.285-6.965,5.03-6.692.323-14.728,1.366-22.099.151-1.068-.261-2.148-1.397-2.46-.937-.257-2.308.321-2.46,1.397-.521,3.683.104,7.229.588,10.88.413,3.121.759,6.656-.986,9.454-3.227,5.173-10.982,5.653-16.396,5.792-2.569.066-2.579,4.066,0,4h0Z"/><path class="e" d="M124.714,212.343c-10.547,3.306-21.543.194-30.701-5.339-2.209-1.335-4.222,2.123-2.019,3.454,10.032,6.061,22.253,9.356,33.783,5.742,2.448-.767,1.403-4.63-1.063-3.857h0Z"/><path class="e" d="M130.939,200.912c-1.392-1.703-2.943-3.063-3.133-5.329-.109-1.295-.133-2.603-.107-3.902.024-1.213.236-2.438.236-3.645,0-1.081-.919-2-2-2s-2,.915-2,2c0,.648-.129,1.317-.169,1.966-.046.745-.07,1.492-.075,2.238-.008,1.38.028,2.772.2,4.142.187,1.488.68,2.774,1.502,4.024.797,1.211,1.805,2.217,2.717,3.333.684.837,2.118.71,2.828,0,.828-.828.686-1.989,0-2.828h0Z"/><path class="e" d="M84.844,143.298c-1.987-1.986-5.153-2.708-7.806-1.714-2.146.805-3.46,2.486-4.219,4.599-1.63,4.542-.664,10.057,1.756,14.149,1.699,2.873,4.485,5.296,8.008,5.108,2.561-.137,2.577-4.138,0-4s-4.202-2.19-5.171-4.297c-.809-1.76-1.334-3.739-1.365-5.676-.019-1.159.08-2.302.381-3.424.119-.443.257-.877.464-1.284.112-.22.245-.428.381-.633.238-.359-.306.301.049-.054.376-.376.198-.279.629-.53.274-.16.737-.333,1.186-.379,1.077-.111,2.111.196,2.878.963,1.823,1.822,4.652-1.005,2.828-2.828h0Z"/><path class="e" d="M148.665,151.059c.939-.701,1.966-.962,3.117-.662.423.11.794.253,1.153.511-.188-.135.242.233.293.281.064.065.125.133.183.204-.119-.159-.139-.182-.06-.07,1.006,1.53.975,3.818.672,5.652-.348,2.106-1.104,3.82-2.278,5.643-1.116,1.732-3.102,3.907-5.4,3.443-1.058-.214-2.16.305-2.46,1.397-.271.987.333,2.245,1.397,2.46,5.781,1.169,9.677-4.03,11.668-8.73.986-2.326,1.41-5.004,1.173-7.523-.199-2.12-.812-4.291-2.505-5.706-2.456-2.052-6.378-2.291-8.971-.354-.864.645-1.306,1.73-.718,2.736.498.852,1.866,1.368,2.736.718h0Z"/><path class="e" d="M144.25,165.117c-1.296,4.456-3.782,8.46-6.776,11.966-3.593,4.208-8.21,8.553-13.894,9.422-1.069.163-1.659,1.506-1.397,2.46.314,1.142,1.388,1.561,2.46,1.397,6.304-.964,11.664-5.772,15.659-10.451,3.456-4.047,6.307-8.582,7.805-13.731.72-2.477-3.138-3.534-3.857-1.063h0Z"/><path class="e" d="M80.543,161.487c1.955,12.185,10.365,25.329,23.08,28.129,2.509.552,3.58-3.303,1.063-3.857-11.439-2.519-18.543-14.466-20.286-25.335-.171-1.067-1.501-1.661-2.46-1.397-1.136.312-1.569,1.39-1.397,2.46h0Z"/><path class="e" d="M75.415,134.637c-.006,2.889.306,5.776.851,8.612.198,1.029,1.489,1.711,2.46,1.397,1.098-.355,1.609-1.357,1.397-2.46-.13-.676-.246-1.355-.345-2.036-.015-.104-.03-.207-.044-.311l.03.221c-.03-.179-.046-.362-.067-.542-.039-.333-.074-.666-.105-.999-.12-1.29-.179-2.585-.177-3.881.002-1.046-.921-2.048-2-2-1.085.049-1.998.879-2,2h0Z"/><path class="e" d="M82.292,120.776c3.427-7.704,9.481-13.925,16.989-17.739,8.2-4.165,18.07-4.8,26.91-2.497,4.661,1.214,8.928,3.36,12.805,6.203.872.639,2.231.146,2.736-.718.593-1.014.156-2.096-.718-2.736-7.93-5.816-17.694-8.502-27.496-7.98-9.391.5-18.173,4.174-25.173,10.438-4.036,3.611-7.306,8.06-9.507,13.009-.439.986-.287,2.149.718,2.736.852.499,2.295.274,2.736-.718h0Z"/><path class="e" d="M155.963,124.915c-1.667-6.446-5.02-12.303-9.654-17.073-1.797-1.85-4.624.98-2.828,2.828,4.14,4.261,7.118,9.476,8.626,15.307.644,2.49,4.503,1.435,3.857-1.063h0Z"/><path class="e" d="M152.636,141.685c-.39,1.997-.967,3.949-1.6,5.88-.326.995.379,2.228,1.397,2.46,1.1.25,2.111-.332,2.46-1.397.633-1.931,1.21-3.883,1.6-5.88.104-.534.08-1.059-.202-1.541-.243-.415-.718-.811-1.195-.919-.99-.226-2.246.299-2.46,1.397h0Z"/><path class="e" d="M108.15,173.357c1.928,1.17,4.058,1.697,6.298,1.858,2.125.153,4.571-.054,6.41-1.247.877-.569,1.322-1.799.718-2.736-.565-.876-1.798-1.326-2.736-.718-.216.14-.485.224-.69.371.072-.052.499-.189.181-.081-.079.027-.156.057-.235.084-.195.065-.393.121-.593.169-.231.056-.464.097-.698.139-.376.067.297-.023.029-.006-.129.008-.258.025-.387.035-.665.047-1.334.038-1.999-.009-.166-.012-.332-.026-.497-.043-.159-.016-.421-.052-.117-.008-.305-.045-.609-.098-.91-.163-.476-.103-.946-.233-1.404-.399-.1-.036-.223-.104-.328-.126.115.024.426.194.133.053-.156-.075-.313-.148-.466-.229-.235-.124-.462-.26-.689-.397-.896-.543-2.237-.227-2.736.718-.513.972-.238,2.157.718,2.736h0Z"/><path class="e" d="M114.421,159.157c.149.765.278,1.536.382,2.309l-.071-.532c.051.384.129.795.086,1.182l.071-.532c-.013.081-.031.157-.061.234l.202-.478c-.02.043-.041.08-.068.119l.313-.405c-.031.037-.06.066-.097.096l.405-.313c-.051.033-.099.056-.155.081l.478-.202c-.146.059-.292.105-.448.131l.532-.071c-.138.018-.274.02-.412.004l.532.071c-.191-.028-.372-.089-.56-.127-.53-.108-1.063-.078-1.541.202-.415.243-.811.718-.919,1.195-.117.512-.091,1.087.202,1.541.272.421.687.815,1.195.919.373.076.703.159,1.092.199.439.045.908-.026,1.322-.178.464-.17.82-.332,1.175-.685.297-.295.504-.685.629-1.08.125-.392.15-.827.106-1.235-.125-1.176-.304-2.348-.53-3.509-.092-.471-.518-.96-.919-1.195-.429-.251-1.061-.357-1.541-.202-.484.157-.951.457-1.195.919-.262.496-.309.989-.202,1.541h0Z"/><path class="e" d="M98.537,148.975c-.652,1.638-.583,5.519,2.667,6.083,4.329.286,4.894-4.359,3.595-6.656-1.063-1.88-4.517-2.879-6.263.573Z"/><path class="e" d="M133.187,151.468c.411,1.715-.213,5.546-3.51,5.638-4.325-.337-4.22-5.015-2.606-7.102,1.322-1.709,4.882-2.203,6.116,1.464Z"/><path class="e" d="M134.098,138.676c1.706,2.6,3.58,5.127,5.726,7.384,2.077,2.184,4.458,4.129,7.3,5.206.98.371,2.236-.411,2.46-1.397.26-1.139-.347-2.063-1.397-2.46-.072-.027-.541-.248-.118-.041-.123-.06-.249-.114-.371-.174-.277-.136-.548-.282-.814-.438-.559-.327-1.095-.694-1.61-1.086.226.172.003,0-.1-.085-.12-.098-.24-.197-.358-.297-.265-.225-.525-.455-.78-.691-.524-.484-1.029-.989-1.517-1.509-.476-.506-.937-1.027-1.385-1.558-.235-.279-.467-.562-.696-.846-.104-.129-.206-.259-.309-.389-.402-.51.219.294-.171-.221-.841-1.111-1.64-2.251-2.405-3.416-.573-.874-1.796-1.324-2.736-.718-.872.562-1.331,1.801-.718,2.736h0Z"/><path class="e" d="M85.279,146.081c3.914-3.231,7.676-6.641,11.37-10.12.763-.719.78-2.113,0-2.828-.818-.751-2.014-.767-2.828,0-3.694,3.479-7.456,6.889-11.37,10.12-.81.669-.744,2.145,0,2.828.861.79,1.964.713,2.828,0h0Z"/><path class="e" d="M100.796,134.155c-.259,1.598-.567,3.279-.241,4.891.16.793.637,1.553,1.344,1.966.843.493,1.729.361,2.615.094,3.415-1.029,6.735-2.425,9.839-4.183.911-.516,1.297-1.837.718-2.736-.594-.921-1.762-1.269-2.736-.718-1.257.712-2.546,1.364-3.866,1.95-.145.064-.291.125-.435.19-.13.056-.116.05.04-.016-.088.037-.176.073-.264.109-.324.133-.649.263-.976.389-.689.265-1.384.514-2.085.746-.338.112-.677.221-1.018.326-.187.057-.373.115-.561.169-.091.026-.517.113-.097.055.181-.025.35-.037.669.097.081.034.614.452.422.253.224.315.287.386.187.211l.136.318s-.071-.274-.074-.283c-.111-.334.018.488.015.079,0-.107-.011-.215-.013-.322-.004-.266.007-.533.025-.799.023-.331.061-.66.099-.99-.043.369.006-.04.027-.18.028-.185.057-.369.087-.554.167-1.029-.266-2.203-1.397-2.46-.962-.219-2.281.293-2.46,1.397h0Z"/><path class="e" d="M114.908,121.495c7.121.482,14.227,1.185,21.273,2.335,3.286.536,6.556,1.159,9.813,1.848,1.489.315,2.975.644,4.459.983.837.191,1.673.386,2.509.583,1.07.253,1.122.133,1.325,1.211.697,3.703.763,7.482.33,11.22-.066.569.188.611-.45.561-.555-.044-1.243-.416-1.78-.586-1.365-.432-2.737-.844-4.115-1.233-5.043-1.422-10.173-2.475-15.358-3.222-11.77-1.695-23.661-2.431-35.544-2.617-5.763-.091-11.532-.112-17.294.053-.527.015-2.131.358-2.489-.073-.262-.316-.06-1.886-.058-2.32.005-.92.045-1.846.166-2.758.204-1.538.549-3.143,1.115-4.59.166-.425.326-.932.645-1.068.282-.12.808-.049,1.114-.065,11.387-.622,22.954-1.007,34.34-.263,2.57.168,2.56-3.833,0-4-11.236-.735-22.639-.346-33.875.238-.97.05-2.053.019-2.977.327-1.917.64-2.694,2.495-3.284,4.272s-.93,3.675-1.122,5.54c-.181,1.76-.34,3.869.056,5.605.846,3.704,4.864,3.184,7.754,3.119,3.133-.07,6.267-.088,9.401-.079,13.078.038,26.132.607,39.113,2.279,5.713.736,11.373,1.842,16.923,3.391,1.428.399,2.849.824,4.264,1.269,1.6.504,3.121,1.105,4.786.476,2.032-.767,2.454-2.488,2.693-4.446.257-2.104.316-4.232.204-6.348-.11-2.056-.348-4.139-.779-6.153-.434-2.029-1.881-3.087-3.827-3.548-3.629-.86-7.272-1.667-10.933-2.379-7.305-1.42-14.683-2.421-22.095-3.077-2.099-.186-4.2-.344-6.302-.487-2.57-.174-2.559,3.827,0,4Z"/><path class="e" d="M24.385,216.327c-.07,1.111-.063,2.227-.08,3.34-.008.508.228,1.057.586,1.414.347.347.916.608,1.414.586.517-.023,1.054-.193,1.414-.586s.578-.87.586-1.414c.017-1.113.01-2.229.08-3.34.031-.492-.245-1.074-.586-1.414-.347-.347-.916-.608-1.414-.586-.517.023-1.054.193-1.414.586l-.313.405c-.181.312-.272.648-.273,1.009h0Z"/><path class="e" d="M25.738,217.488c3.873-.913,6.947-3.542,8.818-7.014,1.044-1.937,1.53-3.855,1.545-6.056.012-1.844-.247-3.671-.338-5.51-.054-1.079-.881-2-2-2-1.042,0-2.054.916-2,2,.081,1.631.297,3.253.333,4.887.038,1.724-.098,2.935-.871,4.43-1.483,2.866-3.577,4.706-6.549,5.406-2.504.59-1.444,4.448,1.063,3.857h0Z"/><path class="e" d="M10.463,221.835c-.65-2.22-1.238-4.61-1.197-6.938.022-1.274-.034-2.371-.528-3.564-.54-1.303-1.354-2.426-2.096-3.616-1.528-2.448-2.706-5.057-2.644-7.992.05-2.35.396-4.711.886-7.007.592-2.775,1.412-5.569,2.647-8.13.913-1.895,2.074-3.764,4.159-4.517s4.4.068,6.412.645c1.807.519,3.52,1.148,5.116,2.169.65.416,1.394.896,1.492,1.682.113.904-.525.86-1.298.889-1.597.061-3.197-.134-4.786-.26-1.664-.132-3.333-.143-5-.19-2.575-.073-2.573,3.927,0,4,1.668.047,3.336.06,5,.19,1.816.142,3.66.39,5.483.214,3.122-.301,5.208-2.71,4.459-5.906-.599-2.555-3.02-4.065-5.242-5.113s-4.621-1.791-7.028-2.273c-2.975-.597-5.878-.35-8.367,1.52-2.377,1.785-3.677,4.332-4.774,7.034-1.218,2.999-2.058,6.146-2.563,9.341-.479,3.026-.915,6.172-.259,9.204.439,2.03,1.354,3.975,2.396,5.761.809,1.386,2.12,2.787,2.497,4.374.169.712.021,1.463.051,2.193.036.899.159,1.797.294,2.686.24,1.576.587,3.139,1.035,4.669.721,2.465,4.583,1.416,3.857-1.063h0Z"/><path class="e" d="M22.52,189.765c.109.03.217.064.323.102-.222-.101-.232-.104-.03-.009.18.104.355.207.528.322-.389-.258-.037-.009.044.072.067.068.132.139.194.212-.164-.221-.185-.243-.061-.067.048.086.29.381.263.48l-.101-.229c.03.083.056.167.079.252.147.546.038-.228.032.105,0,.043-.035.345-.003.378.052-.325.058-.379.018-.164-.017.08-.038.159-.063.237-.027.085-.087.188-.103.276.094-.523.208-.436.097-.244-.047.081-.086.168-.135.249-.05.083-.135.169-.172.257.056-.131.353-.387.097-.146-.037.035-.265.215-.267.253.279-.209.335-.252.167-.131-.043.03-.087.06-.132.087-.111.07-.234.122-.343.193-.254.165.422-.139-.108.038-.336.112-.683.188-1.032.241.495-.075-.286.011-.375.015-.197.009-.395.011-.592.012-.447.004-.893.002-1.34-.002-1.855-.018-3.708-.099-5.561-.163-1.047-.036-2.047.946-2,2,.05,1.115.879,1.961,2,2,1.71.059,3.419.132,5.13.158,1.636.024,3.398.12,4.961-.447,2.57-.932,4.241-3.363,3.615-6.137-.453-2.01-2.144-3.491-4.065-4.057-1.003-.296-2.223.357-2.46,1.397-.244,1.073.323,2.144,1.397,2.46h0Z"/><path class="e" d="M20.433,196.467c.146.071.74.294.774.456-.026-.123-.255-.215.003.023.11.102.205.221.315.322.17.156-.186-.303.007.007.079.126.152.25.225.379.191.338-.059-.349.017.059.013.072.153.458.056.156-.092-.287-.012.081-.003.166.044.404.11-.312-.004.063-.017.074-.039.148-.064.22-.048.139-.028.098.06-.124-.01.127-.167.295-.226.4-.175.313.144-.123-.017.024-.095.086-.176.191-.27.279-.076.071-.153.139-.234.204l.158-.126c-.042.082-.357.232-.435.277-.124.071-.251.137-.379.2-.077.038-.155.075-.233.11.188-.077.214-.089.08-.036-.3.103-.595.216-.898.312-.649.204-1.316.39-1.914.724-.808.452-1.395,1.157-1.707,2.023-.318.884-.168,1.845,0,2.741.193,1.031,1.492,1.71,2.46,1.397,1.102-.357,1.604-1.356,1.397-2.46-.031-.166-.051-.505-.034-.15-.008-.165-.035-.345-.006-.51-.022.121-.183.514-.015.25-.171.216-.18.246-.027.093l-.174.146c.082-.051.167-.098.255-.14l-.206.083c-.002-.015.403-.142.423-.149.313-.101.629-.19.941-.294,1.619-.543,3.079-1.329,4.108-2.725.929-1.261,1.245-3.007.667-4.485-.571-1.462-1.66-2.677-3.082-3.364-.941-.454-2.205-.289-2.736.718-.473.895-.288,2.251.718,2.736h0Z"/><path class="e" d="M31.535,199.724c2.048-.143,3.925-.926,4.881-2.855.708-1.428.973-2.992,1.145-4.563.337-3.073.206-6.583-.971-9.476-.739-1.817-2.078-3.308-4.012-3.859-1.556-.444-3.393-.275-4.859.388-3.617,1.634-4.096,6.756-3.806,10.224.363,4.346,2.354,10.175,7.622,10.142,2.573-.016,2.579-4.016,0-4-1.02.006-1.732-.588-2.267-1.555-.692-1.253-1.113-2.669-1.306-4.088-.161-1.179-.142-2.78.025-3.868.102-.663.252-1.323.45-1.964.158-.514.313-.851.74-1.168.169-.125.612-.223,1.048-.322.343-.078-.028.007-.091.011.135-.009.268-.024.403-.03.26-.011.523-.01.782.022-.521-.063.504.162.322.095-.128-.047.491.282.446.248.079.059.326.324.438.488.085.125.441.866.271.451.909,2.221.973,4.307.876,6.743-.057,1.429-.114,2.188-.537,3.566-.047.154-.367.866-.14.431-.045.086-.08.177-.131.261-.018.03-.283.435-.133.232-.195.263-.652.41-1.196.448-1.078.075-2,.865-2,2,0,1.024.917,2.076,2,2Z"/><path class="e" d="M18.044,171.534c-.623-9.427-1.24-18.854-1.786-28.285-.311-5.367-.602-10.736-.843-16.107-.194-4.322-.498-8.689-.42-13.017.019-1.044.753-.911,1.678-.992,1.741-.152,3.488-.242,5.236-.256,3.364-.028,6.724.234,10.059.669,3.161.412,6.299,1.007,9.398,1.751,3.024.726,6.2,1.5,9.049,2.773.9.402.737.808.428,1.653-.317.865-.638,1.728-.961,2.591-.741,1.977-1.492,3.949-2.248,5.92-1.812,4.727-3.646,9.445-5.477,14.164-3.994,10.291-8.068,20.562-11.763,30.965-.863,2.43,3,3.476,3.857,1.063,3.476-9.787,7.296-19.454,11.053-29.135,1.958-5.046,3.921-10.091,5.861-15.144.806-2.098,1.608-4.198,2.399-6.303.737-1.962,2.005-4.228,1.391-6.355-.924-3.203-5.174-3.978-7.941-4.814-3.272-.989-6.613-1.762-9.977-2.364-6.875-1.231-13.85-1.785-20.817-1.136-1.513.141-2.881.358-3.984,1.493s-1.254,2.551-1.232,4.046c.031,2.155.095,4.31.171,6.464.188,5.327.453,10.651.742,15.973.622,11.467,1.372,22.926,2.129,34.384.169,2.555,4.17,2.574,4,0h0Z"/><path class="e" d="M97.795,186.257v.01l.273-1.009c-.469.797-.948,1.588-1.441,2.371-.436.692-.869,1.395-1.367,2.045l.313-.405c-.106.135-.216.267-.332.394-.355.392-.586.875-.586,1.414,0,.491.218,1.076.586,1.414.381.35.882.61,1.414.586.515-.023,1.057-.192,1.414-.586.743-.82,1.335-1.774,1.925-2.706.268-.423.531-.849.791-1.277.409-.672,1.01-1.446,1.01-2.251,0-.513-.223-1.052-.586-1.414-.347-.347-.916-.608-1.414-.586-1.084.049-2,.879-2,2h0Z"/><path class="e" d="M108.354,309.241c2.456-13.576,4.867-27.162,7.436-40.717,2.545-13.43,5.357-26.819,8.466-40.131,2.091-8.954,4.455-17.853,7.538-26.522.864-2.43-2.999-3.476-3.857-1.063-5.46,15.351-8.636,31.363-12.11,47.244-2.708,12.381-4.944,24.868-7.212,37.335-1.382,7.595-2.744,15.194-4.118,22.791-.192,1.062.29,2.156,1.397,2.46.97.266,2.267-.328,2.46-1.397h0Z"/><path class="e" d="M132.724,309.241c2.13-13.931,4.584-27.821,7.037-41.698.751-4.25,1.514-8.497,2.293-12.742.462-2.517-3.392-3.596-3.857-1.063-2.778,15.137-5.38,30.307-7.885,45.491-.492,2.981-.989,5.962-1.445,8.949-.163,1.066.27,2.15,1.397,2.46.946.26,2.296-.323,2.46-1.397h0Z"/><path class="e" d="M35.6,216.743c-5.68.453-11.341,1.119-16.979,1.944-2.925.428-5.843.901-8.755,1.413-1.298.228-2.595.464-3.891.708-1.228.231-2.409.426-3.446,1.173-2.07,1.491-2.305,3.687-2.34,6.048-.031,2.072.006,4.145.096,6.215.197,4.565.65,9.115,1.291,13.639,1.089,7.681,2.577,15.795,6.112,22.78,1.91,3.773,4.965,7.547,8.918,9.271,4.057,1.769,9.001.585,12.812-1.325,4.229-2.12,8.113-5.315,11.652-8.423,4.377-3.844,8.426-8.055,12.422-12.288,1.766-1.871-1.057-4.705-2.828-2.828-6.006,6.363-12.129,12.641-19.326,17.669-3.178,2.221-6.484,3.898-10.431,4.053-4.004.158-7.158-3.667-9.02-6.788-1.489-2.496-2.451-5.277-3.279-8.051-1.09-3.652-1.897-7.387-2.547-11.14-1.368-7.896-2.075-15.985-1.846-24.001.023-.787.173-1.423.958-1.761,1.184-.511,2.784-.557,4.052-.787,2.912-.527,5.83-1.017,8.756-1.463,5.847-.891,11.721-1.585,17.617-2.055,2.549-.203,2.571-4.205,0-4h0Z"/><path class="e" d="M105.541,302.185c-6.179.644-12.593-.041-18.726-.818-6.348-.804-12.974-1.856-18.943-4.256-1.003-.403-2.197.439-2.46,1.397-.314,1.141.391,2.056,1.397,2.46,6.203,2.494,13.065,3.503,19.656,4.354,6.246.807,12.781,1.518,19.076.862,1.074-.112,2-.839,2-2,0-.995-.919-2.113-2-2h0Z"/><path class="e" d="M43.789,219.868c3.154-3.138,6.307-6.275,9.461-9.413,2.748-2.734,5.347-5.402,8.695-7.407,1.568-.939,3.207-1.787,4.916-2.439,1.868-.713,3.698-.991,5.658-1.324,4.006-.681,7.956-1.686,11.801-3.001,4.364-1.492,8.596-3.373,12.634-5.599,2.255-1.243.239-4.699-2.019-3.454-7.178,3.958-14.961,6.698-23.035,8.12-1.953.344-3.834.57-5.707,1.253-1.908.696-3.763,1.558-5.529,2.56-3.363,1.908-6.117,4.358-8.841,7.068-3.621,3.602-7.242,7.205-10.863,10.807-1.827,1.818,1.001,4.647,2.828,2.828h0Z"/><path class="e" d="M349.485,185.719c-4.13,4.845-8.711,9.396-13.737,13.312-.628.489-.791,1.782-.313,2.424,1.314,1.762,2.996,3.182,4.669,4.595,2.059,1.739,4.183,3.511,6.514,4.878.724.424,1.845.347,2.424-.313,4.302-4.898,7.372-10.76,10.146-16.618.462-.976.271-2.158-.718-2.736-.87-.509-2.272-.263-2.736.718-2.616,5.525-5.461,11.186-9.52,15.808l2.424-.313c-2.043-1.198-3.9-2.728-5.705-4.253-.912-.771-1.813-1.557-2.683-2.376-.314-.296-.628-.594-.925-.908-.094-.099-.181-.204-.277-.3-.186-.187.387.528-.157-.202l-.313,2.424c5.026-3.916,9.607-8.467,13.737-13.312.7-.822.807-2.022,0-2.828-.718-.718-2.125-.826-2.828,0h0Z"/><path class="e" d="M316.975,192.512c5.679,3.475,11.338,6.986,17.047,10.413l-.718-2.736c-2.21,3.373-5.13,6.436-8.014,9.232l2.424-.313c-4.957-3.699-9.734-7.978-13.841-12.606-1.712-1.929-4.532.908-2.828,2.828,4.341,4.892,9.414,9.324,14.651,13.232.708.529,1.837.256,2.424-.313,3.128-3.033,6.245-6.386,8.64-10.042.597-.912.173-2.202-.718-2.736-5.709-3.427-11.367-6.938-17.047-10.413-2.202-1.347-4.214,2.111-2.019,3.454h0Z"/><path class="e" d="M425.759,235.755c.433.021,1.501-.152,1.86.064.019.012.313.694.419.961.549,1.38.983,2.812,1.35,4.25.712,2.789,1.081,5.656,1.276,8.525.389,5.734.147,11.772-1.08,17.402-1.124,5.156-3.786,10.226-8.277,13.215-2.05,1.364-4.38,2.23-6.868,2.082-2.54-.152-4.959-1.625-6.928-3.145-2.78-2.146-4.783-5.336-6.852-8.127-2.295-3.098-4.518-6.248-6.673-9.445-1.431-2.123-4.898-.124-3.454,2.019,2.245,3.33,4.563,6.61,6.96,9.832,2.114,2.842,4.15,6.031,6.893,8.309,2.4,1.993,5.319,3.836,8.438,4.367,3.074.523,6.129-.089,8.891-1.493,5.777-2.936,9.721-8.945,11.369-15.074.83-3.085,1.166-6.294,1.434-9.469.288-3.418.382-6.825.161-10.251-.242-3.753-.743-7.534-1.8-11.15-.501-1.715-1.023-3.942-2.189-5.333-1.297-1.548-3.085-1.448-4.931-1.537-2.573-.124-2.567,3.876,0,4h0Z"/><path class="e" d="M387.956,201.622c-4.536-1.51-8.989-3.303-13.412-5.112-2.847-1.165-5.677-2.37-8.479-3.638-2.475-1.12-5.306-2.145-7.5-3.764-1.825-1.346-3.605-2.756-5.378-4.17-.844-.673-2.004-.824-2.828,0-.698.698-.849,2.151,0,2.828,1.699,1.354,3.41,2.695,5.14,4.009,2.219,1.685,4.755,2.804,7.278,3.969,5.706,2.634,11.531,5.023,17.396,7.277,2.226.855,4.458,1.704,6.72,2.457,2.448.815,3.498-3.047,1.063-3.857h0Z"/><path class="e" d="M403.188,200.99c.025-1.483,1.575-2.319,2.877-2.357,1.9-.055,3.919,1.18,5.546,2.037,1.862.98,3.678,2.043,5.478,3.132.948.574,1.892,1.155,2.836,1.736.397.245.547.321.736.492.299.27.571.586.829.894.947,1.128,1.577,2.379,1.827,3.842.284,1.67-.113,3.278-.305,4.929-.372,3.191-.379,6.479-.166,9.683.217,3.277.602,6.554,1.119,9.796.279,1.753.28,3.414-.9,4.828-.272.326-.569.632-.85.952-.124.141-.24.29-.368.427.268-.285.223-.147.068-.054-.433.26-.844.394-1.328.564-2.714.954-5.217,1.299-8.11,1.02-.881-.085-1.758-.24-2.614-.47-.243-.065-.482-.134-.719-.219-.26-.093.052.07-.368-.176-.703-.413-1.208-.827-1.628-1.374-1.932-2.512-2.502-6.054-2.962-9.094-.329-2.176-.546-3.985-1.925-5.788s-3.236-3.224-5.248-4.26c-2.285-1.176-4.311,2.274-2.019,3.454,1.775.914,3.622,2.173,4.593,3.975.47.871.488,1.871.621,2.834.156,1.132.339,2.26.572,3.379.63,3.021,1.617,6.149,3.694,8.505,2.099,2.38,5.174,2.985,8.205,3.255,3.308.294,6.413-.2,9.499-1.374,3.653-1.389,6.091-5.064,5.936-8.996-.07-1.786-.486-3.57-.7-5.345-.239-1.987-.448-3.981-.577-5.978-.22-3.394-.254-6.958.301-10.321.703-4.268-.275-8.119-3.242-11.302-1.639-1.758-4.116-2.879-6.163-4.092-2.357-1.396-4.759-2.791-7.3-3.831-2.502-1.024-5.098-1.529-7.643-.295-2.052.996-3.562,3.31-3.6,5.592-.043,2.575,3.957,2.575,4,0h0Z"/><path class="e" d="M412.562,205.964c-2.322-1.248-4.679-2.435-7.044-3.597-.823-.405-1.681-.898-2.566-1.153-2.119-.61-4.427.119-5.785,1.853-1.515,1.934-1.747,4.703-.492,6.835.547.93,1.802,1.264,2.736.718s1.267-1.802.718-2.736c-.064-.103-.123-.209-.175-.318.079.195.079.18,0-.044-.037-.122-.068-.246-.092-.371.016.18.018.196.006.049-.018-.231-.021-.465.001-.697-.034.352.079-.286.104-.368.029-.1.063-.198.101-.294-.056.16-.031.13.073-.09.063-.108.131-.213.205-.314-.121.163-.107.157.044-.016.073-.06.48-.347.153-.146.1-.066.203-.127.31-.182-.206.074-.199.072.021-.006.093-.025.607-.124.185-.076.089-.01.802.03.427-.03.206.033.394.115.597.155.284.057-.543-.252-.292-.126.371.186.755.35,1.128.532,2.562,1.244,5.109,2.53,7.618,3.878.951.511,2.178.238,2.736-.718.532-.909.237-2.223-.718-2.736h0Z"/><path class="e" d="M406.561,210.583c-2.131-.968-4.354-1.852-6.613-2.47-1.054-.288-2.122-.656-3.225-.507-1.176.158-2.298.737-3.097,1.624-1.671,1.856-1.86,4.832-.252,6.803,1.01,1.238,2.628,2.094,4.063,2.773,1.574.745,3.181,1.42,4.783,2.104.959.41,2.189.319,2.736-.718.454-.859.31-2.298-.718-2.736-2.331-.996-4.721-1.919-6.872-3.272-.167-.105-.328-.22-.495-.325-.07-.044-.297-.232.001.013-.063-.052-.126-.104-.187-.158-.01-.009-.398-.384-.388-.392-.005.004.248.317.08.07-.195-.287.056.252.01.029-.003-.015-.149-.504-.128-.51.045-.012.016.405.016.069,0-.104-.01-.206-.009-.31,0-.075.012-.154.009-.229-.012-.269-.122.326-.016.092.024-.052.038-.148.047-.206.06-.387-.159.238-.03.039.09-.139.326-.479.078-.189.138-.161.292-.296.439-.448-.021.021-.284.182-.096.078.089-.049.171-.111.261-.16.066-.037.135-.068.202-.104-.385.208-.121.051.009.025.511-.104-.257-.007.107-.017.419-.011-.129-.015-.112-.033.012-.012.288.072.274.068.425.109.85.221,1.274.336,1.011.273,2.003.585,2.977.969.553.218,1.108.431,1.661.649.239.094.478.19.716.287.369.149.096.039.02.007.153.066.306.134.458.203.95.432,2.197.304,2.736-.718.463-.877.299-2.274-.718-2.736h0Z"/><path class="e" d="M396.548,214.002c-1.824-.277-3.718-.04-5.042,1.394-1.122,1.215-1.909,2.826-1.89,4.5s.674,3.317,1.825,4.531c.608.641,1.256,1.25,1.896,1.86.881.841,1.769,1.691,2.76,2.404.852.613,2.264.176,2.736-.718.547-1.034.192-2.082-.718-2.736-.353-.254.359.308.097.076-.072-.064-.149-.123-.223-.185-.204-.173-.404-.351-.603-.531-.43-.389-.852-.786-1.271-1.186-.681-.651-1.321-1.357-2.012-1.994-.093-.11-.065-.073.084.111-.058-.083-.113-.168-.166-.254-.08-.133-.147-.271-.218-.409.217.417.009.009-.028-.106-.045-.139-.193-.47-.154-.613l.025.22c-.012-.104-.021-.208-.026-.313-.007-.156.004-.311.003-.467.021-.23.016-.205-.016.075.018-.099.04-.198.067-.296.037-.137.241-.493.009-.082.184-.324.376-.639.571-.956.211-.342-.216.17.08-.102.087-.08.37-.265.06-.085.049-.028.576-.329.316-.206-.263.124.279-.112.345-.085-.25.026-.298.033-.144.02.08-.007.16-.011.241-.011.092-.001.787.071.332.002,1.03.156,2.201-.259,2.46-1.397.217-.953-.291-2.292-1.397-2.46h0Z"/><path class="e" d="M398.553,199.884c-1.026-.195-1.944-.736-2.977-.901-1.109-.178-2.24-.131-3.311.235-2.196.752-3.904,2.349-5.057,4.339-1.101,1.901-1.981,4.174-2.139,6.376-.165,2.299.42,4.74,2.395,6.106,2.032,1.405,4.845,1.163,6.916.01.943-.525,1.255-1.818.718-2.736-.556-.951-1.789-1.245-2.736-.718-.269.15-.41.217-.652.289-.059.018-.653.145-.337.099-.199.029-.407.03-.609.026-.126-.002-.252-.01-.377-.022.236.035.243.033.019-.006-.144-.04-.291-.081-.436-.116-.35-.084.268.193-.115-.052-.103-.054-.202-.113-.299-.177.144.122.162.136.055.042-.069-.059-.133-.121-.194-.188.115.17.106.157-.025-.042-.208-.272-.033.089-.121-.273-.064-.263-.134-.522-.176-.79-.03-.194-.056-.809-.039-1.219.032-.768.377-1.801.722-2.715.311-.824.765-1.735,1.321-2.569.174-.262.411-.531.706-.818.064-.062.579-.489.41-.367.172-.125.353-.238.537-.344.74-.425,1.132-.534,1.982-.477-.313-.021.331.081.425.108.262.077.517.174.773.27.513.194,1.016.383,1.557.486,1.06.202,2.158-.296,2.46-1.397.269-.977-.33-2.257-1.397-2.46h0Z"/><path class="e" d="M315.983,189.223c-1.948,1.755-3.889,3.525-5.923,5.182-.825.671-1.549,1.171-2.536,1.574-1.336.546-2.664,1.112-3.98,1.704-4.897,2.203-9.635,4.772-14.106,7.748-3.476,2.314-6.683,4.786-9.489,7.883-2.822,3.116-5.404,6.446-7.979,9.766-2.423,3.123-4.757,6.386-7.488,9.251-1.776,1.863,1.048,4.696,2.828,2.828,2.343-2.458,4.37-5.226,6.446-7.906,2.596-3.351,5.18-6.719,7.963-9.919,2.614-3.005,5.396-5.482,8.683-7.738,4.411-3.028,9.095-5.651,13.946-7.906,1.399-.65,2.811-1.272,4.239-1.856.683-.279,1.441-.506,2.075-.883.575-.341,1.118-.835,1.639-1.248,2.254-1.784,4.376-3.731,6.51-5.654,1.917-1.727-.92-4.548-2.828-2.828h0Z"/><path class="e" d="M251.653,191.497c11.126,1.61,22.059,5.293,31.992,10.541,2.275,1.202,4.298-2.25,2.019-3.454-10.229-5.404-21.486-9.285-32.948-10.944-1.068-.154-2.149.264-2.46,1.397-.258.94.321,2.305,1.397,2.46h0Z"/><path class="e" d="M292.446,261.927c-8.244,6.066-16.198,12.493-24.114,18.977-.836.685-.71,2.118,0,2.828.827.827,1.99.687,2.828,0,7.653-6.267,15.335-12.487,23.304-18.351.869-.639,1.304-1.734.718-2.736-.501-.857-1.861-1.361-2.736-.718h0Z"/><path class="e" d="M139.375,254.746c9.719,6.547,18.798,13.971,28.016,21.191.85.665,2,.829,2.828,0,.692-.692.855-2.159,0-2.828-9.485-7.429-18.825-15.079-28.825-21.816-2.141-1.442-4.145,2.022-2.019,3.454h0Z"/><path class="e" d="M154.665,203.873c4.835-3.328,10.455-5.564,15.955-7.524,5.382-1.918,10.959-3.67,16.627-4.501,1.07-.157,1.658-1.511,1.397-2.46-.315-1.147-1.387-1.554-2.46-1.397-5.788.848-11.485,2.652-16.975,4.626-5.691,2.046-11.554,4.355-16.563,7.802-2.107,1.45-.109,4.919,2.019,3.454h0Z"/><path class="e" d="M127.729,200.585c8.279,3.57,17.12,7.23,23.762,13.512,6.782,6.414,11.921,14.367,18.417,21.047,1.798,1.849,4.625-.981,2.828-2.828-5.092-5.236-9.477-11.166-14.28-16.665-2.486-2.846-5.122-5.45-8.165-7.7-2.916-2.157-6.057-3.994-9.282-5.648-3.677-1.886-7.469-3.535-11.262-5.17-.991-.427-2.145-.294-2.736.718-.494.844-.28,2.306.718,2.736h0Z"/><path class="e" d="M243.45,190.256c-3.248,4.335-8.531,8.305-14.002,10.168-8.083,2.753-16.86,1.524-24.277-2.557-3.512-1.932-6.969-4.506-9.023-8.021-1.298-2.222-4.756-.211-3.454,2.019,2.064,3.534,5.309,6.295,8.741,8.447,4.05,2.54,8.678,4.358,13.398,5.143,8.664,1.442,17.577-.629,24.655-5.854,2.827-2.087,5.309-4.514,7.416-7.326.648-.865.14-2.235-.718-2.736-1.022-.598-2.087-.15-2.736.718h0Z"/><path class="e" d="M298.28,149.631c-2.291-1.735-5.667-1.776-8.137-.378-1.922,1.088-3.02,3.093-3.375,5.224-.836,5.027.814,10.212,3.987,14.14,2.171,2.688,5.299,4.403,8.804,3.718,1.061-.207,1.668-1.475,1.397-2.46-.304-1.108-1.397-1.605-2.46-1.397-2.317.453-4.32-1.718-5.451-3.464-1.214-1.873-2.029-3.722-2.365-5.902-.286-1.856-.326-4.113.691-5.727.218-.345-.176.156.115-.14.095-.097.402-.381.405-.383.245-.179.758-.389,1.163-.489,1.184-.292,2.246-.017,3.207.711.862.653,2.237.136,2.736-.718.6-1.026.146-2.082-.718-2.736h0Z"/><path class="e" d="M364.25,148.482c.784-.774,1.847-1.089,2.941-.961.48.056.868.169,1.261.402.4.237.263.158.644.554.289.3-.153-.269.054.065.133.215.271.421.384.649.21.421.347.87.466,1.325.302,1.148.392,2.323.365,3.507-.045,1.977-.595,4.016-1.443,5.801-1.024,2.157-2.694,4.519-5.346,4.36-2.571-.154-2.562,3.846,0,4,5.849.351,9.139-5.796,10.347-10.669,1.033-4.164.688-10.735-3.552-13.102-2.86-1.597-6.637-1.041-8.95,1.241-1.835,1.811.994,4.639,2.828,2.828h0Z"/><path class="e" d="M361.691,163.236c-.762,5.164-2.524,9.03-5.248,13.327-2.94,4.639-7.003,9.756-12.483,11.386-2.461.732-1.413,4.594,1.063,3.857,6.346-1.888,11.065-7.364,14.555-12.728,2.906-4.467,5.187-9.471,5.97-14.779.157-1.067-.266-2.149-1.397-2.46-.942-.259-2.302.322-2.46,1.397h0Z"/><path class="e" d="M296.64,168.442c3.758,12.322,14.061,24.385,27.576,25.465,2.566.205,2.553-3.796,0-4-5.911-.473-10.898-3.681-14.986-7.807s-7.047-9.196-8.733-14.722c-.749-2.455-4.611-1.408-3.857,1.063h0Z"/><path class="e" d="M293.633,149.545c-.525-1.542-.967-3.11-1.32-4.7-.093-.418-.389-.785-.717-1.039-.349-.27-.761-.429-1.212-.429h-.01c-.513,0-1.052.223-1.414.586-.347.347-.608.916-.586,1.414.049,1.084.879,2,2,2h.01l-1.929-1.468c.353,1.59.795,3.158,1.32,4.7.169.495.459.926.919,1.195.429.251,1.061.357,1.541.202.484-.157.951-.457,1.195-.919.243-.46.375-1.032.202-1.541h0Z"/><path class="e" d="M292.413,128.678c2.006-8.343,7.027-15.812,13.938-20.908,7.714-5.688,17.427-7.993,26.921-7.186,5.144.437,10.103,2.028,14.632,4.48,2.264,1.226,4.286-2.227,2.019-3.454-9.37-5.073-20.166-6.351-30.551-4.052-9.207,2.038-17.47,7.307-23.299,14.705-3.578,4.541-6.163,9.723-7.517,15.352-.602,2.502,3.255,3.569,3.857,1.063h0Z"/><path class="e" d="M353.255,108.523c-.266-.205.07.057.118.096.125.099.249.199.372.299.249.203.496.41.74.619.498.427.985.867,1.46,1.319.961.915,1.873,1.881,2.73,2.894.432.511.791.961,1.07,1.336.433.581.848,1.175,1.246,1.782.828,1.264,1.57,2.581,2.236,3.937.476.969,1.852,1.235,2.736.718.988-.578,1.196-1.764.718-2.736-2.672-5.435-6.628-10.032-11.408-13.718-.856-.66-2.24-.131-2.736.718-.604,1.033-.141,2.075.718,2.736h0Z"/><path class="e" d="M366.805,134.537c.111,1.669.107,3.341-.02,5.009-.032.416-.07.832-.115,1.247-.023.212-.047.423-.073.634-.015.122-.03.245-.046.367.026-.193.029-.215.009-.068-.14.943-.291,1.882-.463,2.82-.189,1.025.281,2.206,1.397,2.46.981.223,2.258-.297,2.46-1.397.673-3.66,1.099-7.348.851-11.072-.069-1.042-.87-2.051-2-2-1.024.046-2.074.882-2,2h0Z"/><path class="e" d="M326.025,176.705c2.172.939,4.403,1.307,6.778,1.123,2.341-.181,4.721-.741,6.535-2.309.794-.686.756-2.134,0-2.828-.846-.777-1.981-.732-2.828,0-.35.302.335-.217.074-.051-.125.079-.244.167-.372.244-.136.082-.276.158-.418.229-.035.018-.254.147-.29.137.075.021.467-.179.101-.046-.458.167-.921.31-1.397.416-.159.035-.318.067-.478.096-.05.009-.516.088-.251.046.268-.043-.235.027-.285.032-.197.02-.395.036-.593.049-.651.043-1.305.05-1.956.009-.133-.008-.266-.018-.399-.031-.076-.007-.151-.015-.227-.024-.156-.018-.099-.01.171.025-.173.035-.478-.08-.651-.117-.385-.082-.765-.188-1.136-.319-.133-.047-.264-.099-.395-.149-.426-.164.516.223.036.015-.958-.414-2.19-.316-2.736.718-.456.862-.308,2.293.718,2.736h0Z"/><path class="e" d="M330.559,161.361c.18.527.348,1.058.508,1.592.166.552.359,1.124.439,1.697l-.071-.532c.012.113.015.222.001.335l.071-.532c-.01.053-.022.1-.04.151l.202-.478c-.022.048-.045.088-.075.131l.313-.405c-.022.027-.046.052-.073.073l.405-.313c-.118.085-.247.152-.38.21l.478-.202c-.133.052-.264.089-.406.109l.532-.071c-.258.027-.505-.022-.761-.039-.492-.032-1.074.246-1.414.586-.347.347-.608.916-.586,1.414.023.517.193,1.054.586,1.414.405.372.862.55,1.414.586.211.014.419.057.632.049.632-.025,1.186-.183,1.741-.488.636-.349,1.137-.948,1.291-1.665.127-.589.075-1.155-.069-1.736-.246-.996-.548-1.979-.88-2.95-.169-.495-.458-.926-.919-1.195-.429-.251-1.061-.357-1.541-.202-.484.157-.951.457-1.195.919-.243.46-.376,1.032-.202,1.541h0Z"/><path class="e" d="M313.136,153.56c-.431,1.747.181,5.66,3.545,5.776,4.416-.315,4.339-5.089,2.706-7.23-1.337-1.752-4.967-2.28-6.25,1.453Z"/><path class="e" d="M348.509,151.245c.655,1.676.559,5.635-2.761,6.189-4.419.263-4.966-4.481-3.625-6.816,1.098-1.912,4.628-2.908,6.387.627Z"/><path class="e" d="M121.425,2.536c7.91,19.386,15.819,38.772,23.729,58.158.408.999,1.33,1.707,2.46,1.397.947-.26,1.807-1.454,1.397-2.46-7.91-19.386-15.819-38.772-23.729-58.158-.408-.999-1.33-1.707-2.46-1.397-.947.26-1.807,1.454-1.397,2.46h0Z"/><path class="e" d="M50.438,33.239c8.298,10.13,16.863,20.051,25.445,29.94,2.492,2.871,4.993,5.735,7.515,8.581,1.711,1.931,4.531-.907,2.828-2.828-9.348-10.55-18.51-21.271-27.581-32.06-1.803-2.145-3.603-4.293-5.378-6.461-1.632-1.993-4.448.852-2.828,2.828h0Z"/><path class="e" d="M315.686,1.472c-7.91,19.386-15.819,38.772-23.729,58.158-.408,1.001.443,2.198,1.397,2.46,1.145.315,2.05-.393,2.46-1.397,7.91-19.386,15.819-38.772,23.729-58.158.408-1.001-.443-2.198-1.397-2.46-1.145-.315-2.05.393-2.46,1.397h0Z"/><path class="e" d="M387.701,30.411c-8.298,10.13-16.863,20.051-25.445,29.94-2.492,2.871-4.993,5.735-7.515,8.581-1.702,1.921,1.117,4.76,2.828,2.828,9.348-10.55,18.51-21.271,27.581-32.06,1.803-2.145,3.603-4.293,5.378-6.461,1.618-1.976-1.196-4.822-2.828-2.828h0Z"/><path class="e" d="M370.205,164.651c3.184,3.568,7.053,6.433,11.429,8.37,4.252,1.882,8.741,3.026,13.246,4.12l-1.195-2.938c-1.93,4.529-4.478,9.029-7.388,13.003l2.259-.919c-2.747-.954-5.994-3.209-8.611-5.1-3.904-2.821-7.555-6.025-10.803-9.583-1.74-1.905-4.562.93-2.828,2.828,3.482,3.813,7.432,7.186,11.613,10.208,2.944,2.127,6.108,4.301,9.566,5.503.898.312,1.754-.23,2.259-.919,2.91-3.974,5.458-8.474,7.388-13.003.482-1.132.188-2.602-1.195-2.938-4.145-1.007-8.374-1.989-12.291-3.717-4.102-1.809-7.636-4.402-10.62-7.745-1.718-1.924-4.539.912-2.828,2.828h0Z"/><path class="e" d="M348.178,136.376c2.029,2.637,3.987,5.334,6.13,7.881,1.668,1.982,3.634,4.379,6.181,5.222,1.298.43,2.893.115,3.76-.999.662-.852.83-1.998,0-2.828-.69-.69-2.161-.857-2.828,0-.064.082-.169.162-.222.248-.142.233.466-.288.096-.097.584-.301.34-.123.136-.086.694-.129.365-.04.159-.05-.312-.014.529.144.213.025-.105-.039-.228-.072-.336-.101-.292-.078.474.262.035.004-.123-.072-.25-.137-.371-.212-.14-.087-.841-.628-.377-.244-.281-.233-.56-.466-.828-.714-.577-.533-1.12-1.102-1.647-1.684-1.217-1.345-2.349-2.767-3.46-4.201.231.298-.22-.286-.261-.339-.152-.198-.303-.396-.454-.594-.261-.342-.521-.685-.781-1.028-.563-.742-1.124-1.485-1.692-2.223-.658-.855-1.72-1.312-2.736-.718-.841.492-1.38,1.875-.718,2.736h0Z"/><path class="e" d="M233.125,178.689c.106,1.674.317,3.395.956,4.958.652,1.596,1.692,2.817,2.927,3.998,2.166,2.07,4.619,3.773,7.137,5.381.883.564,2.245.212,2.736-.718.523-.99.225-2.134-.718-2.736-1.128-.72-2.252-1.449-3.335-2.235-.132-.096-.264-.193-.395-.291-.027-.02-.32-.241-.187-.139.16.122-.227-.179-.26-.205-.128-.103-.256-.206-.382-.311-.499-.411-.984-.838-1.456-1.279-.994-.927-1.778-1.611-2.282-2.709-.02-.043-.172-.466-.256-.748-.096-.322-.176-.649-.244-.978-.162-.783-.188-1.144-.241-1.987-.066-1.042-.873-2.05-2-2-1.027.046-2.071.882-2,2h0Z"/><path class="e" d="M195.435,192.586c2.466-1.514,4.869-3.117,7.014-5.07,1.104-1.005,2.245-2.086,2.89-3.457.756-1.606,1.081-3.276,1.277-5.03.117-1.043-1.003-2.045-2-2-1.183.053-1.875.882-2,2,0-.008-.067.528-.044.373.027-.181-.054.319-.062.365-.061.344-.134.686-.22,1.024-.085.332-.19.656-.3.981-.032.094-.105.284-.022.085-.076.182-.165.363-.26.535-.063.113-.13.225-.201.334.005-.008-.299.413-.185.27.127-.159-.19.214-.219.247-.109.121-.222.239-.336.356-.46.47-.948.916-1.44,1.353-.448.398-.908.782-1.376,1.155-.459.366.166-.123-.103.08-.122.092-.243.183-.366.273-.246.181-.494.358-.745.533-1.08.753-2.199,1.45-3.321,2.139-.891.547-1.312,1.815-.718,2.736.577.894,1.782,1.303,2.736.718h0Z"/><path class="e" d="M188.108,136.958c-2.265-1.995-5.463-2.486-8.233-1.259-1.998.885-3.227,2.687-3.822,4.74-1.366,4.712-.133,10.267,2.597,14.28,1.89,2.779,4.819,5.197,8.388,4.779,1.073-.126,2-.829,2-2,0-.984-.92-2.126-2-2-4.548.533-7.169-5.938-7.464-9.643-.154-1.927-.126-4.309,1.085-5.915-.29.384.528-.442.379-.337.368-.26.743-.404,1.179-.497,1.061-.225,2.231-.052,3.062.68,1.925,1.696,4.765-1.123,2.828-2.828h0Z"/><path class="e" d="M253.811,140.354c.787-.669,1.898-.823,2.887-.635.919.174,1.377.501,1.857,1.092-.2-.247-.049-.079.034.085.095.187.213.358.297.552.179.413.286.879.38,1.321.243,1.144.238,2.348.147,3.509-.157,2.003-.878,3.965-1.827,5.705-.995,1.824-2.921,4.471-5.332,4.147-1.069-.144-2.147.257-2.46,1.397-.256.931.319,2.315,1.397,2.46,6.131.826,9.851-4.816,11.536-9.95,1.364-4.157,1.322-10.578-2.737-13.265-2.767-1.831-6.56-1.327-9.007.754-.823.7-.72,2.108,0,2.828.816.816,2.003.702,2.828,0h0Z"/><path class="e" d="M250.015,155.12c-.39,1.739-.951,3.479-1.657,5.117-.089.207-.765,1.691-.455,1.012-.148.324-.298.644-.461.961-1.043,2.036-2.319,3.963-3.681,5.797-3.292,4.432-7.761,9.119-13.355,10.342-2.514.55-1.45,4.407,1.063,3.857,6.459-1.412,11.54-6.634,15.391-11.709,1.499-1.976,2.903-4.057,4.035-6.268.181-.354.352-.713.511-1.077-.005.012.403-.9.178-.4.175-.391.35-.781.515-1.177.729-1.746,1.358-3.544,1.772-5.391.562-2.507-3.294-3.578-3.857-1.063h0Z"/><path class="e" d="M184.836,155.507c2.762,12.235,12.087,25.194,25.2,27.224,1.066.165,2.151-.271,2.46-1.397.261-.948-.323-2.294-1.397-2.46-11.827-1.831-19.92-13.417-22.406-24.43-.567-2.51-4.424-1.448-3.857,1.063h0Z"/><path class="e" d="M183.163,136.145c-.436-1.705-.784-3.431-1.023-5.175l.071.532c-.046-.344-.089-.689-.127-1.035-.06-.546-.183-1.011-.586-1.414-.347-.347-.916-.608-1.414-.586-.517.023-1.054.193-1.414.586-.336.366-.643.898-.586,1.414.251,2.275.654,4.525,1.221,6.742.259,1.014,1.445,1.725,2.46,1.397,1.047-.339,1.675-1.374,1.397-2.46h0Z"/><path class="e" d="M183.923,114.198c2.829-7.988,8.604-14.752,15.85-19.101,8.081-4.851,18.086-6.31,27.31-4.573,4.905.924,9.466,2.812,13.662,5.499,2.174,1.392,4.183-2.069,2.019-3.454-8.72-5.583-19.112-7.65-29.353-6.296-9.449,1.25-18.142,5.712-24.687,12.645-3.864,4.093-6.78,8.914-8.658,14.216-.861,2.431,3.002,3.477,3.857,1.063h0Z"/><path class="e" d="M245.41,99.561c4.588,4.117,8.043,9.2,9.986,15.097.338,1.026,1.382,1.693,2.46,1.397,1.004-.276,1.736-1.43,1.397-2.46-2.14-6.495-5.924-12.295-11.014-16.863-.804-.721-2.036-.793-2.828,0-.733.733-.807,2.104,0,2.828h0Z"/><path class="e" d="M257.175,129.257c-.047.625-.113,1.248-.189,1.871-.029.222-.023.178.018-.13-.012.09-.025.179-.038.269-.02.135-.04.27-.062.404-.054.341-.112.681-.175,1.021-.256,1.384-.582,2.754-.942,4.114-.268,1.01.337,2.219,1.397,2.46,1.048.239,2.174-.315,2.46-1.397.748-2.825,1.312-5.694,1.531-8.612.079-1.046-.976-2.046-2-2-1.151.052-1.916.88-2,2h0Z"/><path class="e" d="M213.62,165.854c2.033,1.063,4.202,1.527,6.497,1.547,2.143.019,4.667-.291,6.447-1.612.837-.622,1.347-1.76.718-2.736-.534-.829-1.838-1.384-2.736-.718-.214.159-.442.299-.679.422-.068.035-.138.067-.206.101-.336.169.147-.036.155-.061-.026.078-.513.186-.593.21-.473.147-.954.237-1.441.323.504-.089-.055.002-.132.009-.15.014-.3.025-.45.034-.361.022-.722.03-1.083.027-.33-.003-.661-.015-.99-.037-.181-.012-.36-.031-.541-.047-.399-.035.183.037-.05-.003-.491-.085-.977-.176-1.456-.316-.203-.059-.404-.126-.603-.199-.081-.03-.161-.063-.242-.093-.359-.131.451.213.131.054-.242-.121-.487-.234-.728-.36-.926-.485-2.216-.268-2.736.718-.487.921-.272,2.219.718,2.736h0Z"/><path class="e" d="M219.186,150.952c.272,1.041.533,2.1.685,3.166l-.071-.532c.018.146.025.29.008.436l.071-.532c-.011.068-.027.131-.051.196l.202-.478c-.021.046-.043.084-.072.126l.313-.405c-.02.026-.043.049-.067.07l.405-.313c-.089.068-.191.113-.292.158l.478-.202c-.139.055-.276.096-.424.12l.532-.071c-.149.018-.295.015-.444-.004l.532.071c-.148-.022-.293-.058-.441-.079-.266-.083-.532-.095-.798-.036-.266.012-.514.091-.744.237-.415.243-.811.718-.919,1.195-.117.512-.091,1.087.202,1.541.261.405.695.85,1.195.919.372.052.733.14,1.111.165.615.04,1.19-.155,1.74-.403.671-.302,1.156-.895,1.368-1.595.181-.596.109-1.159.009-1.757-.172-1.029-.405-2.048-.668-3.058-.126-.483-.491-.945-.919-1.195s-1.061-.357-1.541-.202c-1.043.337-1.68,1.375-1.397,2.46h0Z"/><path class="e" d="M202.353,141.74c-.559,1.71-.238,5.658,3.108,6.023,4.427.013,4.704-4.755,3.233-7.01-1.204-1.847-4.785-2.641-6.341.987Z"/><path class="e" d="M237.8,142.047c.529,1.72.141,5.661-3.211,5.968-4.426-.064-4.621-4.835-3.111-7.065,1.236-1.825,4.83-2.558,6.323,1.097Z"/><path class="e" d="M241.41,129.271c.229.277.453.557.676.839.132.17.11.141-.067-.087.054.071.108.141.161.212.106.141.212.283.316.426.408.559.799,1.131,1.169,1.717.354.56.688,1.132.996,1.719.148.281.289.565.424.852.066.14.128.282.192.423.084.194.062.14-.067-.162.029.07.057.139.085.209.203.502.434.911.919,1.195.429.251,1.061.357,1.541.202.484-.157.951-.457,1.195-.919.235-.444.399-1.053.202-1.541-1.179-2.919-2.915-5.494-4.914-7.913-.308-.373-.95-.586-1.414-.586-.491,0-1.076.218-1.414.586-.35.381-.61.882-.586,1.414.025.558.231.985.586,1.414h0Z"/><path class="e" d="M197.43,126.172c-2.39,2.07-4.695,4.245-6.86,6.55-.717.763-.813,2.082,0,2.828.778.714,2.063.815,2.828,0,2.165-2.305,4.47-4.48,6.86-6.55.794-.687.757-2.133,0-2.828-.845-.776-1.982-.733-2.828,0h0Z"/><path class="e" d="M300.343,154.398c.053-.18.129-.353.183-.532-.17.564.04-.075.123-.243.247-.498.527-.98.819-1.452.721-1.165,1.526-2.278,2.357-3.367,1.812-2.375,4.145-5.01,6.334-7.324.742-.785.779-2.05,0-2.828-.749-.749-2.084-.787-2.828,0-2.454,2.594-4.791,5.295-6.959,8.134-1.506,1.971-3.17,4.134-3.885,6.549-.307,1.035.37,2.178,1.397,2.46,1.062.292,2.152-.357,2.46-1.397h0Z"/><path class="e" d="M222.352,108.817c-7.872-.112-15.745.057-23.59.746-3.758.33-7.503.775-11.241,1.284-1.917.261-3.845.503-5.751.837-1.853.325-3.055,1.524-3.584,3.295-1.167,3.908-1.693,8.129-1.581,12.202.052,1.918.208,3.75,2.034,4.816,1.623.948,3.283.501,4.986.108,5.643-1.302,11.344-2.229,17.118-2.689,12.958-1.033,26.042-.673,38.996.213,3.373.231,6.743.492,10.111.794,1.519.136,3.037.28,4.554.437,1.374.142,2.819.462,4.2.453,1.732-.012,3.434-1.028,4.045-2.68.623-1.682.524-3.868.362-5.635-.176-1.925-.538-3.843-.932-5.734-.337-1.614-.82-3.2-2.188-4.237-1.632-1.238-4.436-1.173-6.396-1.427-2.715-.352-5.433-.678-8.153-.983-6.299-.707-12.618-1.339-18.95-1.658-1.346-.068-2.692-.117-4.039-.14-2.575-.043-2.576,3.957,0,4,10.758.179,21.556,1.508,32.212,2.922.38.05,1.326.18,1.997.277,1.228.177,1.308.732,1.578,1.926.347,1.53.655,3.1.832,4.66.09.792.133,1.591.124,2.389-.005.474.138,1.846-.157,2.207-.361.441-2.46-.115-2.98-.172-1.398-.154-2.798-.294-4.199-.427-3.011-.285-6.025-.533-9.04-.757-11.917-.884-23.833-1.267-35.78-.788-5.541.222-11.065.718-16.537,1.627-2.686.446-5.355.992-8.007,1.607-.477.111-1.142.417-1.63.299-.112-.027-.274-.228-.096.024-.139-.197-.049-.955-.057-1.192-.068-1.976.022-3.969.282-5.93.134-1.013.323-2.021.541-3.019.09-.413.187-.824.29-1.234.094-.375.173-1.296.432-1.58-.224.246.081.018.128-.007.426-.227,1.166-.201,1.64-.273.996-.15,1.992-.297,2.989-.438,3.739-.53,7.489-.978,11.25-1.32,8.043-.731,16.116-.915,24.189-.8,2.575.037,2.576-3.963,0-4Z"/><path class="e" d="M248.019,166.004c2.106,1.751,4.36,3.246,6.837,4.419,2.717,1.286,5.557,2.299,8.372,3.346l-1.195-2.938c-2.363,4.127-5.308,8.159-8.557,11.636l2.424-.313c-3.047-1.475-5.599-3.735-7.941-6.145-1.797-1.85-4.624.98-2.828,2.828,2.556,2.631,5.424,5.161,8.751,6.771.784.38,1.788.367,2.424-.313,1.717-1.838,3.254-3.855,4.755-5.871,1.576-2.116,3.115-4.283,4.427-6.575.687-1.199.006-2.491-1.195-2.938-4.742-1.764-9.501-3.458-13.444-6.736-.83-.69-2.015-.813-2.828,0-.71.71-.835,2.135,0,2.828h0Z"/><path class="e" d="M329.472,118.795c-7.831.819-15.637,1.899-23.353,3.481-3.656.75-7.289,1.605-10.903,2.535-1.84.474-3.676.966-5.508,1.471-1.817.502-3.359,1.496-3.74,3.464-.807,4.166-.799,8.538-.209,12.727.272,1.929.639,3.697,2.605,4.537,1.758.75,3.344.092,5.023-.506,5.498-1.957,11.109-3.545,16.831-4.699,12.753-2.57,25.796-3.739,38.774-4.391,3.36-.169,6.722-.307,10.085-.406,2.895-.085,5.872.097,8.754-.153,1.757-.152,3.442-1.274,3.93-3.03s.176-3.997-.048-5.781c-.24-1.907-.642-3.812-1.292-5.624-.656-1.828-1.482-3.767-3.481-4.406-1.824-.583-4.254-.26-6.144-.269-2.76-.013-5.521.001-8.281.035-6.323.077-12.654.228-18.964.668-1.361.095-2.721.207-4.079.346-1.074.11-2,.841-2,2,0,.996.919,2.111,2,2,10.739-1.099,21.648-1.125,32.434-1.042.864.007,1.729.016,2.593.032.302.006.658-.038.954.021.071.014.239-.031.295-.002.232.118.481.865.595,1.125.664,1.515,1.058,3.228,1.324,4.856.133.815.2,1.64.233,2.465.023.552.19,2.323.023,2.526-.242.294-2.168.105-2.742.11-1.342.012-2.685.037-4.027.069-3.064.073-6.127.184-9.189.32-12.094.538-24.12,1.595-36.085,3.479-5.414.852-10.787,1.947-16.056,3.467-2.633.76-5.238,1.616-7.817,2.541-.537.193-1.286.636-1.858.625-.074-.001-.339-.101-.236-.018.062.05-.118-.802-.149-.988-.325-1.953-.434-3.946-.413-5.924.02-1.82.156-3.643.441-5.441.101-.637.125-.633.771-.818.894-.256,1.794-.493,2.692-.734,3.339-.896,6.692-1.739,10.064-2.499,6.716-1.513,13.506-2.67,20.338-3.512,1.936-.239,3.875-.455,5.815-.658,1.074-.112,2-.839,2-2,0-.994-.919-2.113-2-2Z"/><path class="e" d="M24.351,309.718c6.208-8.16,12.438-16.311,18.155-24.828,2.859-4.259,5.75-8.623,7.86-13.314,2.015-4.481,3.002-9.439,4.142-14.195,2.176-9.084,4.135-18.221,6.008-27.372.514-2.513-3.34-3.587-3.857-1.063-1.678,8.195-3.431,16.376-5.334,24.522-1.192,5.101-2.186,10.465-4.103,15.36-.244.624-.647,1.48-1.081,2.34-.53,1.052-1.097,2.086-1.683,3.109-1.341,2.34-2.783,4.622-4.264,6.876-3.245,4.938-6.691,9.744-10.2,14.497-2.989,4.049-6.049,8.044-9.096,12.049-.655.86-.135,2.238.718,2.736,1.028.601,2.08.145,2.736-.718h0Z"/><path class="e" d="M63.372,309.718c6.691-13.648,13.79-27.324,18.853-41.685,1.316-3.732,2.064-7.689,2.948-11.543.946-4.127,1.847-8.265,2.718-12.408,1.741-8.281,3.362-16.585,5.001-24.887,1.903-9.639,3.838-19.273,5.971-28.865.558-2.508-3.298-3.579-3.857-1.063-3.698,16.632-6.768,33.393-10.208,50.078-1.714,8.316-3.531,16.612-5.572,24.855-.759,3.067-2.041,6.05-3.228,8.972-1.375,3.384-2.851,6.726-4.363,10.051-3.746,8.234-7.736,16.355-11.717,24.476-1.129,2.303,2.32,4.333,3.454,2.019h0Z"/><path class="e" d="M385.137,241.761c2.785,17.023,6.754,33.878,10.487,50.711,1.24,5.591,2.487,11.18,3.733,16.769.56,2.511,4.417,1.449,3.857-1.063-4.161-18.664-8.428-37.315-12.127-56.077-.747-3.791-1.469-7.589-2.093-11.403-.175-1.067-1.498-1.661-2.46-1.397-1.133.311-1.572,1.39-1.397,2.46h0Z"/><path class="e" d="M290.557,253.541c3.118,14.656,5.87,29.389,8.617,44.118.72,3.86,1.436,7.721,2.153,11.582.47,2.528,4.325,1.457,3.857-1.063-2.73-14.697-5.444-29.398-8.375-44.056-.777-3.886-1.571-7.768-2.395-11.644-.535-2.516-4.392-1.452-3.857,1.063h0Z"/><path class="e" d="M262.765,229.949c.203,11.658.974,23.299,1.492,34.945.458,10.298.729,20.603,1.206,30.901.199,4.305.349,8.613.633,12.914.168,2.555,4.17,2.574,4,0-.58-8.799-.883-17.629-1.231-26.44-.433-10.959-.824-21.912-1.364-32.867-.32-6.481-.622-12.964-.735-19.452-.045-2.571-4.045-2.579-4,0h0Z"/><path class="e" d="M170.895,308.709c.205-8.013.686-16.018,1.023-24.026.448-10.644.769-21.287,1.307-31.928.336-6.635.649-13.273.76-19.916.043-2.575-3.957-2.575-4,0-.199,11.874-1.037,23.724-1.511,35.588-.385,9.634-.682,19.268-1.127,28.901-.175,3.793-.354,7.585-.452,11.381-.066,2.575,3.934,2.574,4,0h0Z"/></g></g></svg>