<?xml version="1.0" encoding="UTF-8"?>
<svg id="_レイヤー_1" data-name="レイヤー_1" xmlns="http://www.w3.org/2000/svg" version="1.1" viewBox="0 0 1356.9 289.2">
  <!-- Generator: Adobe Illustrator 29.5.0, SVG Export Plug-In . SVG Version: 2.1.0 Build 137)  -->
  <defs>
    <style>
      .st0 {
        fill: #2c4a52;
      }
      .st1 {
        fill: #f4ebdb;
      }
    </style>
  </defs>
  <g id="X4Md2P">
    <g>
      <path class="st1" d="M46.8,255.3c24.2,20.5,53.7,35.8,86.4,33.7,29.3-1.9,38.8-23.7,54.2-44.5,8.7-11.7,19.9-21.8,21.3-37.3,1.7-19.9-7.2-37.7-18.1-53.6-.7-1.1-5.3-6.6-5-7.4,6.4-9,14.6-16.3,23.2-23.1,19.4-15.4,42.9-26.6,51.3-51.8C273.6,30.4,228.5-6.4,189.7.9c-44.9,8.5-40,57.8-61.5,87.9s-5.2,5.7-6.7,8.9c-23.9-8.1-49.9-16.1-70.9,2.9s-7.1,8-10.8,11.7C20.3,132-3.2,148.2.4,179.5c3.5,30.4,23.8,56.7,46.4,75.8Z"/>
      <path d="M46.8,255.3C24.1,236.1,3.9,209.9.4,179.5c-3.6-31.3,19.9-47.5,39.4-67.2,3.7-3.7,6.8-8.2,10.8-11.7,21.1-18.9,47-10.9,70.9-2.9,1.5-3.3,4.5-5.9,6.7-8.9C149.7,58.8,144.8,9.5,189.7.9c38.7-7.4,83.9,29.4,70.4,70.4-8.3,25.2-31.9,36.4-51.3,51.8-8.6,6.8-16.8,14.1-23.2,23.1-.3.7,4.2,6.3,5,7.4,10.9,15.9,19.8,33.7,18.1,53.6-1.4,15.5-12.6,25.6-21.3,37.3-15.4,20.8-24.9,42.6-54.2,44.5-32.7,2.1-62.2-13.2-86.4-33.7ZM239.4,28.7c-7.6-8.1-22.6-15.5-33.7-16.8-43.3-4.9-45.7,36.8-58.8,66.6-3.9,8.8-9,16.8-14.9,24.3,16.6,9.8,32.9,20.3,46,34.6,4.6-6.7,10.8-12.5,17-17.8,22-18.9,65.4-38.2,54.1-74.3-1.8-5.7-5.7-12.2-9.7-16.5ZM177,239.6c7.3-10.8,18.9-19.2,20.3-33.3,2.6-26.8-23.3-60-43.4-75.5-20.6-15.9-53.1-34.3-80-29.4s-18.5,11.2-26.5,19.7-6.1,6.5-9.5,9c9.3-.4,18.7-.1,27.9,1.7,27,5.3,61.9,27.6,80.5,47.7,14.8,15.9,28.2,37.8,29.9,59.9l.9.2ZM43.5,141.9c-37.2,1.7-36.6,32.6-24.8,59.8,16.2,37.4,69.3,78.9,111.4,76.2,31.2-2,41.5-25.5,31.4-53.4-15-41.5-73.4-84.6-118.1-82.6Z"/>
      <path class="st1" d="M43.5,141.9c44.6-2,103,41,118.1,82.6,10.1,27.9-.2,51.4-31.4,53.4-42.1,2.7-95.2-38.8-111.4-76.2-11.8-27.2-12.4-58.1,24.8-59.8ZM82.6,167.5c-1.9.6-5.5,8.9-6.2,11-6.6,20.1,8.8,26.1,7.6,42.8s-2.2,7.9-1.7,9.6,3.2,2,3.7,2c4.6.2,8.7-7.6,9.7-11.4,4.4-16.6-10.2-26.1-9.9-41.6,0-2.7,1.7-8.5,1.3-10.5s-2.8-2.5-4.5-2ZM62.6,223.2c3.7,4.7,9.1-1.6,10.2-5.6,4.4-15.3-8.9-21.1-9.9-32.8s1-9.1.4-11.4-2.1-2.1-3.2-2.1c-2.7,0-4.9,4.9-5.7,7.1-7.9,19.9,10,22,8.5,39.4-.1,1.8-1.6,3.7-.3,5.4ZM105.8,239.5c3.6,3.8,10-3.1,11.6-6.5,7.5-17-9.6-27.5-8.2-44.7.2-2.5,3.1-8.7-1.6-9-3.8-.2-7.9,7.8-8.9,10.9-5.4,18,11.5,24.3,9,40.3-.4,2.3-3.6,7.3-2,9ZM123.4,230.7c1.5,1.8,2.9,2.7,4.2,5.3,6.9,13.8-4.6,17.2-16,16.4-15.2-1-33-9-45.3-17.7-6.5-4.6-19.6-14.9-16-24.2.7-1.9,4.5-3.9,1.1-6.4s-8.4,1.5-9.5,5c-5.9,20.1,24.9,37.9,39.9,44.3,13,5.5,38.8,12.9,50.7,2.7,9.1-7.8,5.9-21.4-2.4-28.4-.8-.7-4.6-3.7-5.5-3.1.8,1.3-.9,1.2-1.4,2.3s-.5,2.8.3,3.7Z"/>
      <path class="st1" d="M239.4,28.7c4.1,4.3,7.9,10.8,9.7,16.5,11.3,36.2-32,55.5-54.1,74.3-6.2,5.3-12.3,11.1-17,17.8-13.1-14.3-29.5-24.8-46-34.6,5.9-7.5,11.1-15.5,14.9-24.3,13.1-29.8,15.4-71.5,58.8-66.6,11.1,1.2,26.1,8.7,33.7,16.8Z"/>
      <path class="st1" d="M177,239.6l-.9-.2c-1.8-22.1-15.1-44-29.9-59.9-18.7-20-53.5-42.4-80.5-47.7-9.2-1.8-18.5-2.1-27.9-1.7,3.4-2.5,6.5-5.9,9.5-9,8-8.5,13.9-17.4,26.5-19.7,26.9-4.9,59.4,13.5,80,29.4,20.2,15.5,46,48.8,43.4,75.5-1.4,14.1-13,22.4-20.3,33.3Z"/>
      <path class="st0" d="M123.4,230.7c-.8-.9-.8-2.7-.3-3.7s2.2-1,1.4-2.3c.9-.6,4.7,2.4,5.5,3.1,8.4,7,11.5,20.6,2.4,28.4-11.9,10.2-37.6,2.9-50.7-2.7-15-6.4-45.8-24.2-39.9-44.3,1-3.6,5.7-7.7,9.5-5s-.4,4.5-1.1,6.4c-3.6,9.3,9.5,19.5,16,24.2,12.3,8.7,30.1,16.7,45.3,17.7,11.4.8,22.9-2.7,16-16.4-1.3-2.5-2.7-3.5-4.2-5.3Z"/>
      <path class="st0" d="M82.6,167.5c1.7-.5,4,0,4.5,2s-1.2,7.8-1.3,10.5c-.2,15.5,14.4,25,9.9,41.6-1,3.8-5.1,11.7-9.7,11.4s-3.5-1.5-3.7-2c-.6-1.7,1.5-7.2,1.7-9.6,1.2-16.7-14.2-22.7-7.6-42.8s4.2-10.5,6.2-11Z"/>
      <path class="st0" d="M105.8,239.5c-1.6-1.7,1.6-6.8,2-9,2.5-16-14.4-22.3-9-40.3.9-3.1,5-11.1,8.9-10.9,4.7.3,1.8,6.5,1.6,9-1.5,17.3,15.7,27.8,8.2,44.7-1.5,3.4-8,10.3-11.6,6.5Z"/>
      <path class="st0" d="M62.6,223.2c-1.4-1.7.1-3.7.3-5.4,1.5-17.3-16.4-19.5-8.5-39.4.9-2.2,3-7.1,5.7-7.1s2.9,1,3.2,2.1c.7,2.3-.6,8.2-.4,11.4,1,11.7,14.3,17.5,9.9,32.8-1.1,4-6.5,10.3-10.2,5.6Z"/>
    </g>
  </g>
  <g>
    <path class="st1" d="M421.5,205c-25.4,18.8-55,31.7-90.4,36.5-1.6,0-2.6-.8-2.6-1.6s.5-1.6,1.9-2.1c29.9-13,55.5-30.9,76.1-50.5,23.8-22.5,42.8-48.9,55.5-78.5,2.1-4.5,5.3-12.2,5.3-14.5s-.8-1.8-2.4-1.8-2.1.3-3.4.5c-8.7,2.1-21.9,5.8-30.1,8.7-3.4,1.3-10.6,4.8-13.2,7.1-2.9,2.4-6.9,4.5-10.8,4.5s-11.4-4.5-16.1-9.5c-6.3-6.6-12.4-12.4-12.4-18.8s.3-4.5,1.1-6.9c.5-1.9,1.3-2.6,2.1-2.6s2.1.5,3.2,1.6c2.9,2.4,6.3,4.2,7.9,5,3.2,1.6,6.9,2.9,10.3,2.9s8.2-.5,14.8-1.8c11.6-2.1,27.8-5.3,37.5-7.4,5.8-1.3,5.6-1.3,10.6-6.9,2.4-2.4,4.8-3.4,8.2-3.4s14,4.2,21.7,9.5c10,6.9,18.2,13.2,18.2,20.6s-2.9,6.1-8.2,8.5c-6.9,3.2-6.6,4.5-10.8,12.4-7.1,13.2-15.1,25.6-23.5,37.3,17.2,2.1,30.4,7.7,40.7,14,12.2,7.4,22.5,18.2,22.5,33.3s-6.9,18.2-18,18.2-15.1-5.3-21.7-20.6c-7.4-16.4-15.6-29.9-28.3-38.6-13.5,17.2-28.3,32.2-45.5,44.9Z"/>
    <path class="st1" d="M671.3,114.6c0-2.6-.8-4-2.6-5.8-1.6-1.8-3.4-3.7-6.3-5.3-1.1-.5-1.9-1.3-1.9-1.9,0-.8.8-1.6,2.1-2.4,3.7-1.8,8.5-3.4,11.4-3.4,4.5,0,12.4,3.4,21.4,9.8,9,6.3,15.3,14,15.3,19.6s-1.1,6.1-5.6,9.5c-4.2,3.2-6.1,5-8.5,8.2-14.5,18.8-34.6,35.2-56.6,48.1-17.2,10.3-35.4,18.2-56.6,22.7-1.3.3-3.4.8-4.5.8s-2.1-.8-2.1-1.6.5-1.6,1.3-2.1c19-11.1,35.4-23.3,50-36.7,14.3-13.7,26.7-29.1,38.3-47.8,2.4-4.2,4.8-9,4.8-11.6ZM733.7,103c0-1.1,1.1-2.1,3.2-1.8,21.9,2.1,43.1,12.7,57.9,27.2,9.8,9.5,19.3,24.6,19.3,38.9s-6.6,21.1-18,21.1-17.7-7.7-24.1-29.1c-4.2-14.5-10.3-25.6-17.4-35.4-5.3-7.1-11.6-13-19.6-18.5-1.1-.8-1.3-1.6-1.3-2.4ZM802.7,97.1c-13.7,0-24.8-11.1-24.8-24.8s11.1-24.6,24.8-24.6,24.6,11.1,24.6,24.6-11.1,24.8-24.6,24.8ZM802.7,87.1c7.9,0,14.5-6.6,14.5-14.8s-6.6-14.5-14.8-14.5-14.5,6.6-14.5,14.5,6.6,14.8,14.8,14.8Z"/>
    <path class="st1" d="M1035.8,175.1c10.6,3.7,14.3,8.7,14.3,14.5s-3.2,8.7-9.3,8.7-10.3-1.3-17.4-2.1c-2.9-.3-6.6-.5-11.9-.5s-10.6.3-18,.8c-17.4,1.9-29.3,4-46.5,8.5-3.7,1.1-8.7,3.4-13,6.1-3.2,2.4-6.1,3.2-10,3.2s-11.6-4.2-16.9-9c-6.6-6.1-14.3-14-14.3-19.8s0-3.7.3-5c.3-1.8,1.1-2.6,2.1-2.6s1.9.3,2.9,1.1c3.7,2.1,7.7,4,10.3,5,4,1.6,8.7,2.6,13,2.6s8.2-.5,14.5-1.6c18.8-3.2,35.4-6.1,53.7-9,2.6-.5,5.6-1.1,8.2-1.9,2.6-16.1,4.2-31.7,6.1-47.8.3-3.7.8-10.6.8-13.2s-.3-3.4-5.6-3.2c-15.9,1.6-40.7,6.1-57.1,9.8-5.6,1.3-10.8,2.9-14.5,5.6-2.9,2.1-5.3,3.7-10,3.7s-11.1-4.8-16.1-9.8c-5.3-5.6-10.8-12.4-10.8-18.2s0-4,.5-6.1c.5-1.6,1.1-2.1,1.9-2.1s1.6.3,2.4,1.1c2.9,2.4,5.6,4,7.7,5,4.8,2.4,7.7,3.2,10.8,3.2,5.6,0,11.4-.3,19.6-1.6,19-3.2,42.3-6.3,61.1-9,5.3-.5,6.1-1.1,10.3-5.6,2.9-2.9,5.6-5,9.3-5s13.7,5.3,22.2,11.6c9.5,6.3,17.2,14.5,17.2,20.1s-2.6,6.6-5.6,7.7c-6.1,2.6-6.1,3.7-8.5,10-3.7,12.7-7.7,28-11.1,42.6,2.4.5,5,1.3,7.7,2.4Z"/>
    <path class="st1" d="M1290.3,132c23-19.3,44.9-41.8,63.4-66.1.5-.8,1.3-1.1,1.8-1.1.8,0,1.3.5,1.3,1.8s-.3,1.9-.5,2.6c-10,29.3-29.6,57.6-52.3,81.7-25.9,27.5-56,49.4-82.2,63.2-8.5,4.8-11.4,5.3-14.3,11.4-2.4,4.2-5.6,5.6-8.2,5.6-5.6,0-13.5-5.8-21.4-14.8-6.9-7.7-14.3-16.1-14.3-20.9s1.3-5.6,4-9.3c3.2-3.4,2.9-3.4,3.2-11.6.5-9.8.8-23.5.8-38.1s-.3-20.9-.5-30.7c-.5-9.5-1.3-14.5-4.8-17.4-2.9-2.1-5.3-3.7-8.5-5-1.6-.5-2.4-1.6-2.4-2.4,0-1.3.8-2.1,2.1-3.2,4-2.9,9.5-5.6,13.5-5.6,6.3,0,15.1,3.4,23.8,9,8.7,5.6,15.1,10.3,15.1,16.9s-1.3,5.6-4.5,9.5c-3.2,3.7-4,5-4.8,15.3-1.6,19.3-1.6,44.1-1.8,54.4,0,7.1,0,8.2,3.2,8.2s7.9-2.4,15.1-5.3c22.2-10.8,48.1-27,73.2-48.4Z"/>
  </g>
</svg>
