<?xml version="1.0" encoding="UTF-8"?><svg id="b" xmlns="http://www.w3.org/2000/svg" width="382.234" height="300.962" viewBox="0 0 382.234 300.962"><defs><style>.f{fill:#211715;}.g{fill:none;}.h{fill:#211715;}</style></defs><g id="c"><g id="d"><g id="e"><path class="h" d="M90.713,261.603c2.565.008,5.13.007,7.694.008,5.31.003,10.619.005,15.929.006,7.419.002,14.839.003,22.258.005,8.788.001,17.575.002,26.363.003,9.513,0,19.025.002,28.538.003,9.566,0,19.131.001,28.697.002,8.946,0,17.893.001,26.839.002,7.655,0,15.309.002,22.964.003,5.711,0,11.422.002,17.133.004,3.041,0,6.083,0,9.124.005.265,0,.529,0,.794.001,2.574.008,2.578-3.992,0-4-2.298-.007-4.596-.004-6.893-.005-5.1-.002-10.201-.003-15.301-.004-7.267-.001-14.534-.002-21.802-.003-8.694,0-17.388-.002-26.082-.002-9.477,0-18.954-.001-28.43-.002-9.587,0-19.175-.002-28.762-.002-9.026,0-18.052-.002-27.077-.003-7.792-.001-15.584-.002-23.376-.004-5.907-.001-11.814-.003-17.721-.006-3.294-.002-6.589-.002-9.883-.008-.335,0-.67-.001-1.005-.002-2.574-.008-2.578,3.992,0,4h0Z"/><path class="h" d="M217.302,210.699c-5.595-.017-11.191-.02-16.786-.026-9.348-.01-18.697-.017-28.045-.024-10.674-.008-21.348-.015-32.023-.022-9.443-.006-18.887-.012-28.33-.019-5.678-.004-11.357-.007-17.035-.015-.328,0-.656,0-.985-.002-.929-.002-1.635.631-1.929,1.468-7.919,22.59-15.559,45.279-23.024,68.023-2.006,6.111-3.996,12.226-5.968,18.348-.401,1.246.675,2.533,1.929,2.532,15.209-.019,30.418-.039,45.627-.059,18.607-.023,37.213-.046,55.82-.065,16.058-.016,32.116-.022,48.174-.006,18.501.018,37.003.039,55.504.062,16.038.019,32.075.04,48.113.058,1.436.002,2.872.003,4.308.005,1.254.001,2.33-1.285,1.929-2.532-7.315-22.686-14.847-45.303-22.581-67.849-2.119-6.177-4.255-12.347-6.416-18.51-.293-.837-1.006-1.471-1.929-1.468-18.251.044-36.502.106-54.754.157-2.573.007-2.578,4.007,0,4,18.251-.051,36.502-.113,54.754-.157l-1.929-1.468c7.919,22.588,15.557,45.275,23.026,68.015,2.007,6.109,3.998,12.223,5.971,18.344l1.929-2.532c-15.21-.017-30.421-.036-45.631-.055-18.606-.023-37.213-.045-55.819-.064-16.058-.016-32.116-.022-48.173-.006-18.502.018-37.004.04-55.505.063-16.036.02-32.073.041-48.109.062-1.436.002-2.872.004-4.307.005l1.929,2.532c7.308-22.691,14.841-45.311,22.575-67.86,2.119-6.177,4.256-12.348,6.416-18.511l-1.929,1.468c5.064.009,10.127.011,15.191.014,9.075.007,18.151.012,27.226.018,10.658.007,21.316.014,31.974.022,9.686.007,19.371.014,29.057.024,6.176.006,12.352.011,18.528.026.41.001.819.002,1.229.003,2.574.008,2.578-3.992,0-4h0Z"/><path class="h" d="M191.45,259.793c.136,9.087.089,18.175-.148,27.259-.067,2.575,3.933,2.573,4,0,.237-9.085.284-18.173.148-27.259-.038-2.572-4.039-2.579-4,0h0Z"/><path class="h" d="M240.557,227.144c1.756,10.993,3.37,22.01,5.01,33.02.159,1.069,1.509,1.658,2.46,1.397,1.145-.315,1.557-1.388,1.397-2.46-1.64-11.01-3.254-22.027-5.01-33.02-.171-1.067-1.501-1.66-2.46-1.397-1.136.312-1.568,1.39-1.397,2.46h0Z"/><path class="h" d="M272.54,260.191c1.816,7.844,3.626,15.69,5.388,23.547.342,1.527.695,3.052,1.001,4.587.503,2.522,4.359,1.455,3.857-1.063-1.595-7.997-3.575-15.932-5.406-23.878-.327-1.419-.654-2.837-.982-4.256-.58-2.507-4.438-1.446-3.857,1.063h0Z"/><path class="h" d="M134.055,288.473c1.047-7.508,2.227-14.999,3.355-22.495,1.588-10.548,3.182-21.095,4.759-31.644.491-3.286.995-6.57,1.452-9.861.148-1.068-.26-2.148-1.397-2.46-.935-.257-2.311.32-2.46,1.397-1.06,7.637-2.259,15.256-3.406,22.881-1.582,10.512-3.171,21.023-4.744,31.536-.478,3.193-.969,6.385-1.416,9.583-.149,1.068.26,2.148,1.397,2.46.935.257,2.31-.32,2.46-1.397h0Z"/><path class="h" d="M104.219,274.729c-.229-.261-.459-.521-.687-.782l-1.414,3.414c1.285.006,2.57.083,3.855.064.848-.013,1.731-.609,1.929-1.468.555-2.418,1.153-4.829,1.66-7.258l-1.929,1.468c4.252-.002,8.503-.058,12.755-.06l-1.929-2.532c-.4,2.592-.803,5.184-1.124,7.787-.132,1.071,1.023,2.005,2,2,1.324-.007,2.645-.09,3.969-.095l-1.414-3.414c-3.916,3.182-7.869,6.324-11.894,9.367l2.424.313c-2.873-2.796-5.548-5.802-8.199-8.805-1.707-1.934-4.527.904-2.828,2.828,2.652,3.004,5.326,6.01,8.199,8.805.574.558,1.722.843,2.424.313,4.297-3.249,8.523-6.596,12.703-9.993,1.391-1.13.202-3.421-1.414-3.414-1.324.005-2.645.088-3.969.095l2,2c.277-2.248.636-4.485.982-6.724.194-1.26-.51-2.532-1.929-2.532-4.252.002-8.503.058-12.755.06-.832,0-1.751.617-1.929,1.468-.507,2.429-1.104,4.84-1.66,7.258l1.929-1.468c-1.285.019-2.57-.059-3.855-.064-1.821-.008-2.523,2.15-1.414,3.414.229.261.458.522.687.782,1.705,1.936,4.525-.902,2.828-2.828Z"/><path class="h" d="M218.429,265.385c-5.117-.038-10.235.037-15.352.037-1.081,0-2.001.916-2,2,.003,4.233.091,8.467.125,12.7.009,1.081.909,2,2,2,5.317,0,10.635.01,15.952.01,1.027,0,2.074-.918,2-2-.289-4.246-.487-8.498-.725-12.747-.06-1.079-.876-2-2-2-1.036,0-2.061.916-2,2,.238,4.249.436,8.501.725,12.747l2-2c-5.317,0-10.635-.01-15.952-.01l2,2c-.034-4.233-.122-8.466-.125-12.7l-2,2c5.117,0,10.235-.075,15.352-.037,2.574.019,2.577-3.981,0-4Z"/><path class="h" d="M237.252,265.385c-3.186-.038-6.374-.054-9.561-.056-1.034,0-2.064.918-2,2,.257,4.318.613,8.632.944,12.944.083,1.078.849,2.001,2,2,3.352-.003,6.703-.109,10.056-.111.998,0,2.113-.919,2-2-.446-4.263-.942-8.521-1.439-12.778-.121-1.036-.833-2.052-2-2-.98.044-2.13.887-2,2,.497,4.257.993,8.515,1.439,12.778l2-2c-3.352.002-6.703.109-10.056.111l2,2c-.332-4.313-.687-8.627-.944-12.944l-2,2c3.187.001,6.374.018,9.561.056,1.046.012,2.048-.929,2-2-.049-1.094-.879-1.987-2-2Z"/><path class="h" d="M266.568,265.207c-5.088-.046-10.178.212-15.266.216-.978,0-2.14.922-2,2,.574,4.421,1.297,8.827,1.988,13.231.134.854,1.123,1.467,1.929,1.468,5.312.011,10.623.012,15.935,0,1.377-.003,2.175-1.27,1.929-2.532-.842-4.309-1.719-8.611-2.586-12.915-.213-1.059-1.471-1.669-2.46-1.397-1.103.303-1.611,1.398-1.397,2.46.866,4.304,1.744,8.606,2.586,12.915l1.929-2.532c-5.312.012-10.623.011-15.935,0l1.929,1.468c-.348-2.221-.688-4.444-1.025-6.666-.18-1.187-.36-2.374-.536-3.561-.07-.473-.14-.946-.209-1.42-.026-.181-.052-.362-.078-.543-.009-.066-.018-.133-.028-.199-.055-.372.069.525.03.221l-2,2c5.088-.004,10.178-.261,15.266-.216,2.575.023,2.577-3.977,0-4Z"/><path class="h" d="M238.467,242.938l.024.182c-.144-1.072-.8-2-2-2-5.544.002-11.089.076-16.633.08-1.025,0-2.077.917-2,2,.2,2.829.342,5.664.623,8.487.107,1.074.829,2.003,2,2,5.747-.016,11.493-.17,17.24-.163.982.001,2.135-.923,2-2-.359-2.871-.852-5.722-1.254-8.587-.15-1.071-1.515-1.657-2.46-1.397-1.152.317-1.548,1.386-1.397,2.46.352,2.51.797,5.008,1.111,7.523l2-2c-5.747-.007-11.493.146-17.24.163l2,2c-.282-2.823-.423-5.658-.623-8.487l-2,2c5.544-.004,11.089-.078,16.633-.08l-2-2c.039.294.079.588.119.881.147,1.071,1.518,1.656,2.46,1.397,1.155-.317,1.544-1.386,1.397-2.46Z"/><path class="h" d="M146.703,268.448l.057-.417-1.929,1.468c9.493-.002,18.987-.013,28.48-.04l-2-2c-.238,4.553-.412,9.114-.624,13.669l2-2c-8.284.024-16.568.002-24.853-.001-1.548,0-3.096-.001-4.644-.002l2,2c.489-4.227.94-8.46,1.512-12.678.145-1.069-.257-2.147-1.397-2.46-.932-.256-2.314.319-2.46,1.397-.62,4.572-1.124,9.158-1.655,13.741-.125,1.076,1.017,2,2,2,8.274,0,16.547.008,24.821.007,1.559,0,3.117,0,4.676-.004,1.118-.003,1.949-.915,2-2,.212-4.555.386-9.116.624-13.669.056-1.078-.962-2.003-2-2-9.493.027-18.987.038-28.48.04-.781,0-1.811.615-1.929,1.468l-.057.417c-.147,1.069.259,2.147,1.397,2.46.934.257,2.312-.32,2.46-1.397Z"/><path class="h" d="M133.065,236.803c.039-.258.076-.516.11-.775.172-1.257-.492-2.536-1.929-2.532-8.712.026-17.424.033-26.137.044-1.6.002-3.201.004-4.801.005-.873,0-1.702.62-1.929,1.468-1.447,5.406-3.332,10.693-4.648,16.135-.304,1.256.597,2.532,1.929,2.532,9.056,0,18.113.009,27.169.006,1.907,0,3.813,0,5.72-.006.8-.002,1.789-.614,1.929-1.468.841-5.14,1.811-10.259,2.587-15.409.161-1.067-.268-2.15-1.397-2.46-.945-.26-2.298.322-2.46,1.397-.777,5.15-1.746,10.27-2.587,15.409l1.929-1.468c-9.244.027-18.488.006-27.732.002-1.719,0-3.437-.002-5.156-.002l1.929,2.532c1.316-5.442,3.201-10.729,4.648-16.135l-1.929,1.468c8.516-.005,17.031-.022,25.547-.038,1.797-.003,3.594-.007,5.391-.012l-1.929-2.532c-.034.259-.071.517-.11.775-.156,1.067.265,2.149,1.397,2.46.941.259,2.303-.321,2.46-1.397Z"/><path class="h" d="M280.296,281.901c3.451,0,6.902.01,10.353,0,1.046-.003,2.048-.918,2-2s-.879-2.003-2-2c-3.451.01-6.902,0-10.353,0-1.046,0-2.048.92-2,2s.879,2,2,2h0Z"/><path class="h" d="M79.616,290.94c3.451,0,6.902.01,10.353,0,1.046-.003,2.048-.918,2-2s-.879-2.003-2-2c-3.451.01-6.902,0-10.353,0-1.046,0-2.048.92-2,2s.879,2,2,2h0Z"/><path class="h" d="M181.001,290.938c8.276,0,16.552.023,24.828,0,2.573-.007,2.578-4.007,0-4-8.276.023-16.552,0-24.828,0-2.574,0-2.578,4,0,4h0Z"/><path class="h" d="M200.533,233.793c-7.617.027-15.234.111-22.851.118-1.088.001-1.991.916-2,2-.017,2.082-.154,4.162-.162,6.245l2-2c-1.662.004-3.323.041-4.984.044-1.151.002-1.905.919-2,2-.265,3.031-.344,6.076-.566,9.111-.079,1.079.98,2,2,2,8.138,0,16.276.009,24.414.006,1.701,0,3.403,0,5.104-.006,1.038-.003,2.058-.914,2-2-.279-5.175-.696-10.342-.954-15.518-.128-2.562-4.129-2.577-4,0,.258,5.176.676,10.343.954,15.518l2-2c-8.299.026-16.598.005-24.896.002-1.54,0-3.081-.002-4.621-.002l2,2c.222-3.034.301-6.079.566-9.111l-2,2c1.662-.003,3.323-.041,4.984-.044,1.084-.002,1.996-.914,2-2,.008-2.083.145-4.163.162-6.245l-2,2c7.617-.007,15.234-.091,22.851-.118,2.573-.009,2.578-4.009,0-4Z"/><path class="h" d="M129.525,225.462c8.622,0,17.244-.016,25.866-.028,11.91-.017,23.819-.035,35.729-.057,4.339-.008,8.678-.016,13.017-.029,2.573-.008,2.578-4.008,0-4-9.262.028-18.525.039-27.787.054-11.732.019-23.464.036-35.196.05-3.876.005-7.752.01-11.629.01-2.574,0-2.578,4,0,4h0Z"/><path class="h" d="M158.49,240.444c.009-.12.018-.241.027-.361.08-1.078-.981-2.002-2-2-2.735.005-5.469-.062-8.204-.062-1.184,0-1.86.925-2,2-.041.315-.082.63-.124.944-.013.096-.089.619-.041.308.048-.309-.034.253-.048.354-.124.916-.249,1.831-.376,2.747-.308,2.234-.619,4.467-.93,6.7-.092.661-.064,1.197.358,1.744.381.494.936.788,1.571.788,2.962,0,5.924.08,8.886.08,1.147,0,1.91-.92,2-2,.311-3.746.601-7.494.881-11.243.078-1.046-.976-2.046-2-2-1.15.052-1.916.88-2,2-.28,3.749-.569,7.497-.881,11.243l2-2c-2.962,0-5.924-.081-8.886-.08l1.929,2.532c.562-4.038,1.136-8.075,1.661-12.118l-2,2c2.735,0,5.469.067,8.204.062l-2-2c-.009.12-.018.241-.027.361-.078,1.046.975,2.046,2,2,1.15-.052,1.917-.88,2-2Z"/><path class="h" d="M284.63,232.331c4.67,3.595,7.437,9.473,7.488,15.314.022,2.573,4.022,2.579,4,0-.064-7.392-3.642-14.282-9.469-18.768-.857-.659-2.24-.131-2.736.718-.604,1.032-.141,2.075.718,2.736h0Z"/><path class="h" d="M108.179,235.02c-1.263,5.264-2.42,10.555-3.62,15.833-.239,1.052.322,2.165,1.397,2.46,1.007.277,2.22-.339,2.46-1.397,1.201-5.278,2.358-10.569,3.62-15.833.252-1.05-.331-2.167-1.397-2.46-1.017-.28-2.207.342-2.46,1.397h0Z"/><path class="h" d="M118.633,235.335c-.92,5.183-1.938,10.352-2.944,15.519-.206,1.059.3,2.159,1.397,2.46.981.27,2.253-.331,2.46-1.397,1.007-5.167,2.024-10.335,2.944-15.519.189-1.062-.287-2.155-1.397-2.46-.967-.266-2.27.328-2.46,1.397h0Z"/></g><path class="h" d="M1.932,192.883c7.364,0,14.728.033,22.093.034,2.574,0,2.578-4,0-4-7.364-.001-14.728-.033-22.093-.034-2.574,0-2.578,4,0,4h0Z"/><path class="h" d="M120.525,192.639c12.258.002,24.517.111,36.775.152,3.556.012,7.113.021,10.669.021,2.574,0,2.578-4,0-4-13.29-.001-26.58-.096-39.87-.152-2.525-.011-5.049-.021-7.574-.021-2.574,0-2.578,4,0,4h0Z"/><path class="h" d="M225.921,188.813c-9.705-.018-19.411-.006-29.116-.041-2.574-.009-2.578,3.991,0,4,9.705.035,19.411.023,29.116.041,2.574.005,2.578-3.995,0-4h0Z"/><path class="h" d="M246.764,192.833c26.197.018,52.393.038,78.59.058,14.87.011,29.741.024,44.611.034,3.446.002,6.892.006,10.338.006,2.574,0,2.578-4,0-4-8.641,0-17.282-.011-25.923-.017-19.81-.015-39.619-.031-59.429-.045-16.062-.012-32.125-.024-48.187-.035-2.574-.002-2.578,3.998,0,4h0Z"/><path class="h" d="M298.181,95.238c-.04.24-.069.484-.101.724-.013.099-.055.423,0,.014.058-.439,0-.017-.018.073-.024.122-.06.241-.09.361-.095.378.098-.168.053-.1-.059.088-.122.204-.17.301-.129.262.069-.124.12-.144-.036.015-.121.137-.156.174-.058.06-.122.114-.18.174-.245.254.236-.142.024-.011-.688.428-1.428.759-2.145,1.138-1.877.992-3.75,1.993-5.625,2.989-.599.318-1.192.658-1.804.951-.946.454-1.27,1.88-.718,2.736.626.971,1.725,1.203,2.736.718,1.564-.751,3.078-1.629,4.61-2.444.929-.494,1.857-.988,2.787-1.48.742-.392,1.558-.709,2.237-1.198.914-.659,1.581-1.438,1.995-2.49.098-.249.163-.502.209-.765.045-.262.074-.527.108-.79.058-.443-.085.548-.015.132.173-1.028-.27-2.204-1.397-2.46-.967-.22-2.275.294-2.46,1.397h0Z"/><path class="f" d="M335.851,16.373c-4.084-2.979-8.686-5.284-13.643-6.376-4.473-.986-9.121-1.082-13.66-.544-8.699,1.031-17.05,4.469-23.249,10.788-6.8,6.932-9.983,16.741-9.754,26.321.128,5.36.616,10.688.659,16.055.043,5.38-.037,10.762-.23,16.138-.107,2.974-.317,5.919-.627,8.878-.268,2.557-.535,5.166-.227,7.732.592,4.931,3.418,9.261,8.069,11.233.994.421,2.142.298,2.736-.718.491-.839.282-2.312-.718-2.736-3.456-1.466-5.696-4.373-6.127-8.131-.523-4.563.604-9.269.799-13.828.428-10.03.548-20.095-.112-30.115-.302-4.588-.491-9.201.656-13.694,1.084-4.245,2.921-8.423,5.594-11.916,4.777-6.242,12.131-10.056,19.734-11.557,4.504-.889,9.343-1.122,13.883-.346,5.228.894,9.933,3.158,14.198,6.269.873.637,2.23.148,2.736-.718.592-1.012.158-2.098-.718-2.736h0Z"/><path class="f" d="M317.964,90.028c-7.524,3.161-16.244,4.776-23.872.995-3.514-1.742-6.797-4.292-8.901-7.639-2.147-3.415-3.226-7.404-3.76-11.374-.743-5.52-.822-11.138-1.37-16.681-.106-1.075-.843-2-2-2-.999,0-2.107.919-2,2,.53,5.369.674,10.783,1.302,16.14.536,4.566,1.606,9.12,3.901,13.147,4.451,7.808,13.469,12.469,22.315,12.606,5.358.083,10.538-1.274,15.448-3.337.995-.418,1.71-1.323,1.397-2.46-.258-.938-1.458-1.818-2.46-1.397h0Z"/><path class="f" d="M315.572,38.688c1.43,4.422,3.146,9.053,5.783,12.914,2.582,3.779,5.939,7.678,10.137,9.692.973.467,2.16.268,2.736-.718.511-.874.261-2.267-.718-2.736-3.679-1.765-6.626-5.157-8.863-8.495-2.368-3.533-3.918-7.696-5.219-11.72-.789-2.439-4.652-1.396-3.857,1.063h0Z"/><path class="f" d="M315.533,36.5c-10.752,9.278-24.169,15.487-37.962,18.63-2.509.572-1.447,4.429,1.063,3.857,14.482-3.299,28.454-9.931,39.727-19.658,1.952-1.685-.888-4.503-2.828-2.828h0Z"/><path class="f" d="M298.417,84.392c1.623.804,3.479,1.117,5.283,1.044.883-.036,1.792-.146,2.641-.401.99-.297,1.873-.838,2.798-1.282.946-.454,1.27-1.88.718-2.736-.626-.971-1.725-1.203-2.736-.718-.373.179-.736.376-1.104.566-.089.046-.177.091-.267.135-.021.01-.452.204-.151.077.256-.109.008-.006-.047.012-.073.024-.145.05-.218.072-.309.096-.625.168-.944.222-.066.011-.367.055-.048.011s.013-.005-.054.002c-.195.019-.391.033-.588.041-.354.014-.708.011-1.062-.009-.176-.01-.352-.027-.528-.043-.276-.024.045.001.142.023-.084-.019-.171-.026-.256-.04-.349-.059-.695-.137-1.034-.238-.151-.045-.298-.097-.446-.149-.066-.023-.328-.129-.022-.005.328.133-.007-.012-.058-.037-.936-.464-2.208-.282-2.736.718-.477.904-.283,2.24.718,2.736h0Z"/><path class="f" d="M309.606,65.527c-.439-1.544-.056-5.066,2.857-5.304,3.841.106,3.953,4.377,2.617,6.355-1.094,1.62-4.222,2.235-5.474-1.051Z"/><path class="f" d="M286.808,65.707c-.396-1.52-.054-4.984,2.561-5.216,3.449.107,3.554,4.309,2.355,6.254-.981,1.592-3.789,2.196-4.917-1.038Z"/><path class="f" d="M298.13,68.986c-.497.862-.968,1.74-1.392,2.64-.256.543-.474,1.062-.481,1.673-.01.762.321,1.483.901,1.975.438.372.934.697,1.507.817.359.075.721.084,1.082.133.469.063,1.097-.269,1.414-.586.347-.347.608-.916.586-1.414-.023-.517-.193-1.054-.586-1.414l-.405-.313c-.312-.181-.648-.272-1.009-.273-.137-.018-.275-.022-.412-.038l.532.071c-.133-.018-.259-.049-.384-.098l.478.202c-.138-.06-.259-.136-.378-.228l.405.313c-.075-.063-.147-.127-.212-.2l.313.405c-.023-.029-.041-.06-.057-.093l.202.478c-.021-.053-.033-.1-.042-.156l.071.532c-.004-.058-.004-.111,0-.169l-.071.532c.02-.144.062-.277.115-.412l-.202.478c.416-.977.95-1.915,1.48-2.834.26-.451.34-1.038.202-1.541-.128-.464-.486-.967-.919-1.195-.954-.504-2.178-.25-2.736.718h0Z"/><path class="f" d="M339.777,60.917c.797-.495,1.645-.57,2.414-.377.496.125.71.201,1.149.487.333.217-.088-.129.188.157.117.121.233.239.341.369-.292-.351.122.252.202.415.158.321-.103-.475.034.124.05.217.121.427.167.646.133.633.12,1.841.01,2.662-.455,3.404-2.556,7.113-5.885,8.554-.991.429-1.216,1.884-.718,2.736.599,1.024,1.741,1.148,2.736.718,4.796-2.076,7.713-7.903,7.937-12.899.1-2.24-.384-4.719-2.13-6.274-2.277-2.029-5.869-2.385-8.466-.771-2.182,1.356-.176,4.818,2.019,3.454h0Z"/><path class="f" d="M339.173,24.185c4.424,4.195,7.309,9.92,8.84,15.772,1.651,6.311,1.106,12.811.823,19.25-.258,5.88-.074,11.85.736,17.684.427,3.075,1.18,6.06,1.852,9.085.678,3.057,1.209,6.199,1.398,9.327.158,2.624-.288,5.155-2.309,7.003-1.904,1.741.931,4.563,2.828,2.828,4.626-4.229,3.593-10.677,2.7-16.198-.593-3.666-1.625-7.232-2.265-10.887-.937-5.346-1.072-10.946-1.003-16.43.087-6.96.971-13.903-.451-20.797-1.48-7.175-4.963-14.386-10.321-19.467-1.868-1.771-4.701,1.053-2.828,2.828h0Z"/><path class="h" d="M311.079,106.602c-6.042-1.153-11.365-4.151-16.752-6.968-2.279-1.191-4.303,2.259-2.019,3.454,5.672,2.965,11.349,6.158,17.708,7.372,1.06.202,2.158-.297,2.46-1.397.269-.978-.331-2.257-1.397-2.46h0Z"/><path class="h" d="M372.817,120.914c-.693-3.552-2.114-7.007-4.315-9.893-2.023-2.652-4.601-4.396-7.579-5.829-6.655-3.202-13.855-5.159-20.877-7.371-2.461-.775-3.514,3.085-1.063,3.857,6.453,2.033,13.092,3.806,19.25,6.651,2.611,1.207,5.066,2.54,6.893,4.82,2.032,2.536,3.218,5.666,3.834,8.827.492,2.524,4.348,1.456,3.857-1.063h0Z"/><path class="h" d="M353.17,180.048c1.027,3.282,2.42,6.408,3.793,9.557.42.963,1.902,1.255,2.736.718.998-.643,1.167-1.707.718-2.736-.409-.938-.82-1.875-1.226-2.814-.161-.371-.317-.745-.478-1.116.256.591.011.023-.053-.131-.073-.177-.145-.353-.217-.531-.53-1.316-.992-2.655-1.415-4.009-.312-.997-1.408-1.737-2.46-1.397-1.002.324-1.731,1.391-1.397,2.46h0Z"/><path class="h" d="M276.647,130.36c-.025,5.844.059,11.687.252,17.528.115,3.478.194,6.956.605,10.414.852,7.163,1.981,14.298,3.099,21.424.61,3.891,1.235,7.781,1.885,11.666.179,1.066,1.496,1.662,2.46,1.397,1.13-.311,1.576-1.391,1.397-2.46-1.206-7.203-2.34-14.418-3.409-21.643-.931-6.289-1.733-12.468-1.968-18.825-.241-6.498-.349-12.999-.321-19.501.011-2.574-3.989-2.578-4,0h0Z"/><path class="h" d="M259.597,190.84c.743-14.211,1.424-28.426,2.341-42.627.206-3.185.423-6.368.675-9.55.104-1.315.213-2.629.335-3.942.028-.302.06-.603.086-.905.026-.306.055-.582-.004-.136.031-.233.073-.466.113-.697.489-2.857,1.176-5.714,2.204-8.428,1.314-3.47,3.835-6.424,6.609-8.839,1.151-1.002,2.417-1.764,3.732-2.557,2.133-1.285,4.274-2.557,6.435-3.796,4.459-2.557,9.008-4.946,13.635-7.187,2.316-1.122.29-4.572-2.019-3.454-4.191,2.03-8.322,4.177-12.376,6.47-3.467,1.96-7.145,3.85-10.363,6.203-3.113,2.276-6.045,5.325-7.96,8.682-1.671,2.93-2.61,6.309-3.317,9.587-1.054,4.891-1.204,9.969-1.545,14.948-.513,7.485-.936,14.976-1.341,22.468-.429,7.919-.825,15.839-1.239,23.759-.135,2.573,3.866,2.565,4,0h0Z"/><path class="h" d="M246.764,192.833c26.197.018,52.393.038,78.59.058,14.87.011,29.741.024,44.611.034,3.446.002,6.892.006,10.338.006,2.574,0,2.578-4,0-4-8.641,0-17.282-.011-25.923-.017-19.81-.015-39.619-.031-59.429-.045-16.062-.012-32.125-.024-48.187-.035-2.574-.002-2.578,3.998,0,4h0Z"/><path class="h" d="M337.054,123.931c-1.181-1.54-2.342-3.096-3.436-4.698-.641-.938-1.267-1.89-1.826-2.879-.461-.815-.718-1.191-.834-2.003v1.063c.097-.232.67-.721.861-.939.342-.391.679-.786,1.01-1.186.763-.922,1.498-1.87,2.196-2.843,1.145-1.597,2.118-3.3,3.171-4.953,1.962-3.078,2.373-7.07,2.746-10.61.473-4.499.632-9.028.843-13.545.154-3.293.238-7.77-2.907-9.813-2.048-1.33-4.935-.448-6.426,1.339-1.208,1.448-1.741,3.361-2.606,5.012-1.194,2.278,2.257,4.302,3.454,2.019.914-1.743,1.489-5.231,3.967-4.97l-1.009-.273c1.29.58,1.49,2.225,1.569,3.5.126,2.017-.082,4.065-.177,6.08-.221,4.685-.335,9.46-1.189,14.082-.296,1.602-.657,3.279-1.456,4.715-.965,1.735-2.065,3.449-3.206,5.074-1.271,1.811-2.98,3.338-4.187,5.174-1.036,1.574-.319,3.141.473,4.636,1.516,2.862,3.549,5.472,5.515,8.036.656.856,1.721,1.311,2.736.718.842-.493,1.379-1.874.718-2.736h0Z"/><path class="h" d="M331.128,95.915c.623-2.336,1.131-4.706,1.669-7.062.53-2.317,1.365-4.754,1.429-7.143.08-2.969-1.352-6.057-4.794-5.636-2.831.346-4.526,3.009-5.494,5.439-.893,2.242-1.392,4.664-2.118,6.964-.561,1.78-1.168,3.546-1.827,5.292-.345.914-.687,1.923-1.248,2.735-.504.729-1.229,1.37-1.871,1.973-2.718,2.555-5.942,4.61-7.633,8.061-.816,1.665-1.302,3.417-1.073,5.279.228,1.852.904,3.637,1.772,5.28.951,1.801,2.146,3.46,3.101,5.258.54,1.017.882,1.978,1.353,3.324,1.011,2.889,1.928,5.811,2.84,8.732.765,2.449,4.628,1.403,3.857-1.063-1.368-4.378-2.495-9.133-4.69-13.187-1.513-2.795-3.738-5.382-4.257-8.61-.509-3.163,2.386-5.767,4.525-7.594,2.619-2.237,5.228-4.336,6.58-7.592,1.244-2.995,2.24-6.103,3.155-9.211.535-1.817.906-3.795,1.82-5.414.326-.576.828-1.458,1.497-1.666.881-.274.118.012.264-.072.508-.291.17.526-.047-.154.119.372.244.696.279,1.112.179,2.129-.736,4.466-1.205,6.516-.563,2.461-1.091,4.937-1.741,7.377-.664,2.49,3.194,3.552,3.857,1.063h0Z"/><path class="h" d="M368.96,121.977c1.774,13.059.294,26.327-3.271,38.962-1.467,5.2-3.219,11.446-8.012,14.596-1.953,1.284-4.361,2.119-6.716,1.701-2.267-.402-4.377-1.912-6.213-3.221-7.485-5.336-12.248-13.726-16.778-21.534-2.074-3.575-4.067-7.208-5.862-10.933-.32-.665-.634-1.333-.934-2.007-.262-.589-.294-.633-.579-1.412-.125-.341-.185-.739-.332-1.066-.177-.396.02.497.025.143-.002.177-.194.91-.069.507.101-.328-.308.318-.025.038.099-.099.191-.206.291-.305.24-.24.498-.462.758-.68.528-.44,1.007-.783,1.721-1.28,1.866-1.3,3.803-2.499,5.749-3.676,3.852-2.329,7.779-4.528,11.671-6.789l-2.736-.718c4.544,6.204,8.724,12.862,12.368,19.633,1.22,2.268,4.675.25,3.454-2.019-3.644-6.771-7.824-13.429-12.368-19.633-.64-.873-1.722-1.307-2.736-.718-3.754,2.182-7.543,4.304-11.263,6.543-3.191,1.92-6.791,3.848-9.445,6.507-.96.962-1.546,2.012-1.272,3.395.218,1.102.734,2.17,1.179,3.191,1.591,3.654,3.5,7.18,5.446,10.654,2.531,4.519,5.218,8.961,8.143,13.238,2.797,4.09,5.736,7.854,9.657,10.93,2.061,1.617,4.236,3.164,6.64,4.232,2.711,1.204,5.651,1.382,8.494.495,6.124-1.912,9.67-7.348,11.805-13.077,2.724-7.31,4.332-15.181,5.267-22.909.96-7.946.877-15.924-.2-23.852-.146-1.071-1.519-1.656-2.46-1.397-1.156.318-1.543,1.386-1.397,2.46h0Z"/><path class="f" d="M234.754,118.863c.364-.305,1.025-.402,1.378-.346.547.087.984.378,1.19.78.308.601.304,1.377.318,2.043.018.848-.024,1.702-.177,2.537-.311,1.699-.891,3.336-1.814,4.801-.368.584-.858,1.205-1.368,1.615-.116.093-.247.172-.372.253-.496.318.097.002-.203.117-.329.126-.292.081-.667-.019-2.49-.664-3.552,3.193-1.063,3.857,2.933.782,5.236-1.083,6.837-3.366,1.547-2.206,2.385-4.906,2.708-7.558.309-2.541.275-5.727-1.774-7.573-2.266-2.042-5.55-1.868-7.822.031-.829.693-.716,2.112,0,2.828.821.821,1.997.695,2.828,0h0Z"/><path class="f" d="M230.41,130.166c-.053,1.224-.434,2.413-.838,3.562-.075.212-.183.431-.233.65-.073.318.227-.431.056-.137-.139.239-.243.505-.373.75-.798,1.503-1.838,3.05-2.815,4.316-2.511,3.252-5.921,6.656-10.017,7.553-1.055.231-1.672,1.458-1.397,2.46.299,1.089,1.402,1.629,2.46,1.397,5.027-1.102,9.053-5.048,12.096-8.987,2.609-3.377,4.872-7.179,5.062-11.565.112-2.574-3.889-2.568-4,0h0Z"/><path class="f" d="M182.46,116.035c-2.27-1.899-5.558-2.072-7.822-.031-2.112,1.903-2.08,5.204-1.743,7.806.344,2.659,1.24,5.355,2.831,7.539,1.655,2.272,4.111,4.166,7.06,3.516,1.055-.233,1.672-1.458,1.397-2.46-.299-1.088-1.402-1.63-2.46-1.397-.998.22-2.214-1.159-2.845-2.108-.98-1.476-1.596-3.149-1.93-4.883-.158-.823-.214-1.659-.206-2.496.007-.73-.003-1.56.322-2.222.198-.403.64-.682,1.19-.78.35-.063,1.013.041,1.378.346.828.692,2.017.812,2.828,0,.712-.712.832-2.132,0-2.828h0Z"/><path class="f" d="M180.003,129.725c1.04,5.054,3.465,9.793,6.874,13.657,3.605,4.087,8.442,7.475,13.935,8.257,1.068.152,2.148-.262,2.46-1.397.258-.938-.321-2.307-1.397-2.46-9.338-1.33-16.205-10.321-18.015-19.12-.218-1.058-1.468-1.67-2.46-1.397-1.1.302-1.615,1.399-1.397,2.46h0Z"/><path class="f" d="M238.129,116.858c1.302-8.027.527-16.511-3.898-23.516-4.061-6.427-10.619-11.17-17.933-13.203-13.864-3.854-29.432,1.851-36.551,14.547-3.851,6.868-4.29,14.545-3.058,22.175.172,1.067,1.5,1.661,2.46,1.397,1.135-.312,1.57-1.39,1.397-2.46-.927-5.743-.804-11.709,1.638-17.087,2.092-4.608,5.542-8.548,9.766-11.326,11.673-7.676,28.206-5.117,37.099,5.578,5.258,6.323,6.509,14.905,5.223,22.832-.173,1.065.276,2.152,1.397,2.46.954.262,2.286-.325,2.46-1.397h0Z"/><path class="f" d="M220.047,100.54c-2.06.952-4.184,1.75-6.353,2.418-1.004.309-1.921.467-2.949.601-.382.05-.565-.389-.243.117-.136-.214-.216-.528-.315-.779-1.706-4.295-7.643-2.057-10.796-.903-6.488,2.376-11.795,6.726-15.252,12.722-1.288,2.234,2.167,4.251,3.454,2.019,3.208-5.565,8.205-9.463,14.332-11.382.972-.305,1.958-.568,2.954-.787.363-.08.729-.178,1.101-.198.534-.028.652.183.45-.157.417.703.511,1.476,1.105,2.113.604.648,1.47.998,2.324,1.14,1.966.327,3.941-.329,5.79-.931,2.189-.713,4.327-1.573,6.417-2.538.981-.453,1.225-1.868.718-2.736-.589-1.006-1.752-1.172-2.736-.718h0Z"/><path class="f" d="M180.037,119.271c.663.382,1.467.483,2.215.538.625.046,1.289-.044,1.887-.228,1.482-.456,2.709-1.49,3.453-2.846.254-.463.343-1.027.202-1.541-.128-.464-.486-.967-.919-1.195-.937-.495-2.199-.262-2.736.718-.122.223-.258.434-.413.636l.313-.405c-.204.257-.432.488-.69.691l.405-.313c-.246.187-.509.342-.792.467l.478-.202c-.319.133-.649.222-.992.269l.532-.071c-.361.044-.713.031-1.073-.017l.532.071c-.254-.036-.51-.081-.749-.174l.478.202c-.038-.017-.074-.034-.11-.055-.452-.26-1.037-.34-1.541-.202-.464.128-.967.486-1.195.919-.504.954-.251,2.178.718,2.736h0Z"/><path class="f" d="M226.795,116.154c.035.983.359,1.835,1.01,2.571.309.35.721.637,1.147.83.806.365,1.661.566,2.553.49.475-.041.959-.107,1.421-.232.491-.133.96-.337,1.424-.543.429-.19.8-.763.919-1.195.132-.479.072-1.116-.202-1.541-.275-.427-.685-.803-1.195-.919l-.532-.071c-.361.001-.697.092-1.009.273-.052.024-.104.046-.157.068l.478-.202c-.479.198-.974.343-1.489.413l.532-.071c-.341.041-.68.047-1.021.004l.532.071c-.221-.033-.434-.087-.642-.17l.478.202c-.195-.084-.381-.181-.552-.308l.405.313c-.119-.093-.226-.196-.321-.313l.313.405c-.084-.11-.153-.226-.211-.352l.202.478c-.062-.148-.103-.299-.13-.458l.071.532c-.012-.091-.019-.182-.022-.273-.019-.524-.21-1.039-.586-1.414-.347-.347-.916-.608-1.414-.586-.517.023-1.054.193-1.414.586-.352.383-.605.88-.586,1.414h0Z"/><path class="f" d="M218.837,105.462c.135.038.268.081.4.128.288.103-.4-.215.101.051.256.136.51.274.756.428.282.176.555.366.822.564.29.215-.337-.283.138.11.098.081.195.161.292.243.491.419.942.871,1.372,1.352.488.546.774.895,1.12,1.373.77,1.065,1.442,2.202,1.983,3.4.022.05.19.452.076.169.05.123.099.247.146.372.117.309.225.621.323.936.195.622.348,1.255.47,1.895.196,1.03,1.49,1.711,2.46,1.397,1.1-.356,1.606-1.357,1.397-2.46-.554-2.919-1.871-5.705-3.656-8.071-1.805-2.393-4.154-4.895-7.137-5.742-1.006-.286-2.222.35-2.46,1.397-.242,1.064.32,2.154,1.397,2.46h0Z"/><path class="f" d="M202.036,141.114c1.409,1.379,3.579,1.831,5.482,1.829s4.073-.449,5.483-1.829c.749-.733.79-2.103,0-2.828-.805-.739-2.029-.782-2.828,0-.077.075-.35.292-.016.034.348-.268-.005-.006-.102.054-.105.065-.214.125-.325.18-.011.006-.226.105-.226.106-.005-.025.546-.207.184-.083-.355.122-.711.227-1.081.296-.06.011-.12.022-.18.031-.154.024-.081.016.218-.027-.074-.031-.254.027-.332.034-.264.022-.529.032-.794.033-.242,0-.485-.008-.727-.027-.131-.01-.27-.037-.401-.04.169.003.412.062.098.006-.372-.067-.74-.161-1.096-.29-.16-.058-.417-.219.14.066-.062-.032-.127-.058-.189-.088-.123-.06-.244-.126-.36-.198-.089-.055-.172-.121-.261-.176.589.37.301.244.143.089-.748-.733-2.092-.802-2.828,0-.726.791-.799,2.046,0,2.828h0Z"/><path class="f" d="M206.438,129.775c.219.835.429,1.683.555,2.538l-.071-.532c.015.117.021.233.01.35l.071-.532c-.008.055-.02.106-.039.158l.202-.478c-.016.037-.033.068-.056.101l.313-.405c-.026.032-.051.056-.083.082l.405-.313c-.064.041-.132.074-.201.106l.478-.202c-.111.046-.22.08-.339.099l.532-.071c-.107.013-.211.012-.318,0l.532.071c-.12-.017-.238-.046-.358-.062-.266-.083-.532-.095-.798-.036-.266.012-.514.091-.744.237-.415.243-.811.718-.919,1.195-.117.512-.091,1.087.202,1.541l.313.405c.25.248.544.419.883.514.335.045.66.128,1.001.143.556.024,1.061-.152,1.554-.381.624-.29,1.117-.891,1.283-1.561.142-.576.086-1.025-.012-1.603-.138-.818-.327-1.628-.537-2.43-.127-.483-.49-.944-.919-1.195s-1.061-.357-1.541-.202c-.484.157-.951.457-1.195.919-.253.48-.342,1.007-.202,1.541h0Z"/><path class="f" d="M193.842,122.919c-.414,1.347-.144,4.444,2.407,4.708,3.372-.02,3.551-3.765,2.416-5.526-.929-1.442-3.662-2.041-4.823.818Z"/><path class="f" d="M220.732,122.919c.414,1.347.144,4.444-2.407,4.708-3.372-.02-3.551-3.765-2.416-5.526.929-1.442,3.662-2.041,4.823.819Z"/><path class="h" d="M184.65,180.574c-.749-4.273-1.573-8.535-2.271-12.817-.169-1.036-1.509-1.705-2.46-1.397-1.122.363-1.578,1.35-1.397,2.46.698,4.282,1.522,8.544,2.271,12.817.181,1.033,1.5,1.708,2.46,1.397,1.112-.36,1.591-1.353,1.397-2.46h0Z"/><path class="h" d="M188.462,142.774c-7.853,1.831-17.311,4.489-21.19,12.282-3.496,7.023-3.888,15.352-4.425,23.038-.132,1.899-.511,3.941-.307,5.837.254,2.358,1.117,4.695,2.308,6.74,1.295,2.224,4.753.212,3.454-2.019-.867-1.488-1.615-3.257-1.79-4.983-.153-1.508.166-3.153.272-4.662.246-3.521.475-7.05.951-10.549.47-3.457,1.135-6.993,2.466-10.233,1.251-3.044,3.164-5.211,6.003-6.869,4.082-2.385,8.75-3.658,13.322-4.724,2.506-.584,1.445-4.442-1.063-3.857h0Z"/><path class="h" d="M173.562,192.704c.265,1.344.623,2.672,1.015,3.984.272.91.512,1.907,1.007,2.725.488.807,1.222,1.537,2.088,1.929,1.851.836,4.225.647,5.609-.974.493-.578.903-1.271,1.058-2.024.163-.789.056-1.504-.016-2.298-.147-1.605-.268-3.218-.517-4.811-.072-.463-.533-.969-.919-1.195-.429-.251-1.061-.357-1.541-.202-.484.157-.951.457-1.195.919-.267.505-.289.98-.202,1.541.013.083.024.167.037.25-.122-.781-.043-.322-.02-.138.029.24.056.48.081.72.065.617.122,1.234.179,1.852.074.798.193,1.608.222,2.409.002.053-.003.108,0,.161.013.206.142-.647.028-.242-.023.082-.041.164-.068.245-.145.443.2-.35.053-.113-.061.099-.117.204-.175.304-.194.33.342-.354.056-.079-.06.058-.398.347-.091.108.311-.241-.128.035-.193.09.308-.255.383-.132.15-.072-.069.018-.136.04-.206.056-.447.102.443-.014-.054,0-.078.002-.643-.032-.261.006.327.033.076.006-.01-.015-.089-.021-.175-.052-.263-.076-.366-.098.341.193.133.057-.058-.038-.125-.065-.185-.101-.06-.035-.115-.079-.175-.113-.209-.117.323.296.16.122-.089-.095-.194-.201-.291-.289-.176-.159.239.372.122.166-.05-.088-.115-.168-.166-.256-.038-.065-.266-.522-.099-.169.15.315.031.054.004-.024-.034-.1-.066-.2-.099-.3-.141-.432-.276-.866-.406-1.302-.383-1.289-.733-2.594-.994-3.914-.203-1.028-1.485-1.712-2.46-1.397-1.094.354-1.615,1.359-1.397,2.46h0Z"/><path class="h" d="M180.872,199.647c.618,1.15,1.523,2.043,2.768,2.48,1.373.482,3.028.286,4.299-.385,1.142-.603,1.927-1.664,2.387-2.843.398-1.02.242-2.184.185-3.25-.066-1.241-.157-2.484-.292-3.719-.06-.546-.183-1.012-.586-1.414-.347-.347-.916-.608-1.414-.586-.986.044-2.122.886-2,2,.133,1.212.222,2.43.289,3.648.037.673.054,1.346.074,2.02.011.374.119-.541.039-.255-.024.084-.039.17-.065.254-.074.24-.239.308.071-.133-.051.073-.082.172-.126.251-.048.087-.103.168-.154.253-.166.273.368-.422.04-.053-.083.094-.175.176-.263.264-.228.227.447-.294.017-.018-.106.068-.266.115-.358.197l.282-.119c-.068.026-.137.049-.207.07-.072.022-.145.041-.218.057-.211.04-.15.036.184-.013-.132-.042-.391.029-.536.028-.085,0-.17-.003-.254-.008-.222-.02-.162-.01.181.031-.116-.051-.29-.07-.415-.101-.356-.088.404.222.117.052-.104-.062-.208-.136-.313-.193.496.268.23.185.07.019-.147-.152-.266-.456.03.064-.119-.209-.262-.404-.376-.617-.496-.923-1.851-1.288-2.736-.718-.937.604-1.248,1.749-.718,2.736h0Z"/><path class="h" d="M187.131,198.546c1.243,2.19,4.34,3.036,6.542,1.765,2.348-1.355,2.906-4.158,2.986-6.654.076-2.38.095-5.283-.897-7.49-.893-1.989-2.898-3.381-4.709-4.497-2.199-1.356-4.699-2.065-7.284-1.79-2.539.27-5.047.81-7.508,1.482-3.859,1.054-9.808,2.5-9.94,7.494-.042,1.573.552,3.31,1.109,4.765.502,1.312,1.136,2.614,2.121,3.638,2.148,2.231,5.516,2.041,7.481-.363,1.616-1.977-1.198-4.823-2.828-2.828-.917,1.122-1.496.952-2.243-.203-.448-.692-.743-1.445-.992-2.227-.261-.82-.749-1.908-.649-2.783.06-.525.422-.997.823-1.322.419-.34,1.094-.636,1.375-.751,1.389-.569,2.838-1.009,4.281-1.417,1.728-.489,3.477-.91,5.245-1.226,1.646-.294,3.271-.522,4.898-.014,1.339.418,2.531,1.234,3.641,2.073,1.161.878,1.734,1.667,1.887,3.121.198,1.876.397,3.935.061,5.803-.105.584-.312,1.464-.867,1.735-.235.115-.868.046-1.081-.329-1.27-2.239-4.727-.226-3.454,2.019h0Z"/><path class="h" d="M219.256,210.249c-1.605.731-3.208,1.465-4.788,2.25-1.428.709-3.093,1.364-4.194,2.55-1.503,1.619-1.769,4.047-.478,5.889,1.159,1.655,3.021,2.675,5.053,2.689,1.046.007,2.048-.925,2-2-.049-1.09-.879-1.993-2-2-.093.001-.185-.001-.277-.007-.224-.021-.184-.013.119.023-.029.033-.373-.083-.405-.092-.106-.03-.286-.126-.394-.134.264.114.297.123.099.029-.062-.031-.123-.065-.182-.1-.118-.069-.323-.156-.405-.266l.188.14c-.07-.06-.138-.122-.204-.186-.048-.046-.278-.225-.281-.303.169.227.191.252.066.076-.051-.076-.099-.154-.144-.233-.053-.094-.237-.482-.042-.055-.212-.463.042.349-.038-.142.013-.234.003-.228-.03.02.014-.086.032-.171.055-.255.02-.085.044-.17.071-.253-.128.26-.15.31-.066.149l.055-.088c.116-.165.082-.124-.1.121.024.006.22-.246.261-.288.083-.085.33-.238.37-.343-.048.126-.392.247-.077.08,2.562-1.352,5.151-2.616,7.788-3.817.955-.435,1.262-1.892.718-2.736-.636-.986-1.715-1.183-2.736-.718h0Z"/><path class="h" d="M213.262,220.907c-1.42,2.393-2.803,4.808-4.152,7.242-.675,1.219-1.342,2.442-1.995,3.673-.639,1.205-1.458,2.469-1.776,3.805-.656,2.751,1.456,5.846,4.352,5.99,2.994.148,4.915-2.43,6.693-4.432,2.128-2.397,4.058-4.952,5.754-7.672,1.366-2.191-2.093-4.201-3.454-2.019-1.546,2.478-3.279,4.788-5.222,6.968-.52.584-1.05,1.159-1.584,1.731-.284.304-.56.621-.859.911-.163.145-.171.163-.025.054-.115.082-.235.157-.358.227-.202.113-.246.149-.576.217-.25.061-.299.068-.147.02-.256-.004-.299-.006-.129-.005.289.268-.238-.248-.265-.276-.185-.2-.141-.108-.289-.381-.068-.128-.068-.116-.002.037-.055-.234-.069-.242-.04-.023-.009-.132-.007-.263.006-.394-.01.187.01.15.06-.111.198-.581.522-1.12.805-1.663.699-1.339,1.417-2.669,2.146-3.992,1.461-2.653,2.963-5.282,4.508-7.887,1.316-2.219-2.14-4.234-3.454-2.019h0Z"/><path class="h" d="M232.8,217.742c-.395,2.919-.636,5.862-1.226,8.749-.278,1.358-.638,2.697-1.092,4.006-.132.379-.273.753-.416,1.128-.041.107-.297.67-.056.174-.089.183-.183.357-.282.535.265-.474-.33.265.028.002-.106.073-.216.138-.331.195.156-.067.109-.057-.139.029-.296.058-.323.073-.08.045-.085.005-.17.006-.255.003-.099-.004-.198-.011-.296-.022.26.038.269.038.027,0-.246-.049-.493-.093-.739-.146-.776-.17-1.538-.415-2.318-.565-.607-.117-1.139-.043-1.75-.037-.287.003-.573-.005-.859-.032.425.04-.258-.068-.343-.089-.104-.03-.207-.063-.308-.101.232.103.246.107.042.011-.184-.115-.383-.21-.567-.327-.437-.279-.85-.595-1.269-.9-.873-.637-2.23-.148-2.736.718-.592,1.012-.158,2.098.718,2.736,1.621,1.182,3.139,1.984,5.206,1.984.25,0,.5-.01.75-.025.076-.005.364.017.419-.03.106-.089-.343.034-.367-.05.017.059.814.199.872.213.808.206,1.617.416,2.443.539,2.201.328,4.486-.421,5.524-2.53,1.018-2.067,1.639-4.408,2.082-6.658.552-2.805.791-5.659,1.174-8.488.145-1.069-.257-2.147-1.397-2.46-.932-.256-2.314.319-2.46,1.397h0Z"/><path class="h" d="M227.741,167.821c-.369,7.509-.793,15.039-2.736,22.335-1.832,6.878-4.901,13.287-7.578,19.855-.419,1.027.465,2.166,1.397,2.46,3.707,1.169,7.391,2.413,11.067,3.676,2.316.795,4.689,1.52,6.954,2.457,1.059.438,2.123-.489,2.46-1.397,3.415-9.186,7.24-18.312,9.182-27.962,1.046-5.196,1.502-10.592,1.399-15.889-.105-5.396-.95-10.764-3.821-15.431-3.06-4.974-7.774-8.637-12.856-11.378v3.454l.004-.002c1.328-.609,1.287-2.832,0-3.454-2.437-1.178-4.96-2.155-7.481-3.135-1.007-.391-2.195.431-2.46,1.397-.311,1.131.386,2.067,1.397,2.46,2.201.855,4.399,1.703,6.526,2.732v-3.454l-.004.002c-1.371.628-1.238,2.786,0,3.454,4.095,2.208,8.039,5.009,10.724,8.877,2.889,4.16,3.81,8.906,3.957,13.887s-.209,10.032-1.144,14.917c-.964,5.035-2.538,9.958-4.197,14.801-1.575,4.601-3.39,9.103-5.084,13.66l2.46-1.397c-2.264-.937-4.638-1.662-6.954-2.457-3.676-1.262-7.36-2.506-11.067-3.676l1.397,2.46c2.732-6.706,5.863-13.245,7.69-20.281,1.947-7.497,2.388-15.267,2.767-22.973.127-2.573-3.874-2.566-4,0h0Z"/><path class="h" d="M223.917,230.707c-.135.279-.284.552-.432.824-.157.288-.31.591-.509.853l.313-.405c-.006.007-.011.014-.017.021-.195.181-.333.396-.414.644-.125.238-.183.495-.172.771-.01.275.047.532.172.771.081.248.219.463.414.644l.405.313c.312.181.648.272,1.009.273l.532-.071c.339-.095.633-.266.883-.514.196-.241.372-.471.529-.734.1-.167.196-.338.289-.509.156-.284.311-.569.452-.861.146-.23.225-.477.237-.744.06-.266.048-.532-.036-.798-.062-.26-.181-.487-.358-.68-.141-.218-.328-.389-.561-.515l-.478-.202c-.354-.095-.709-.095-1.063,0l-.478.202c-.301.178-.54.417-.718.718h0Z"/><path class="h" d="M201.633,156.605c4.274,1.6,9.043,1.254,13.142-.673.95-.446,1.267-1.885.718-2.736-.63-.977-1.721-1.195-2.736-.718-.12.057-.24.113-.361.167.174-.07.15-.06-.072.029-.186.071-.371.142-.559.207-.438.152-.883.284-1.334.394s-.906.201-1.365.266c.381-.055-.385.035-.456.041-.231.019-.463.031-.695.039-.464.016-.928.01-1.392-.017-.232-.014-.462-.037-.694-.056-.243-.029-.263-.03-.06-.003-.098-.014-.197-.03-.295-.046-.95-.158-1.876-.414-2.778-.751-.982-.367-2.235.408-2.46,1.397-.259,1.136.346,2.067,1.397,2.46h0Z"/><path class="h" d="M134.296,128.026c-5.402,19.992-9.399,40.334-12.029,60.874-.137,1.073,1.018,2,2,2,1.195,0,1.862-.924,2-2,2.584-20.179,6.58-40.172,11.886-59.81.672-2.488-3.185-3.55-3.857-1.063h0Z"/><path class="h" d="M44.488,171.416c9.552,2.484,19.239,4.442,28.875,6.564,2.509.553,3.58-3.303,1.063-3.857-9.636-2.123-19.323-4.081-28.875-6.564-2.493-.648-3.557,3.209-1.063,3.857h0Z"/><path class="h" d="M57.483,130.409c-3.922,12.475-7.241,25.123-10.924,37.668-.727,2.475,3.132,3.532,3.857,1.063,3.683-12.545,7.002-25.193,10.924-37.668.774-2.461-3.087-3.515-3.857-1.063h0Z"/><path class="h" d="M126.945,91.629c4.125.898,8.328,2.088,11.673,4.787,3.383,2.729,5.943,6.551,7.591,10.546,2.292,5.559,2.89,11.737,3.384,17.663,1.215,14.57,1.034,29.259.841,43.866-.087,6.593-.244,13.186-.247,19.779-.001,2.574,3.999,2.578,4,0,.005-13.535.458-27.065.32-40.602-.076-7.436-.266-14.881-.854-22.296-.495-6.252-1.064-12.807-3.293-18.721-1.797-4.77-4.587-9.3-8.454-12.674-3.947-3.445-8.856-5.11-13.898-6.207-2.509-.546-3.581,3.309-1.063,3.857h0Z"/><path class="h" d="M74.64,88.08c4.653,7.079,10.782,13.933,18.996,16.784,4.306,1.495,9.342,1.822,13.588-.033,4.072-1.779,7.408-5.189,10.168-8.586.68-.838.819-2.009,0-2.828-.703-.703-2.144-.843-2.828,0-2.409,2.966-5.197,5.943-8.677,7.647-3.574,1.75-8.02,1.12-11.617-.211-6.949-2.571-12.219-8.772-16.175-14.791-1.408-2.142-4.873-.141-3.454,2.019h0Z"/><path class="h" d="M76.898,88.999c1.456-.412,2.996-.8,4.303-1.591,1.382-.836,2.375-2.098,3.21-3.458.548-.893.223-2.239-.718-2.736-.976-.516-2.151-.235-2.736.718-.248.404-.509.799-.796,1.176l.313-.405c-.343.443-.723.852-1.164,1.199l.405-.313c-.434.334-.911.595-1.414.81l.478-.202c-.951.399-1.954.664-2.944.944-1.006.285-1.731,1.427-1.397,2.46.332,1.025,1.382,1.702,2.46,1.397h0Z"/><path class="h" d="M112.616,185.748c3.648,3.828,7.872,7.733,10.143,12.603.097.208.282.751.389,1.135.058.208.152.523.16.678.008.169.012.18-.089.356.095-.164-.166.154-.183.171-.125.132-.254.244-.411.332-.291.164-.361.142-.663.035-1.965-.701-3.458-3.03-4.83-4.534-1.963-2.152-4.108-4.053-6.431-5.811-.862-.652-2.237-.137-2.736.718-.6,1.026-.147,2.083.718,2.736,2.229,1.687,4.219,3.62,6.084,5.697,1.929,2.147,4.036,4.923,7.134,5.232,3.245.324,5.873-2.889,5.276-5.98-.556-2.878-2.413-5.46-4.161-7.737-2.309-3.009-4.958-5.718-7.571-8.46-1.779-1.867-4.605.964-2.828,2.828h0Z"/><path class="h" d="M81.488,181.978c6.24-.185,12.383-1.417,18.612-1.708,1.415-.066,2.852-.102,4.266.014.996.081,1.895.557,2.757,1.039,2.055,1.149,3.961,2.632,5.494,4.425,1.675,1.96,4.493-.881,2.828-2.828s-3.784-3.584-5.982-4.867c-1.069-.624-2.246-1.231-3.448-1.552-1.452-.388-3.119-.303-4.612-.275-6.671.127-13.244,1.555-19.915,1.752-2.568.076-2.579,4.076,0,4h0Z"/><path class="h" d="M109.152,194.102c.141.744.294,1.486.415,2.234.026.158.05.316.072.474-.058-.42-.002.029.014.195.037.381.06.764.071,1.147.013.454.01.907-.003,1.361-.005.183-.014.365-.024.547-.024.454.079-.254-.015.079-.039.138-.075.279-.111.418-.084.331.006.004.041-.066-.034.066-.063.136-.102.199-.053.087-.304.382-.141.234.189-.172-.02.004-.048.027-.181.146-.095.044.033-.015-.069.032-.153.082-.216.125-.212.144.258-.033-.012-.004-.078.008-.189.044-.264.069.034-.011.319-.013.082-.008-.182.004-.364-.001-.545.001-.229.003.038.001.079.012-.116-.031-.238-.061-.355-.087-.064-.014-.363-.129-.037.01-.084-.036-.165-.08-.245-.123-.081-.044-.158-.091-.237-.138-.019-.011-.253-.189-.093-.058.119.097-.204-.213-.264-.277-.15-.159,0,.009.024.042-.075-.104-.145-.214-.212-.323-.121-.199-.226-.406-.329-.614-.102-.205-.017-.024,0,.018-.038-.091-.072-.185-.105-.278-.159-.44-.267-.892-.378-1.345-.215-.88-.429-1.76-.675-2.632-.579-2.045-1.381-4.036-2.544-5.821-.57-.876-1.798-1.322-2.736-.718-.874.564-1.328,1.799-.718,2.736.294.451.57.912.821,1.388.112.213.22.429.322.647.058.123.114.247.169.371-.087-.195-.003-.011.033.081.384.968.689,1.963.958,2.968.585,2.193.945,4.465,2.482,6.24,1.6,1.847,4.365,2.383,6.564,1.404,2.01-.895,2.739-3.072,2.797-5.112.062-2.202-.306-4.32-.713-6.474-.195-1.03-1.491-1.711-2.46-1.397-1.1.356-1.605,1.356-1.397,2.46h0Z"/><path class="h" d="M103.448,201.928c-.017.074-.188.538-.051.247-.085.181-.197.352-.31.517.176-.257-.147.174-.191.223-.066.072-.51.432-.286.302.351-.204-.444.201-.113.049.228-.105-.263.079-.326.096-.071.019-.592.088-.318.075.293-.014-.237-.024-.283-.012-.155-.01-.098-.002.171.024-.081-.016-.16-.035-.24-.056-.2-.059-.399-.116-.595-.189.32.12-.108-.057-.194-.104-.098-.054-.492-.358-.16-.063-.056-.05-.269-.203-.269-.274l.159.203c-.053-.075-.103-.152-.151-.231-.168-.273-.298-.562-.438-.85.186.381-.066-.165-.08-.202-.072-.186-.141-.373-.207-.56-.144-.405-.278-.814-.408-1.224-.282-.892-.532-1.792-.805-2.686-.567-1.859-1.354-3.665-2.354-5.332-.538-.897-1.821-1.307-2.736-.718-.902.582-1.293,1.776-.718,2.736.304.508.591,1.024.853,1.555.098.199.193.399.285.601.061.135.121.27.179.406-.06-.136-.043-.09.051.138.377.999.68,2.015.984,3.038.539,1.816,1.041,3.898,2.167,5.453,1.277,1.763,3.635,2.593,5.751,2.221,2.138-.376,4.007-2.197,4.491-4.318.232-1.018-.312-2.213-1.397-2.46-1.018-.232-2.211.306-2.46,1.397h0Z"/><path class="h" d="M95.892,202.409c-.168.745-1.153,1.094-1.817.733-.839-.456-1.181-1.703-1.665-2.461-.577-.903-1.233-1.973-2.149-2.566-1.028-.665-2.269-.653-3.435-.453-1.113.191-2.093.728-3.14,1.117-.296.11-.59.196-.894.281l-.316.068c.116-.01.127-.012.032-.009-.125.006-.887-.075-.569-.029-.825-.119-1.644-.306-2.454-.503-.384-.093-.767-.191-1.147-.3-.245-.07-.984-.397-.231-.034-.972-.469-2.161-.266-2.736.718-.512.876-.259,2.265.718,2.736,1.51.728,3.344,1.03,4.987,1.269,1.183.172,2.226.149,3.382-.237,1.212-.405,2.284-.983,3.546-1.208.266-.047.356.036.08-.067-.29-.108.046.068.031.037.249.518.718.979,1.014,1.48.773,1.31,1.412,2.589,2.715,3.47,2.771,1.873,7.154.353,7.904-2.98.564-2.507-3.291-3.578-3.857-1.063h0Z"/><path class="h" d="M77.376,85.344c-1.52-.772-3.349-.41-4.944-.101-2.433.471-4.817,1.223-7.16,2.016-5.676,1.921-11.593,4.131-16.724,7.266-5.227,3.194-9.923,7.463-13.24,12.627-3.484,5.423-5.601,11.29-7.684,17.348-4.144,12.049-7.498,24.271-9.493,36.869-.563,3.554-1.019,7.121-1.468,10.691-.425,3.377-.798,6.764-.314,10.156.445,3.123,1.763,6.03,4.086,8.202,2.127,1.989,4.725,3.446,7.379,4.607,2.994,1.31,6.096,2.204,9.245,3.062,4.334,1.181,8.704,2.227,13.094,3.175,7.768,1.678,15.599,3.026,23.434,4.349,1.36.23,2.407-.543,2.532-1.929.759-8.439,2.585-17.066,6.542-24.62,1.193-2.278-2.258-4.303-3.454-2.019-4.302,8.213-6.263,17.466-7.088,26.639l2.532-1.929c-13.778-2.326-27.638-4.715-41.025-8.804-2.268-.693-4.472-1.586-6.552-2.727-2.15-1.178-4.322-2.627-5.56-4.805-1.523-2.679-1.527-5.943-1.319-8.929.224-3.223.697-6.446,1.141-9.644,1.695-12.214,4.506-24.161,8.334-35.88,1.801-5.514,3.443-11.29,6.064-16.478,1.327-2.627,2.817-5.241,4.597-7.592,1.65-2.179,3.737-4.059,5.845-5.784,5.023-4.109,11.087-6.67,17.123-8.915,2.688-1,5.415-1.926,8.195-2.638.588-.151,1.178-.291,1.773-.412.226-.046.452-.086.678-.129.073-.014.67-.103.288-.053.392-.051.785-.038,1.176-.078.522-.054-.038.1-.023-.031.011-.095.876.4-.025-.058,2.29,1.163,4.317-2.287,2.019-3.454h0Z"/><path class="g" d="M77.371,13.218c-5.412,4.15-8.336,9.192-10.526,15.472-1.099,3.162-1.722,6.475-1.805,9.813-.088,3.594-.582,12.026,1.663,16.759"/><path class="g" d="M83.971,9.191c8.89-5.153,16.756-5.876,24.452-4.781,12.195,1.735,21.613,7.372,27.503,15.754,3.401,4.84,5.543,11.617,6.059,17.528.484,5.554-.267,13.815-2.305,20.539"/><path class="f" d="M106.786,61.161c.586-1.64.422-5.48-2.714-5.946-4.165-.16-4.592,4.455-3.287,6.692,1.068,1.831,4.41,2.722,6.001-.746Z"/><path class="f" d="M131.472,63.035c.547-1.648.423-5.498-2.447-5.944-3.815-.133-4.237,4.497-3.056,6.731.967,1.829,4.023,2.7,5.503-.788Z"/><path class="f" d="M115.138,67.62c.371.754.723,1.519,1.051,2.293l-.202-.478c.157.375.344.765.415,1.166l-.071-.532c.011.084.015.165.01.249l.071-.532c-.009.061-.02.113-.04.17l.202-.478c-.014.036-.033.07-.055.102l.313-.405c-.062.078-.136.137-.214.198l.405-.313c-.118.086-.238.16-.371.22l.478-.202c-.125.051-.25.086-.383.107l.532-.071c-.197.025-.395.013-.593.026-.534.036-1.027.199-1.414.586-.347.347-.608.916-.586,1.414.023.517.193,1.054.586,1.414.376.345.887.621,1.414.586.386-.026.734-.031,1.125-.098.44-.075.87-.27,1.232-.529.377-.269.736-.547.961-.965.212-.394.344-.842.341-1.293-.003-.462-.104-.885-.268-1.308-.441-1.138-.945-2.255-1.484-3.35-.212-.431-.745-.795-1.195-.919-.479-.132-1.116-.072-1.541.202-.427.275-.803.685-.919,1.195-.124.546-.046,1.038.202,1.541h0Z"/><path class="f" d="M76.798,51.124c-2.457-1.931-5.992-2.363-8.728-.66-2.173,1.352-3.038,3.683-3.332,6.122-.655,5.432,1.796,11.353,6.178,14.637,2.364,1.772,6.129,2.602,8.936,1.577,1.014-.37,1.7-1.358,1.397-2.46-.269-.978-1.441-1.769-2.46-1.397-2.097.765-4.627-.063-6.201-1.486-1.797-1.624-2.957-3.825-3.533-5.968-.546-2.033-.803-5.031.297-6.792.075-.121.149-.241.232-.357-.285.394.182-.171.257-.239.133-.122.509-.359.882-.488,1.001-.346,2.374-.347,3.247.339.848.667,2.001.828,2.828,0,.693-.693.854-2.157,0-2.828h0Z"/><path class="f" d="M115.253,78.229c-.313.126-.634.228-.962.305-.166.039-.333.073-.501.102-.146.025-.436.007.075-.004-.088.002-.179.021-.268.029-.787.075-1.573.055-2.359-.021-.274-.026.014-.016.119.018-.083-.027-.185-.029-.271-.044-.178-.031-.355-.066-.53-.107-.357-.082-.706-.188-1.05-.313-.181-.066-.263-.209.085.039-.068-.049-.164-.077-.238-.116-.184-.095-.362-.199-.539-.306-.426-.257-.841-.531-1.272-.78-.906-.524-2.23-.24-2.736.718s-.25,2.177.718,2.736c.934.54,1.795,1.123,2.805,1.522.889.351,1.828.504,2.773.617,1.705.204,3.611.11,5.216-.538.502-.203.911-.434,1.195-.919.251-.429.357-1.061.202-1.541-.302-.934-1.421-1.816-2.46-1.397h0Z"/><path class="f" d="M87.333,83.104c-1.293-1.559-2.53-2.987-3.628-4.561-.912-1.308-1.775-2.667-2.531-4.073-.252-.469-.495-.943-.733-1.419-.146-.292-.289-.585-.427-.88-.068-.144-.131-.29-.199-.434-.164-.347.13.34-.076-.182-.382-.97-1.357-1.754-2.46-1.397-.942.305-1.807,1.418-1.397,2.46,1.966,4.995,5.226,9.22,8.623,13.313.671.808,2.144.746,2.828,0,.789-.859.715-1.966,0-2.828h0Z"/><path class="f" d="M138.614,55.068c-1.104,5.206-1.928,10.465-2.997,15.677-.852,4.155-2.133,8.274-4.386,11.896-4.623,7.431-13.673,11.205-22.231,10.495-5.306-.44-10.261-2.434-14.873-5.004-2.251-1.254-4.27,2.199-2.019,3.454,8.846,4.929,19.432,7.663,29.214,3.793,4.397-1.74,8.56-4.384,11.517-8.12,2.873-3.631,4.719-7.925,5.913-12.376,1.647-6.141,2.401-12.532,3.72-18.75.533-2.511-3.323-3.584-3.857-1.063h0Z"/><path class="f" d="M81.295,11.889c5.159-4.839,11.864-7.148,18.831-7.715,6.29-.512,12.474.044,18.365,2.405,10.753,4.311,19.1,13.983,21.686,25.275,1.718,7.502.452,15.312-1.469,22.65-.652,2.492,3.205,3.556,3.857,1.063,1.908-7.287,3.125-14.951,1.92-22.454-1.027-6.399-3.807-12.441-7.773-17.544-3.912-5.034-9.036-9.169-14.829-11.848C115.628.828,108.96-.257,102.096.05c-8.733.391-17.15,2.933-23.629,9.01-1.882,1.765.951,4.589,2.828,2.828h0Z"/><path class="f" d="M68.681,50.824c-1.269-4.148-1.972-8.28-1.696-12.626.209-3.278.605-6.551,1.48-9.724,1.371-4.968,4.138-8.917,7.962-12.317,1.928-1.714-.91-4.535-2.828-2.828-4.316,3.838-7.446,8.485-8.99,14.082-2.219,8.04-2.224,16.507.215,24.476.751,2.454,4.613,1.408,3.857-1.063h0Z"/><path class="h" d="M141.369,38.265c-5.48,2.438-11.58,3.997-17.519,4.779-2.746.362-5.522.623-8.292.429-.821-.058-1.652-.135-2.461-.295-.169-.027-.334-.066-.497-.115-.576-.207-.449.207.381,1.242-.074.026.04-.082.148-.165.934-.723,1.726-1.725,2.654-2.487,1.992-1.634-.853-4.449-2.828-2.828-1.952,1.601-6.144,5.276-2.599,7.585,1.619,1.054,4.222,1.039,6.07,1.112,1.747.069,3.49-.038,5.226-.223,7.456-.796,14.868-2.523,21.736-5.578.987-.439,1.22-1.877.718-2.736-.595-1.017-1.746-1.158-2.736-.718h0Z"/><path class="h" d="M119.99,35.268c-2.688,1.547-5.4,2.898-8.365,3.818-2.844.882-5.734,1.616-8.668,2.135-3.072.544-6.18.76-9.277,1.113-1.476.168-2.956.342-4.418.604-1.004.18-1.992.381-2.786,1.064-1.955,1.681.885,4.499,2.828,2.828-.256.22-.8.35-.245.237.19-.039.378-.096.568-.137.59-.13,1.189-.222,1.786-.31,1.269-.188,2.547-.323,3.824-.455,3.283-.342,6.565-.646,9.809-1.277,6.02-1.173,11.639-3.101,16.962-6.166,2.23-1.284.218-4.742-2.019-3.454h0Z"/><path class="h" d="M85.963,44.884c-.131.384-.269.766-.416,1.145-.074.19-.151.378-.226.567-.086.207-.078.188.024-.055-.04.094-.081.187-.122.281-.332.751-.696,1.488-1.088,2.209-.799,1.467-1.72,2.862-2.738,4.185-.294.381-.322,1.103-.202,1.541.128.464.486.967.919,1.195.464.245,1.026.368,1.541.202.53-.171.859-.482,1.195-.919,2.158-2.803,3.825-5.941,4.97-9.288.339-.991-.388-2.23-1.397-2.46-1.111-.253-2.097.336-2.46,1.397h0Z"/></g></g></svg>