<svg xmlns="http://www.w3.org/2000/svg" width="433.519" height="281.548" viewBox="0 0 433.519 281.548"><defs><style>.a{fill:#211715;}</style></defs><path class="a" d="M3.392,86.007c2.916-3.627,6.04-7.541,10.4-9.479,4.3-1.912,9.245-1.175,13.285,1.034,4.481,2.451,7.573,6.56,9.776,11.084a54.953,54.953,0,0,1,2.692,6.86,29.47,29.47,0,0,0,3.215,7.436c5.946,8.751,17.718,8.461,27.094,8.728,9.354.268,19.989,2.046,25.775,10.294,3.113,4.439,4.676,9.968,5.449,15.278a47.643,47.643,0,0,1-.458,16.449c-.523,2.512,3.332,3.586,3.857,1.063,2.132-10.239,1.25-21.544-3.25-31.052-4.534-9.58-14.15-14.345-24.3-15.57-5.868-.708-11.81-.22-17.673-.927-4.468-.539-9.349-1.923-12.4-5.448-1.694-1.959-2.521-4.5-3.32-6.913A67.884,67.884,0,0,0,40.486,87,28.718,28.718,0,0,0,30.27,74.8c-4.895-3.095-11.213-4.426-16.777-2.435C8,74.331,4.12,78.755.563,83.178a2.062,2.062,0,0,0,0,2.829,2.015,2.015,0,0,0,2.829,0Z"/><path class="a" d="M370.51,131.4c-3.023-6.44-4.642-13.849-3.559-20.953a25.877,25.877,0,0,1,9.178-16.293,20.551,20.551,0,0,1,16.793-4.57c3.8.722,7.459,2.045,11.341,2.34a25.844,25.844,0,0,0,10.042-1.27,26.538,26.538,0,0,0,10-6.023c3.025-2.907,5.387-6.415,8.341-9.389,1.816-1.829-1.011-4.659-2.829-2.829-2.7,2.721-4.908,5.877-7.576,8.627a22.388,22.388,0,0,1-18.976,6.787c-4.01-.527-7.813-2.041-11.847-2.48-13.589-1.482-25.576,10.039-28.1,22.772-1.707,8.614.048,17.436,3.739,25.3,1.093,2.329,4.543.3,3.454-2.019Z"/><path class="a" d="M59.139,196.354c.88,2.348.9,3.951-.67,5.961a21.643,21.643,0,0,1-5.289,4.467c-3.8,2.506-7.949,4.634-11.208,7.873-4.788,4.759-7.654,12.636-3.316,18.638,2.57,3.556,6.673,5.8,10.6,7.541a105.714,105.714,0,0,0,17.169,5.627c12.875,3.235,26.018,5.263,39.1,7.47,15.919,2.687,31.529,6.69,47.161,10.687,19.276,4.929,38.6,9.819,58.392,12.192,18.082,2.168,36.243,3.74,54.445,4.4,13.054.471,26.114.425,39.169.043,12.4-.363,24.753-.49,36.947-3.01a145.831,145.831,0,0,0,23.9-7.069c6.7-2.638,13.441-5.742,19.209-10.114a108.2,108.2,0,0,0,12.961-12.082,102.877,102.877,0,0,0,12.348-15.143,19.317,19.317,0,0,0,2.783-5.931c.56-2.508-3.3-3.579-3.857-1.063a17.488,17.488,0,0,1-2.78,5.591,76.748,76.748,0,0,1-5.479,7.193,154.043,154.043,0,0,1-13.594,14.194c-10.348,9.5-23.864,14.658-37.241,18.326a125.919,125.919,0,0,1-22.646,4.246c-5.364.453-10.786.474-16.166.657-12.01.41-24.024.645-36.041.422-16.438-.3-32.855-1.385-49.212-3.029-9.785-.983-19.567-2.06-29.25-3.807-9.626-1.737-19.161-3.948-28.656-6.292-17.572-4.337-35.036-9.43-52.837-12.772-12.194-2.288-24.485-4.014-36.644-6.5-6.33-1.293-12.645-2.74-18.818-4.656-4.8-1.488-9.671-3.214-13.9-5.987-4.007-2.629-6.32-6.191-4.694-11.156,2.894-8.83,13.59-11.067,19.487-17.251,3.013-3.159,4.035-6.587,2.481-10.73-.9-2.388-4.764-1.354-3.857,1.063Z"/><path class="a" d="M59.23,192c3.227,3.979,6.82,8.041,12.208,8.668a17.346,17.346,0,0,0,8.756-1.714c3.129-1.341,6.163-2.931,9.224-4.419l9.251-4.5a38.834,38.834,0,0,0,7.923-4.5c4.958-4.074,4.8-10.563,5.025-16.421.125-3.221.63-6.69.066-9.884a7.382,7.382,0,0,0-3.587-5.17,20.855,20.855,0,0,0-6.2-2.032c-1.85-.409-4.166-.716-5.734-1.872s-2.275-3.4-3.4-4.923a7.537,7.537,0,0,0-4.344-3.006,47.112,47.112,0,0,0-10.381-.969c-9.944-.235-19.882.353-29.822.516-2.571.042-2.579,4.043,0,4,8.273-.136,16.538-.548,24.812-.564a111.431,111.431,0,0,1,11.4.4,16.194,16.194,0,0,1,3.368.595,1.8,1.8,0,0,1,.976.5,9.135,9.135,0,0,1,1.784,2.485c1.068,1.8,2.168,3.679,4.073,4.706a22.681,22.681,0,0,0,5.91,1.93,21.053,21.053,0,0,1,5.2,1.506c1.779.928,2.147,2.377,2.151,4.36,0,3.1-.221,6.223-.342,9.325-.1,2.633-.09,5.358-.975,7.876-.856,2.432-2.78,3.98-4.958,5.209-2.6,1.467-5.36,2.68-8.044,3.985l-9.911,4.82c-3.006,1.461-6.117,3.306-9.483,3.762-5.489.744-9.006-3.662-12.114-7.492a2.012,2.012,0,0,0-2.828,0,2.046,2.046,0,0,0,0,2.828Z"/><path class="a" d="M25.717,142.682a38.321,38.321,0,0,1,16.552,9.966c4.245,4.36,8.589,11.218,4.662,17.157a2.015,2.015,0,0,0,1.727,3.01c5.754-.116,9.266,5.425,9.809,10.592.488,4.631-.082,11.4-4.717,13.865-2.274,1.209-.255,4.663,2.019,3.454,6.215-3.3,7.431-11.9,6.59-18.211-.932-6.995-6.051-13.854-13.7-13.7l1.727,3.009c4.7-7.106.645-15.547-4.449-21.116A42.34,42.34,0,0,0,26.78,138.825c-2.473-.733-3.529,3.126-1.063,3.857Z"/><path class="a" d="M72.405,171.239l10.663-4.953L88.2,163.9a13.67,13.67,0,0,1,4.979-1.731c2.564-.11,2.578-4.11,0-4a15.254,15.254,0,0,0-5.813,1.727q-2.766,1.278-5.528,2.568l-11.452,5.321a2.015,2.015,0,0,0-.718,2.736,2.045,2.045,0,0,0,2.736.717Z"/><path class="a" d="M86.218,164.547c2.447,3.394,3.566,7.357,4.288,11.43.756,4.254,1.725,8.992,1.042,13.3a2.064,2.064,0,0,0,1.4,2.461,2.017,2.017,0,0,0,2.461-1.4c.786-4.963-.131-10.107-.97-15.016-.773-4.514-2.053-9.04-4.765-12.8a2.057,2.057,0,0,0-2.736-.717,2.015,2.015,0,0,0-.717,2.736Z"/><path class="a" d="M78.85,168.078a14.39,14.39,0,0,1,2.491,5.212,57.482,57.482,0,0,1,1.754,6.54A56.19,56.19,0,0,1,84.177,193c-.082,2.574,3.918,2.571,4,0a60.785,60.785,0,0,0-1.321-14.692,57.625,57.625,0,0,0-1.96-6.967,17.344,17.344,0,0,0-3.218-6.092c-1.722-1.921-4.544.916-2.828,2.828Z"/><path class="a" d="M44.544,4.552a81.077,81.077,0,0,1,14.529-.376A64.1,64.1,0,0,1,70.507,6.255,155.031,155.031,0,0,1,99.08,17.2c5.472,2.686,10.85,5.557,16.232,8.417,2.273,1.207,4.3-2.245,2.019-3.454C107.676,17.029,98.013,11.882,87.855,7.8,79.268,4.352,70.165,1.373,60.927.35a77.289,77.289,0,0,0-16.383.2,2.059,2.059,0,0,0-2,2,2.014,2.014,0,0,0,2,2Z"/><path class="a" d="M59.241,4.411a45.118,45.118,0,0,1,8.8,11.885,66.545,66.545,0,0,1,4.926,14.217c.616,2.5,4.474,1.44,3.857-1.064A71.177,71.177,0,0,0,71.5,14.277,48.444,48.444,0,0,0,62.069,1.583c-1.84-1.8-4.671,1.023-2.828,2.828Z"/><path class="a" d="M72.245,25.839C61.464,30.055,52.554,37.656,45.852,47.013c-.991,1.384.4,2.838,1.726,3.01A26.275,26.275,0,0,0,76.012,30.868c.674-2.487-3.184-3.549-3.857-1.063A22.343,22.343,0,0,1,47.578,46.023l1.727,3.009c6.044-8.438,14.276-15.532,24-19.336a2.059,2.059,0,0,0,1.4-2.46,2.014,2.014,0,0,0-2.46-1.4Z"/><path class="a" d="M75.878,28.918c9.034-3.131,19.346-2.745,28.666-1.287l-.478-3.655c-2.55,1.261-5.078,2.569-7.657,3.771a31.545,31.545,0,0,1-6.8,2.652c-4.01.812-8.747-.95-12.6-2.048-2.48-.708-3.538,3.151-1.063,3.857,4.606,1.314,9.635,2.953,14.474,2.095a31.4,31.4,0,0,0,7.208-2.732c2.857-1.3,5.644-2.75,8.458-4.142,1.458-.721,1.216-3.39-.478-3.655C95.59,22.207,84.54,21.691,74.815,25.061c-2.418.838-1.378,4.7,1.063,3.857Z"/><path class="a" d="M89.085,48.441a39.472,39.472,0,0,0,15.58-2.564,2.028,2.028,0,0,0,.477-3.655A31.757,31.757,0,0,0,95.405,37.7a23.445,23.445,0,0,0-10.8.067,36.8,36.8,0,0,0-6.312,2.173,19.232,19.232,0,0,0-4.843,3.43,46.016,46.016,0,0,0-7.64,9.586,38.8,38.8,0,0,0-5.55,12.661,2.019,2.019,0,0,0,1.929,2.531c8.953-.863,17.844-6.74,21.452-15.095a2.068,2.068,0,0,0-.718-2.737,2.015,2.015,0,0,0-2.736.718,22.7,22.7,0,0,1-18,13.114l1.928,2.532a33.485,33.485,0,0,1,4.081-10,49.512,49.512,0,0,1,6.415-8.887,26.231,26.231,0,0,1,4.037-3.463,18.669,18.669,0,0,1,5.225-2.226,20.142,20.142,0,0,1,9.482-.755,27.335,27.335,0,0,1,9.77,4.326l.477-3.656a36.484,36.484,0,0,1-14.516,2.421c-2.572-.144-2.564,3.856,0,4Z"/><path class="a" d="M88.679,48.164c3.08,7.3,5.366,14.878,5.468,22.855l2.531-1.929c-2.922-.973-5.044-3.857-6.9-6.161a33.453,33.453,0,0,1-5.652-9.414c-.864-2.405-4.73-1.367-3.857,1.064a39.174,39.174,0,0,0,6.681,11.179c2.364,2.935,4.978,5.961,8.666,7.189a2.016,2.016,0,0,0,2.532-1.928c-.107-8.337-2.39-16.283-5.611-23.918a2.068,2.068,0,0,0-2.46-1.4,2.012,2.012,0,0,0-1.4,2.46Z"/><path class="a" d="M430.625,146.732a17.54,17.54,0,0,0-4.478-14.048c-3.381-3.833-8.45-5.85-13.188-7.416a133.662,133.662,0,0,0-16.777-4.473,15.873,15.873,0,0,0-8.163.141,15.471,15.471,0,0,0-5.219,3.17c-3.136,2.778-5.375,6.415-8.542,9.163a39.713,39.713,0,0,1-6.157,3.868,20.6,20.6,0,0,0-5.723,4.708A22.3,22.3,0,0,0,357.7,154.32c-.323,4.383.34,9.692,3.012,13.319,1.894,2.571,4.53,3.46,7.365,4.639,3,1.248,6,2.5,9.039,3.633a151.1,151.1,0,0,0,18.871,5.766c2.5.578,3.574-3.277,1.063-3.858a145.137,145.137,0,0,1-15.031-4.378c-4.949-1.723-9.737-3.811-14.617-5.706a7.29,7.29,0,0,1-4.388-4.093,18.172,18.172,0,0,1-1.319-5.873,19.972,19.972,0,0,1,2.254-11.157,14.706,14.706,0,0,1,3.762-4.448,57.291,57.291,0,0,1,5.914-3.577c3.508-2.111,6.034-5.061,8.663-8.133,2.25-2.63,4.819-5.569,8.451-6.076,2.546-.355,5.208.417,7.667.981q3.876.891,7.7,1.993c5.13,1.47,10.568,2.937,14.961,6.094,3.693,2.655,6.336,7.616,5.7,12.223a2.069,2.069,0,0,0,1.4,2.46,2.014,2.014,0,0,0,2.46-1.4Z"/><path class="a" d="M107.012,155.777c3.9-4.512,9.634-7.717,15.169-9.757a25.865,25.865,0,0,1,8.411-1.861,8.086,8.086,0,0,1,4.484.892,15.908,15.908,0,0,1,3.944,4.051,2.06,2.06,0,0,0,2.737.717,2.015,2.015,0,0,0,.717-2.736,23.483,23.483,0,0,0-4.733-5.027,10.672,10.672,0,0,0-6.034-1.873,25.83,25.83,0,0,0-9.577,1.622c-6.519,2.211-13.388,5.868-17.947,11.143-1.675,1.939,1.142,4.781,2.829,2.829Z"/><path class="a" d="M202.2,166.024c18.931-2.021,38.042-2.084,57.061-2.131q9.815-.025,19.629.191c2.575.06,2.574-3.94,0-4-11.34-.266-22.686-.224-34.028-.095-9.513.109-19.031.315-28.529.879-4.719.28-9.433.654-14.133,1.156a2.058,2.058,0,0,0-2,2,2.014,2.014,0,0,0,2,2Z"/><path class="a" d="M331.035,167.892c4.026.578,8.038,1.247,12.021,2.073a75.776,75.776,0,0,1,9.806,3c5.8,2.05,14.429,4.993,19.449-.24,1.782-1.858-1.042-4.69-2.829-2.828-2,2.084-5.315,1.905-7.942,1.424a59.321,59.321,0,0,1-9.168-2.767,103.221,103.221,0,0,0-20.274-4.522,2.068,2.068,0,0,0-2.46,1.4,2.014,2.014,0,0,0,1.4,2.46Z"/><path class="a" d="M110.1,174.042c6.607,1.58,13.589,1.661,20.344,1.521a247.481,247.481,0,0,0,25.6-2.009,2.064,2.064,0,0,0,2-2,2.012,2.012,0,0,0-2-2,249.359,249.359,0,0,1-25.168,2c-6.537.152-13.314.16-19.711-1.369-2.5-.6-3.57,3.258-1.063,3.857Z"/><path class="a" d="M272.506,134.239a46.833,46.833,0,0,0-9.918-3.618c-3.659-.708-7.472-1.726-11.219-1.248-3.664.467-7.272,2.343-10.487,4.072a112.577,112.577,0,0,0-9.951,6.173c-2.115,1.44-.116,4.908,2.019,3.454,2.986-2.033,6.02-4,9.181-5.752,2.884-1.6,6.1-3.367,9.382-3.952s6.815.491,10.011,1.11a42.151,42.151,0,0,1,8.963,3.215,2.063,2.063,0,0,0,2.736-.718,2.015,2.015,0,0,0-.717-2.736Z"/><path class="a" d="M235.617,143.607c-3.266-2.39-6.168-5.529-9.758-7.439-4.573-2.434-10.086-2.544-15.141-2.647-2.575-.052-2.574,3.948,0,4a53.944,53.944,0,0,1,8.537.638,20.277,20.277,0,0,1,2.862.719,8.759,8.759,0,0,1,2.043.919,22.079,22.079,0,0,1,3.756,2.756c1.856,1.552,3.728,3.078,5.682,4.508a2.015,2.015,0,0,0,2.736-.717,2.046,2.046,0,0,0-.717-2.737Z"/><path class="a" d="M430.062,143.979a74.748,74.748,0,0,1-10.5,7.458c-1.864,1.2-3.7,2.432-5.456,3.784a21.118,21.118,0,0,0-3.173,2.725,117.406,117.406,0,0,0-8.847,12.405c-3.725,5.659-7.558,12.323-7.214,19.333a65.824,65.824,0,0,0,2.752,14.174c1.332,4.768,2.931,9.476,4.688,14.1,3.053,8.044,10.417,16.031,19.286,17.3a2.069,2.069,0,0,0,2.461-1.4,2.016,2.016,0,0,0-1.4-2.461c-7.229-1.03-13.305-7.176-16.151-13.65a110.756,110.756,0,0,1-4.43-12.88,86.842,86.842,0,0,1-3.028-13.427c-.886-6.714,2.476-12.906,6.014-18.351,1.569-2.415,3.2-4.787,4.872-7.135q1.063-1.5,2.151-2.98.425-.577.856-1.152c.122-.163.245-.324.368-.486a1.848,1.848,0,0,1,.174-.224c2.046-2.549,5.2-4.363,7.915-6.11,3.963-2.55,8-5,11.488-8.2,1.9-1.745-.935-4.568-2.828-2.828Z"/><path class="a" d="M419.06,169.924a163.845,163.845,0,0,1,6.894,25.829c.458,2.529,4.313,1.457,3.857-1.064a163.862,163.862,0,0,0-6.894-25.828c-.858-2.408-4.725-1.37-3.857,1.063Z"/><path class="a" d="M89.031,205.176a16.77,16.77,0,0,0,14.481-5.553,2.052,2.052,0,0,0,0-2.829,2.019,2.019,0,0,0-2.829,0,14.721,14.721,0,0,1-1.179,1.217c-.22.2-.448.4-.68.584.164-.133.01,0-.069.053q-.2.147-.405.289a14.93,14.93,0,0,1-1.449.878q-.4.212-.8.4c-.031.014-.372.162-.219.1s-.329.125-.317.121a15.3,15.3,0,0,1-1.619.5q-.436.108-.877.191c-.131.025-.262.046-.393.068s-.279.037-.061.011a14.579,14.579,0,0,1-3.579-.028,2,2,0,0,0-2,2,2.063,2.063,0,0,0,2,2Z"/><path class="a" d="M105.718,195.077c2.574,0,2.579-4,0-4s-2.578,4,0,4Z"/><path class="a" d="M361.617,145.906a26.993,26.993,0,0,0-13.343-3.773c-2.826.029-6.894.619-8.859,2.863a2.05,2.05,0,0,0,0,2.829,2.02,2.02,0,0,0,2.829,0,2.563,2.563,0,0,1,1.179-.778,13.9,13.9,0,0,1,2.009-.564,11.917,11.917,0,0,1,3.148-.348,23.38,23.38,0,0,1,11.018,3.224c2.23,1.3,4.246-2.16,2.019-3.453Z"/><path class="a" d="M336.139,259.061c13.231-2.281,26.605-6.4,36.767-15.561a51.582,51.582,0,0,0,6.984-7.828,2.013,2.013,0,0,0-.718-2.736,2.046,2.046,0,0,0-2.736.718c-7.181,9.773-17.754,15.6-29.25,18.86a117.288,117.288,0,0,1-12.11,2.69,2.016,2.016,0,0,0-1.4,2.46,2.046,2.046,0,0,0,2.46,1.4Z"/><path class="a" d="M280.626,93.316a14.283,14.283,0,0,0-2.983-26.58l.883,3.342c3.5-4.366.628-10.625-3.477-13.5-4.5-3.156-11.591-2.23-15.032,2.123l3.414,1.414c-.394-4.367-4.3-7.882-8.562-8.377-3.547-.412-8.281.845-9.834,4.408a2.066,2.066,0,0,0,.718,2.737,2.014,2.014,0,0,0,2.736-.718c.925-2.122,3.688-2.646,5.787-2.483,2.164.167,4.943,2.088,5.155,4.433.136,1.507,2.228,2.915,3.414,1.414a7.624,7.624,0,0,1,9.577-1.886,8.038,8.038,0,0,1,3.164,3.69c.49,1.1.962,2.856.111,3.917a2.028,2.028,0,0,0,.883,3.343,10.275,10.275,0,0,1,2.027,19.269c-2.289,1.179-.268,4.632,2.019,3.454Z"/><path class="a" d="M234.915,64.635a11.024,11.024,0,0,0-2.662,10.627,8.681,8.681,0,0,0,8.132,6.371c2.585.075,2.558-3.862,0-4-3.575-.194-6.061,2.968-6.407,6.263a9.034,9.034,0,0,0,2.11,6.681c4.281,5.2,13.179,6.314,18.748,2.622,2.136-1.415.135-4.881-2.019-3.454a11.113,11.113,0,0,1-13.11-1.141,5.919,5.919,0,0,1-1.432-1.985,4.866,4.866,0,0,1-.346-1.659,3.031,3.031,0,0,1,.295-1.89,2.225,2.225,0,0,1,2.161-1.437v-4c-5.2-.152-5.6-7.188-2.641-10.169,1.816-1.828-1.011-4.658-2.829-2.829Z"/><path class="a" d="M312.637,99.163c-.018-2.9.578-6.379,3.888-7.114,3.187-.707,6.4,1.293,8.732,3.27a28.209,28.209,0,0,1,6.05,7.4c.595,1.019,1.49,2.45,1.051,3.691-.4,1.119-1.941,1.512-2.952,1.737-2.512.558-1.449,4.415,1.063,3.857,3.133-.7,6.116-2.9,5.96-6.412-.153-3.436-2.561-6.588-4.612-9.19-4.03-5.113-11.374-10.816-18.174-7.548-3.91,1.878-5.031,6.322-5.006,10.312.017,2.573,4.017,2.578,4,0Z"/><path class="a" d="M282.514,188.778q2.161-.994,4.319-2c.333-.155.674-.3,1-.461-.991.485-.08.044.124-.042.231-.1.461-.194.682-.313a5.988,5.988,0,0,0,1.106-.788,5.825,5.825,0,0,0,1.727-3.592c.275-1.77.581-3.533.718-5.321a2.01,2.01,0,0,0-2-2,2.049,2.049,0,0,0-2,2c-.036.47-.08.94-.135,1.409-.008.075-.083.638-.03.257-.028.2-.057.4-.088.6-.1.666-.219,1.33-.322,2-.04.253-.081.507-.138.757a6.978,6.978,0,0,0-.209.71c.044-.435.125-.273.012-.068-.034.062-.315.46-.1.183s-.126.111-.169.159c-.25.278.349-.209-.013.019-.125.08-.248.159-.379.23s-.435.212-.127.076c-.258.114-.525.209-.783.325-.381.17-.758.348-1.136.523q-2.041.945-4.083,1.888a2.008,2.008,0,0,0-.717,2.736,2.057,2.057,0,0,0,2.736.718Z"/><path class="a" d="M320.475,179.012q-.089-.538-.162-1.08l.072.532q-.132-.987-.218-1.98a1.5,1.5,0,0,0-.173-.771,1.489,1.489,0,0,0-.413-.643,2,2,0,0,0-2.829,0,1.957,1.957,0,0,0-.585,1.414c.106,1.2.254,2.4.451,3.592a2.238,2.238,0,0,0,.919,1.195,2,2,0,0,0,2.737-.718l.2-.477a2,2,0,0,0,0-1.064Z"/><path class="a" d="M278.36,140.844a6.672,6.672,0,0,0-7.274-1.082,6.344,6.344,0,0,0-3.315,4.264,15.808,15.808,0,0,0,2.291,12.475c1.626,2.419,4.2,4.6,7.309,4.2a2.065,2.065,0,0,0,2-2,2.012,2.012,0,0,0-2-2c-2.136.278-3.523-1.492-4.45-3.2a12.813,12.813,0,0,1-1.526-4.736,8.136,8.136,0,0,1,.81-4.954c-.329.533.51-.43.19-.2a1.744,1.744,0,0,1,.9-.411,2.423,2.423,0,0,1,2.239.475,2.046,2.046,0,0,0,2.828,0,2.019,2.019,0,0,0,0-2.829Z"/><path class="a" d="M333.152,143.673a2.4,2.4,0,0,1,2.114-.5,1.837,1.837,0,0,1,1.023.438c-.312-.228.51.714.19.2a8.12,8.12,0,0,1,.81,4.954,12.856,12.856,0,0,1-1.526,4.736c-.926,1.71-2.313,3.48-4.45,3.2a2.01,2.01,0,0,0-2,2,2.05,2.05,0,0,0,2,2c5.058.657,8.171-4.8,9.435-8.888,1.136-3.677,1.073-9.358-2.52-11.708a6.634,6.634,0,0,0-7.9.742,2,2,0,0,0,2.828,2.829Z"/><path class="a" d="M318.3,173.737a16.28,16.28,0,0,1-3.215,1.862l.478-.2a11.764,11.764,0,0,1-1.945.628,2.017,2.017,0,0,0-1.4,2.461,2.044,2.044,0,0,0,2.46,1.4,15.53,15.53,0,0,0,5.638-2.691,2.166,2.166,0,0,0,.919-1.195,2.045,2.045,0,0,0-.2-1.542,2.021,2.021,0,0,0-1.2-.919,1.957,1.957,0,0,0-1.541.2Z"/><path class="a" d="M331.114,163.813c.187-.406.361-.82.521-1.237l-.2.477a25.422,25.422,0,0,0,1.971-5.9,2.138,2.138,0,0,0-.2-1.542,2,2,0,0,0-3.656.478,26.135,26.135,0,0,1-1.555,4.942l.2-.478c-.191.448-.385.895-.572,1.345l.2-.478c-.053.125-.108.248-.164.371a2.165,2.165,0,0,0-.2,1.542,2.047,2.047,0,0,0,.919,1.195,2.025,2.025,0,0,0,2.737-.718Z"/><path class="a" d="M275.2,157.063c2.37,10.394,10.2,21.728,21.432,23.422a2.064,2.064,0,0,0,2.46-1.4,2.014,2.014,0,0,0-1.4-2.46c-9.94-1.5-16.546-11.456-18.638-20.629-.572-2.508-4.429-1.447-3.857,1.064Z"/><path class="a" d="M274.311,140.312a32.451,32.451,0,0,1,2.779-23.969A31.6,31.6,0,0,1,290.776,103.5c13.618-6.559,31.137-1.841,39.487,10.753,5.119,7.72,6.134,17.178,3.973,26.057-.609,2.5,3.247,3.568,3.857,1.064,2.2-9.025,1.5-18.58-2.985-26.83A34.88,34.88,0,0,0,319.1,99.768a36.256,36.256,0,0,0-26.808-1.2,35.437,35.437,0,0,0-17.348,13.636c-5.745,8.562-6.991,19.286-4.485,29.168.633,2.493,4.492,1.437,3.857-1.064Z"/><path class="a" d="M299.417,165.919a11.807,11.807,0,0,0,5.681,1.326,9.373,9.373,0,0,0,5.852-1.776,2,2,0,0,0,.586-1.415,2.036,2.036,0,0,0-.586-1.414,2.062,2.062,0,0,0-2.828,0c.693-.54-.007-.024-.225.091-.169.088-.614.228.022.009-.153.053-.3.117-.458.167-.419.134-.87.161-1.283.293.21-.067.34-.041.038-.011-.126.012-.252.023-.378.031-.3.02-.608.027-.913.025-.272,0-.544-.01-.816-.029-.125-.008-.25-.018-.374-.031q-.107-.011-.213-.024-.237-.029.192.026c-.013-.05-1.069-.228-1.2-.266-.168-.05-.332-.111-.5-.167-.443-.152.429.2.027.015q-.308-.146-.609-.3a2,2,0,0,0-2.019,3.454Z"/><path class="a" d="M303.087,151.829c-.225.858-.427,1.726-.575,2.6a3.725,3.725,0,0,0-.013,1.641,2.434,2.434,0,0,0,1.279,1.573,3.39,3.39,0,0,0,1.622.4c.352-.015.688-.1,1.034-.148a1.993,1.993,0,0,0,1.195-.919,2,2,0,0,0-.717-2.737l-.478-.2a2.018,2.018,0,0,0-1.063,0c-.129.017-.255.048-.383.066l.532-.071a1.441,1.441,0,0,1-.341,0l.532.072a1.59,1.59,0,0,1-.363-.106l.478.2a1.92,1.92,0,0,1-.215-.114l.405.313a.57.57,0,0,1-.089-.088l.313.405a.72.72,0,0,1-.06-.109l.2.478a.817.817,0,0,1-.041-.169l.071.532a1.624,1.624,0,0,1,.01-.375l-.071.532a25.014,25.014,0,0,1,.594-2.717,2.086,2.086,0,0,0-.2-1.541,2,2,0,0,0-2.736-.717,2.066,2.066,0,0,0-.92,1.2Z"/><path class="a" d="M292.047,149.047a14.211,14.211,0,0,1,2.4-.534l-.532.072c.2-.027.406-.05.61-.071a2.222,2.222,0,0,0,1.414-.585,2,2,0,0,0,0-2.829,1.949,1.949,0,0,0-1.414-.586,17.24,17.24,0,0,0-3.547.676,2.1,2.1,0,0,0-1.195.919,2,2,0,0,0,.718,2.737,2.021,2.021,0,0,0,1.541.2Z"/><path class="a" d="M315.106,148.533a7.824,7.824,0,0,1,1.491.053l-.531-.072a7.75,7.75,0,0,1,1.732.451,1.511,1.511,0,0,0,.8.035,1.492,1.492,0,0,0,.744-.237,2,2,0,0,0,.717-2.736l-.313-.4a1.99,1.99,0,0,0-.882-.514,7.579,7.579,0,0,0-1.614-.434,10.107,10.107,0,0,0-2.141-.141,2.112,2.112,0,0,0-1.414.586,2,2,0,0,0,0,2.828,1.989,1.989,0,0,0,1.414.586Z"/><path class="a" d="M315.439,123.875a40.624,40.624,0,0,0,5.473,11.851c2.414,3.413,5.718,7.581,10.011,8.575,2.5.579,3.574-3.277,1.063-3.858a5.869,5.869,0,0,1-2.155-.989,14.245,14.245,0,0,1-2.063-1.73,29.6,29.6,0,0,1-3.66-4.386,37.282,37.282,0,0,1-4.811-10.526c-.73-2.463-4.592-1.414-3.858,1.063Z"/><path class="a" d="M314.218,121.316c-10.651,8.423-23.066,15.008-36.386,17.919-2.514.549-1.45,4.406,1.063,3.857,14.022-3.064,26.957-10.095,38.151-18.947a2.013,2.013,0,0,0,0-2.829,2.05,2.05,0,0,0-2.828,0Z"/><path class="a" d="M298.178,125.568c-.059.16-.119.319-.182.478-.018.047-.2.479-.094.235s-.084.184-.1.229c-.071.156-.143.31-.218.463q-.392.806-.854,1.574t-.988,1.494q-.15.207-.305.411c.171-.225.048-.066-.057.065q-.3.364-.606.716a21.75,21.75,0,0,1-2.6,2.465c-.438.356.321-.229-.135.1-.115.083-.229.168-.345.251q-.381.272-.776.527c-.526.34-1.068.652-1.622.943a2.016,2.016,0,0,0-.718,2.736,2.046,2.046,0,0,0,2.737.717,22.9,22.9,0,0,0,10.72-12.346,2.01,2.01,0,0,0-1.4-2.46,2.053,2.053,0,0,0-2.46,1.4Z"/><path class="a" d="M263.066,207.664a24.085,24.085,0,0,1,2.605-6.657,22.988,22.988,0,0,1,4.805-5.572,32.837,32.837,0,0,1,6.124-3.686c1.045-.552,2.087-1.109,3.136-1.651.484-.251.97-.5,1.46-.736q.31-.151.624-.295c.388-.178-.151.052.219-.1a2.061,2.061,0,0,0,1.4-2.46,2.014,2.014,0,0,0-2.46-1.4,65.462,65.462,0,0,0-6.245,3.1,37.855,37.855,0,0,0-7.083,4.391,26.525,26.525,0,0,0-8.439,13.994c-.635,2.5,3.221,3.56,3.857,1.063Z"/><path class="a" d="M259.076,208.728c8.578,2.484,17.663,2.909,26.542,2.59,9.007-.323,17.883-1.751,26.853-2.464,3.533-.281,7.3-.543,10.716.6,2.447.816,3.5-3.045,1.063-3.857a26.189,26.189,0,0,0-9.514-.888c-4.252.208-8.482.792-12.709,1.279a157.84,157.84,0,0,1-27.481,1.241,65.81,65.81,0,0,1-14.407-2.354c-2.477-.718-3.535,3.141-1.063,3.857Z"/><path class="a" d="M333.425,193.661c1.745,5.612,3.583,11.2,5.036,16.9.635,2.493,4.494,1.436,3.857-1.063-1.452-5.7-3.291-11.287-5.036-16.9-.762-2.451-4.624-1.405-3.857,1.063Z"/><path class="a" d="M323.057,198.344c.073,4.17-.078,8.34-.1,12.51a2,2,0,1,0,4,0c.022-4.17.173-8.34.1-12.51a2,2,0,0,0-4,0Z"/><path class="a" d="M341.214,185.035l-4.625-12.1c-1.456-3.81-2.72-7.743-5.3-10.967-1.9-2.371-5.75-6.321-9.041-4.284a6.071,6.071,0,0,0-2.377,3.957c-.453,2.037-.774,4.112-1.158,6.163l-2.422,12.948-1.234,6.6a20.866,20.866,0,0,0-.759,5.464,4.159,4.159,0,0,0,3.195,3.9,8.467,8.467,0,0,1,1.919.485,10.692,10.692,0,0,1,1.7,1.251,7.15,7.15,0,0,0,4.477,1.94,7.652,7.652,0,0,0,4.914-2.3c1.406-1.275,2.4-2.575,4.348-2.949,1.645-.317,3.336-.276,4.859-1.072,3.605-1.886,2.563-5.876,1.507-9.025-.815-2.428-4.68-1.387-3.858,1.064a17.311,17.311,0,0,1,.878,3.347,2.725,2.725,0,0,1,.036.721c-.056.322.045-.027.068-.061a1.726,1.726,0,0,1-1.016.612,34.418,34.418,0,0,1-3.537.557A8.531,8.531,0,0,0,330,193.068c-1.011.811-1.819,1.871-2.864,2.636a2.28,2.28,0,0,1-3.215-.1,20.86,20.86,0,0,0-2.633-1.944,6.786,6.786,0,0,0-1.757-.636c-.289-.061-.931-.033-1.169-.216.02.015-.044.123-.089-.269a15.063,15.063,0,0,1,.638-4.13l1.006-5.375,2.011-10.749,1-5.375a45.124,45.124,0,0,1,.947-4.821,2.291,2.291,0,0,1,.468-1c-.074.068-.343-.146.04.06.188.1.372.228.55.346a14.867,14.867,0,0,1,3.52,3.3c2.21,2.874,3.258,6.544,4.536,9.886l4.362,11.418a2.058,2.058,0,0,0,2.461,1.4A2.015,2.015,0,0,0,341.214,185.035Z"/><path class="a" d="M321.735,210.053c.68,3.647,5.267,3.854,8.175,3.711,4.794-.236,9.531-1.25,14.281-1.881a2.068,2.068,0,0,0,2-2c0-.97-.922-2.144-2-2-4.289.57-8.555,1.406-12.867,1.783-.863.075-1.729.129-2.6.132-.361,0-.723-.007-1.084-.029-.187-.011-.373-.024-.558-.044-.347-.037,0,.006-.189-.03-.278-.054-.547-.128-.82-.2-.5-.131.17.108-.068-.015-.115-.06-.226-.125-.34-.188-.3-.167.093.155.008,0s-.332-.165.006.028c-.174-.1.01-.121.018.1a4.01,4.01,0,0,0-.109-.428,2.018,2.018,0,0,0-2.46-1.4,2.043,2.043,0,0,0-1.4,2.46Z"/><path class="a" d="M154.339,189.89q2.216-1.02,4.426-2.047c.342-.158.692-.306,1.03-.472-.99.487-.073.041.133-.046.234-.1.469-.2.693-.317a6.129,6.129,0,0,0,1.123-.8,5.929,5.929,0,0,0,1.757-3.658c.281-1.811.594-3.613.734-5.441a2.009,2.009,0,0,0-2-2,2.048,2.048,0,0,0-2,2c-.037.482-.081.963-.137,1.444-.009.07-.084.64-.033.277q-.043.306-.091.61c-.106.683-.224,1.363-.33,2.046-.04.26-.083.519-.141.776a5.06,5.06,0,0,0-.214.728c.131-.3.151-.352.061-.161l-.054.1c-.034.061-.32.464-.1.192s-.136.121-.178.168c-.251.281.343-.2-.022.028-.129.081-.255.162-.389.235-.114.062-.451.219-.143.083-.26.115-.53.211-.79.328-.39.175-.777.357-1.165.536q-2.091.969-4.184,1.935a2.008,2.008,0,0,0-.717,2.736,2.056,2.056,0,0,0,2.736.718Z"/><path class="a" d="M188.9,177.334a50.829,50.829,0,0,0,.814,5.85,5.534,5.534,0,0,0,3.138,4,6.786,6.786,0,0,0,.907.375c-.712-.206-.557-.244-.366-.153.156.076.315.146.473.22q.835.39,1.67.785,2.138,1.008,4.273,2.02a2.045,2.045,0,0,0,2.737-.718,2.024,2.024,0,0,0-.718-2.736c-2.166-1.026-4.319-2.094-6.51-3.066-.221-.1-.453-.178-.674-.276.387.172-.227-.13-.293-.169-.1-.061-.45-.352-.08-.022-.133-.118-.256-.241-.383-.365-.241-.237.223.371-.045-.092a2.058,2.058,0,0,0-.161-.318q.183.446.073.147c-.026-.075-.049-.151-.071-.228-.038-.135-.071-.272-.1-.41-.136-.633-.21-1.28-.316-1.918q-.072-.432-.136-.864c-.009-.058-.089-.643-.048-.333-.076-.576-.135-1.153-.184-1.732a2,2,0,0,0-4,0Z"/><path class="a" d="M149.971,140.86a6.8,6.8,0,0,0-7.413-1.105,6.468,6.468,0,0,0-3.383,4.352,16.2,16.2,0,0,0,2.351,12.787c1.661,2.473,4.287,4.7,7.468,4.29a2.066,2.066,0,0,0,2-2,2.011,2.011,0,0,0-2-2c-2.218.287-3.665-1.548-4.627-3.322a13.04,13.04,0,0,1-1.577-4.9,12.125,12.125,0,0,1,.076-3.058,5.115,5.115,0,0,1,.765-2.066c-.323.515.512-.442.215-.224a1.91,1.91,0,0,1,.938-.428,2.586,2.586,0,0,1,2.359.5c1.915,1.709,4.754-1.11,2.828-2.828Z"/><path class="a" d="M206.328,143.688a2.557,2.557,0,0,1,2.23-.531,2.015,2.015,0,0,1,1.066.456c-.292-.214.53.726.216.224a5.125,5.125,0,0,1,.765,2.066,11.987,11.987,0,0,1,.075,3.058,13.07,13.07,0,0,1-1.577,4.9c-.961,1.773-2.408,3.609-4.626,3.322a2.009,2.009,0,0,0-2,2,2.052,2.052,0,0,0,2,2c5.176.671,8.356-4.917,9.649-9.1,1.161-3.756,1.107-9.575-2.565-11.978a6.767,6.767,0,0,0-8.061.755c-1.925,1.717.912,4.538,2.828,2.828Z"/><path class="a" d="M202.721,156.523a28.44,28.44,0,0,1-1.284,4.278c-.192.507-.336.8-.572,1.382-.2.5.142-.286-.031.074-.062.129-.119.261-.181.39a36.478,36.478,0,0,1-3.134,5.217c-2.723,3.858-6.449,8.071-11.235,9.2-2.5.589-1.444,4.446,1.064,3.857,5.67-1.333,10.033-6.067,13.319-10.607a37.321,37.321,0,0,0,3.406-5.575c.2-.422.386-.851.567-1.283.215-.515-.162.349.076-.174.154-.339.293-.687.43-1.033a28.434,28.434,0,0,0,1.432-4.659c.524-2.512-3.331-3.586-3.857-1.063Z"/><path class="a" d="M146.812,157.486c2.434,10.674,10.469,22.311,22,24.051a2.064,2.064,0,0,0,2.46-1.4,2.015,2.015,0,0,0-1.4-2.461c-10.243-1.545-17.055-11.805-19.21-21.258-.572-2.508-4.429-1.447-3.857,1.064Z"/><path class="a" d="M145.795,140.292a33.339,33.339,0,0,1,4.139-26.789c1.42-2.156-2.043-4.162-3.454-2.019a37.358,37.358,0,0,0-4.542,29.872c.638,2.492,4.5,1.435,3.857-1.064Z"/><path class="a" d="M204.8,115.7c4.141,7.577,4.751,16.295,2.738,24.589-.607,2.5,3.249,3.568,3.857,1.064,2.269-9.348,1.52-19.144-3.141-27.672-1.235-2.259-4.691-.243-3.454,2.019Z"/><path class="a" d="M171.7,166.561a12.084,12.084,0,0,0,5.814,1.357,9.585,9.585,0,0,0,5.979-1.811,2,2,0,0,0,0-2.829,2.062,2.062,0,0,0-2.828,0c.691-.538-.024-.012-.243.1-.169.089-.621.23.009.016-.158.054-.312.12-.471.171-.425.137-.91.151-1.32.3.21-.078.323-.039.024-.01-.13.013-.259.024-.389.032-.313.021-.626.028-.938.027q-.422,0-.84-.031c-.129-.008-.257-.019-.385-.032q-.109-.01-.219-.024-.235-.028.183.024c-.1.109-1.076-.226-1.233-.273-.173-.052-.341-.114-.512-.172-.449-.154.421.2.014.009q-.316-.149-.626-.312a2,2,0,1,0-2.019,3.454Z"/><path class="a" d="M176.24,153.2a25.956,25.956,0,0,1,.61,2.794l-.071-.531a1.654,1.654,0,0,1,.01.385l.072-.531a.929.929,0,0,1-.042.173l.2-.478a.674.674,0,0,1-.061.112l.313-.405a.56.56,0,0,1-.092.09l.405-.312a1.867,1.867,0,0,1-.221.117l.478-.2a1.628,1.628,0,0,1-.373.109l.531-.072a1.517,1.517,0,0,1-.35,0l.532.071c-.132-.018-.262-.05-.394-.068a1.523,1.523,0,0,0-.8-.036,1.48,1.48,0,0,0-.744.238,2,2,0,0,0-.717,2.736,1.913,1.913,0,0,0,1.195.919c.351.047.691.135,1.048.151a3.456,3.456,0,0,0,1.61-.392,2.45,2.45,0,0,0,1.319-1.6,3.757,3.757,0,0,0-.014-1.658c-.152-.9-.36-1.792-.591-2.675a2,2,0,0,0-2.46-1.4,2.03,2.03,0,0,0-1.2.919,2.1,2.1,0,0,0-.2,1.541Z"/><path class="a" d="M186.178,126.649a21.853,21.853,0,0,1,7.165,5.217,30.243,30.243,0,0,1,2.973,3.564c.459.654.892,1.328,1.287,2.022.18.316.353.636.516.961.095.19.183.382.274.573a1.182,1.182,0,0,1,.123.278,2.063,2.063,0,0,0,2.46,1.4,2.013,2.013,0,0,0,1.4-2.46,29.143,29.143,0,0,0-6.035-8.988A25.369,25.369,0,0,0,188.2,123.2a2.064,2.064,0,0,0-2.736.717,2.015,2.015,0,0,0,.718,2.737Z"/><path class="a" d="M154.475,139.906a81.242,81.242,0,0,1,7.05-6.923,44.48,44.48,0,0,1,3.669-2.91,12.718,12.718,0,0,0,1.9-1.213q.709-.275-.425-.354-.924-.609-.607.128a5.369,5.369,0,0,0-.015,1.25,3.057,3.057,0,0,0,3.715,2.973,16.4,16.4,0,0,0,3.838-2.085,82.749,82.749,0,0,1,9-4.811,2.014,2.014,0,0,0,.717-2.737,2.053,2.053,0,0,0-2.736-.717,82.757,82.757,0,0,0-9,4.812c-.69.4-1.379.807-2.072,1.2-.668.384-1.075.268-.12.824q.774.847.684.035a5.047,5.047,0,0,0-.011-.748c-.122-1.813-1.022-3.858-3.137-3.855-1.427,0-2.917,1.246-4.03,2.039-1.4,1-2.746,2.084-4.049,3.209a81.318,81.318,0,0,0-7.2,7.051c-1.72,1.907,1.1,4.745,2.829,2.828Z"/><path class="a" d="M164.074,149.2a14.531,14.531,0,0,1,2.473-.55l-.532.072c.209-.028.419-.052.628-.073a2.228,2.228,0,0,0,1.415-.585,2,2,0,0,0,0-2.829,1.952,1.952,0,0,0-1.415-.586,17.662,17.662,0,0,0-3.633.693,2.108,2.108,0,0,0-1.195.92,2,2,0,0,0,2.259,2.938Z"/><path class="a" d="M187.807,148.67a8.026,8.026,0,0,1,1.534.055l-.532-.072a7.952,7.952,0,0,1,1.782.464,1.511,1.511,0,0,0,.8.035,1.492,1.492,0,0,0,.744-.237,2,2,0,0,0,.717-2.736l-.313-.405a1.99,1.99,0,0,0-.882-.514,7.757,7.757,0,0,0-1.66-.446,10.347,10.347,0,0,0-2.187-.144,2.117,2.117,0,0,0-1.414.586,2,2,0,0,0,0,2.829,1.988,1.988,0,0,0,1.414.585Z"/><path class="a" d="M200.09,108.254c1.524-2.424,4.025-4.012,5.8-6.235a9.65,9.65,0,0,0,2.249-7.012,5.91,5.91,0,0,0-5.226-5.43,30.448,30.448,0,0,0-4.8-.042l-5.725.131c-6.8.157-13.631.159-20.426.556-5.98.349-12,1.191-17.492,3.711-5.119,2.351-10.67,6.795-11.017,12.866a8.574,8.574,0,0,0,3.551,7.29,6.806,6.806,0,0,0,3.474,1.266,9.363,9.363,0,0,0,4.061-.907c6.249-2.317,13.061-2.188,19.528-.952,3.424.655,6.79,1.577,10.129,2.57a77.4,77.4,0,0,0,10.1,2.667c6.176.961,13.65-.312,16.989-6.265,2.743-4.889.738-12.047-4.91-13.717-2.473-.732-3.53,3.127-1.063,3.857,3.48,1.029,3.963,5.8,2.151,8.441-2.7,3.944-8.262,4.476-12.57,3.751-5.924-1-11.577-3.357-17.437-4.677a48.961,48.961,0,0,0-17.527-1.114,32.34,32.34,0,0,0-4.134.837c-1.376.378-2.665,1.065-4.025,1.439a2.514,2.514,0,0,1-2.028-.195,4.3,4.3,0,0,1-1.954-2.177c-1.926-4.544,3.589-8.785,6.966-10.65,4.32-2.386,9.31-3.36,14.178-3.815,5.557-.518,11.164-.5,16.739-.627l10.951-.252c1.6-.037,3.205-.122,4.8-.1,1.019.013,2.151.109,2.589,1.174.715,1.739-.319,3.868-1.451,5.152-1.944,2.207-4.332,3.919-5.918,6.443-1.374,2.185,2.085,4.195,3.453,2.018Z"/><path class="a" d="M125.8,212.558a32.5,32.5,0,0,1,4.025-8.485,20.526,20.526,0,0,1,6.718-6.008c5.567-3.281,11.636-5.684,17.58-8.181a2.067,2.067,0,0,0,1.4-2.46,2.012,2.012,0,0,0-2.46-1.4c-6.463,2.715-13.138,5.272-19.135,8.944-6.195,3.793-9.775,9.733-11.982,16.523-.8,2.454,3.063,3.5,3.857,1.064Z"/><path class="a" d="M230.636,210.984a34.936,34.936,0,0,0-4.653-9.47,24.866,24.866,0,0,0-7.482-6.732,87.832,87.832,0,0,0-9.249-4.66c-3.158-1.415-6.623-2.877-9.573-4.1a2.013,2.013,0,0,0-2.46,1.4,2.05,2.05,0,0,0,1.4,2.46,143.127,143.127,0,0,1,17.246,7.987,21.149,21.149,0,0,1,6.668,5.661,30.941,30.941,0,0,1,4.249,8.516c.822,2.424,4.687,1.384,3.857-1.064Z"/><path class="a" d="M119.242,216.228A73.09,73.09,0,0,0,142.09,217.9c6.984-.465,13.916-1.56,20.91-1.876,14.819-.671,29.622,1.195,44.44.785a74.676,74.676,0,0,0,21.8-3.364c2.427-.817,1.386-4.681-1.063-3.857C215.357,213.9,201.4,213,188.1,212.442c-7.506-.316-15.017-.643-22.532-.5-6.821.132-13.576,1.119-20.364,1.712-8.343.729-16.73.779-24.9-1.286-2.5-.631-3.562,3.225-1.064,3.857Z"/></svg>